<svg width="24" height="23" viewBox="0 0 24 23" fill="none" xmlns="http://www.w3.org/2000/svg">
<path d="M9.75 16.716C8.2172 16.716 6.71882 16.2881 5.44433 15.4863C4.16985 14.6845 3.17652 13.545 2.58994 12.2117C2.00336 10.8784 1.84988 9.41125 2.14892 7.99583C2.44795 6.58041 3.18607 5.28026 4.26993 4.2598C5.35378 3.23934 6.7347 2.5444 8.23805 2.26286C9.74141 1.98131 11.2997 2.12581 12.7158 2.67808C14.1319 3.23035 15.3423 4.16558 16.1939 5.36552C17.0455 6.56545 17.5 7.97619 17.5 9.41934C17.4974 11.3538 16.68 13.2083 15.2272 14.5761C13.7743 15.944 11.8046 16.7135 9.75 16.716ZM9.75 4.00567C8.61276 4.00567 7.50106 4.32318 6.55547 4.91804C5.60989 5.5129 4.8729 6.3584 4.4377 7.34762C4.00249 8.33684 3.88862 9.42535 4.11049 10.4755C4.33235 11.5256 4.87999 12.4903 5.68414 13.2474C6.48829 14.0045 7.51284 14.5201 8.62823 14.729C9.74363 14.9379 10.8998 14.8307 11.9504 14.4209C13.0011 14.0112 13.8991 13.3173 14.531 12.427C15.1628 11.5367 15.5 10.4901 15.5 9.41934C15.4974 7.98431 14.8907 6.60877 13.8129 5.59405C12.7352 4.57932 11.2742 4.00816 9.75 4.00567Z" fill="#FBA409"/>
<path d="M20.9997 20.9528C20.8681 20.9535 20.7376 20.9298 20.6158 20.8829C20.494 20.8361 20.3832 20.767 20.2897 20.6798L13.8097 14.5788C13.7165 14.491 13.6425 14.3868 13.5921 14.2721C13.5416 14.1574 13.5156 14.0345 13.5156 13.9103C13.5156 13.7862 13.5416 13.6632 13.5921 13.5486C13.6425 13.4339 13.7165 13.3296 13.8097 13.2419C13.903 13.1541 14.0136 13.0844 14.1355 13.0369C14.2573 12.9894 14.3879 12.965 14.5197 12.965C14.6516 12.965 14.7821 12.9894 14.904 13.0369C15.0258 13.0844 15.1365 13.1541 15.2297 13.2419L21.7097 19.3428C21.8034 19.4304 21.8778 19.5345 21.9286 19.6492C21.9794 19.7639 22.0055 19.887 22.0055 20.0113C22.0055 20.1356 21.9794 20.2587 21.9286 20.3734C21.8778 20.4881 21.8034 20.5922 21.7097 20.6798C21.6163 20.767 21.5055 20.8361 21.3836 20.8829C21.2618 20.9298 21.1313 20.9535 20.9997 20.9528Z" fill="#FBA409"/>
</svg>
