<svg width="24" height="24" viewBox="0 0 24 24" fill="none" xmlns="http://www.w3.org/2000/svg">
<path d="M19.993 23.0673C9.543 23.0673 1 14.5243 1 4.03725C1.00368 3.24097 1.32171 2.47837 1.88486 1.9154C2.44801 1.35244 3.21072 1.03467 4.007 1.03125H7.747C8.957 1.03125 9.91 1.98425 9.91 3.19425C9.91 4.77125 10.24 6.27425 10.9 7.70425C11.083 8.10725 11.01 8.62125 10.68 8.95125L9.067 10.5273C8.91994 10.6868 8.841 10.8974 8.847 11.1143C8.847 11.3343 8.92 11.5173 9.067 11.7013L12.33 14.9643C12.623 15.2573 13.173 15.2573 13.467 14.9643L15.043 13.3872C15.373 13.0573 15.85 12.9843 16.29 13.1673C17.72 13.8273 19.26 14.1573 20.873 14.1573C22.047 14.1573 23.037 15.1113 23.037 16.3213V20.0613C23 21.7113 21.68 23.0673 19.993 23.0673ZM4.007 3.23125C3.79371 3.23307 3.58965 3.31855 3.43873 3.46928C3.28781 3.62001 3.20209 3.82396 3.2 4.03725C3.2 13.3143 10.753 20.8673 19.993 20.8673C20.433 20.8673 20.8 20.5013 20.8 20.0613V16.3573C19.15 16.3573 17.573 16.0643 16.07 15.4413L15.043 16.4673C14.493 17.0173 13.723 17.3472 12.917 17.3472C12.11 17.3472 11.377 17.0173 10.79 16.4673L7.527 13.2043C6.977 12.6543 6.647 11.8843 6.647 11.0773C6.647 10.2713 6.977 9.53725 7.527 8.95125L8.59 7.88725C8.00594 6.39166 7.70745 4.79983 7.71 3.19425H4.007V3.23125Z" fill="#7F8993"/>
</svg>
