<svg width="23" height="21" viewBox="0 0 23 21" fill="none" xmlns="http://www.w3.org/2000/svg">
<path d="M11.93 20.366C11.857 20.366 11.746 20.366 11.672 20.329C11.488 20.292 11.34 20.181 11.192 20.071L2.928 11.621C0.234999 8.855 0.234999 4.427 2.928 1.697C4.035 0.59 5.4 0 6.876 0H6.913C8.573 0 10.381 0.775 11.968 2.14C13.518 0.775 15.325 0 16.985 0H17.022C18.498 0 19.863 0.59 20.97 1.697C23.663 4.39 23.663 8.855 20.97 11.622L12.669 20.071C12.484 20.292 12.226 20.366 11.931 20.366H11.93ZM6.876 2.066C5.954 2.066 5.106 2.436 4.367 3.173C2.449 5.091 2.449 8.227 4.367 10.183L11.931 17.894L19.494 10.183C21.413 8.227 21.413 5.091 19.494 3.173C18.756 2.435 17.944 2.066 16.985 2.066H16.948C15.583 2.066 13.997 2.878 12.632 4.28L12.595 4.317C12.41 4.501 12.115 4.612 11.857 4.612C11.599 4.612 11.341 4.502 11.119 4.28C9.865 2.878 8.28 2.066 6.876 2.066Z" fill="#7F8993"/>
</svg>
