<svg width="24" height="24" viewBox="0 0 24 24" fill="none" xmlns="http://www.w3.org/2000/svg">
<path fill-rule="evenodd" clip-rule="evenodd" d="M2.21197 10.385C2.30543 10.2652 2.42497 10.1682 2.56152 10.1015C2.69806 10.0348 2.84801 10.0001 2.99997 10H21C21.152 10 21.302 10.0347 21.4386 10.1013C21.5752 10.168 21.6948 10.265 21.7883 10.3848C21.8818 10.5046 21.9468 10.6442 21.9783 10.7929C22.0097 10.9416 22.0069 11.0956 21.97 11.243L19.97 19.243C19.9158 19.4592 19.7909 19.6512 19.6152 19.7883C19.4394 19.9255 19.2229 20 19 20H4.99997C4.77705 20 4.56051 19.9255 4.38477 19.7883C4.20902 19.6512 4.08415 19.4592 4.02997 19.243L2.02997 11.243C1.99312 11.0956 1.99035 10.9417 2.02189 10.793C2.05342 10.6443 2.11843 10.5048 2.21197 10.385ZM4.27997 12L5.77997 18H18.218L19.718 12H4.28097H4.27997Z" fill="#CE8503"/>
<path fill-rule="evenodd" clip-rule="evenodd" d="M9.51395 5.14301C9.62664 5.21049 9.72494 5.29952 9.80322 5.40499C9.8815 5.51047 9.93823 5.63034 9.97017 5.75775C10.0021 5.88516 10.0087 6.01761 9.9894 6.14754C9.97014 6.27748 9.92547 6.40234 9.85795 6.51501L6.85795 11.515C6.72136 11.7424 6.50003 11.9063 6.24264 11.9705C5.98524 12.0347 5.71287 11.9941 5.48545 11.8575C5.25803 11.7209 5.09418 11.4996 5.02995 11.2422C4.96572 10.9848 5.00637 10.7124 5.14295 10.485L8.14295 5.48501C8.27956 5.25803 8.50066 5.09453 8.75771 5.03041C9.01475 4.96629 9.28674 5.00678 9.51395 5.14301Z" fill="#CE8503"/>
<path fill-rule="evenodd" clip-rule="evenodd" d="M8 13C8.26522 13 8.51957 13.1054 8.70711 13.2929C8.89464 13.4804 9 13.7348 9 14V16C9 16.2652 8.89464 16.5196 8.70711 16.7071C8.51957 16.8946 8.26522 17 8 17C7.73478 17 7.48043 16.8946 7.29289 16.7071C7.10536 16.5196 7 16.2652 7 16V14C7 13.7348 7.10536 13.4804 7.29289 13.2929C7.48043 13.1054 7.73478 13 8 13Z" fill="#CE8503"/>
<path fill-rule="evenodd" clip-rule="evenodd" d="M16 13C16.2652 13 16.5196 13.1054 16.7071 13.2929C16.8946 13.4804 17 13.7348 17 14V16C17 16.2652 16.8946 16.5196 16.7071 16.7071C16.5196 16.8946 16.2652 17 16 17C15.7348 17 15.4804 16.8946 15.2929 16.7071C15.1054 16.5196 15 16.2652 15 16V14C15 13.7348 15.1054 13.4804 15.2929 13.2929C15.4804 13.1054 15.7348 13 16 13Z" fill="#CE8503"/>
<path fill-rule="evenodd" clip-rule="evenodd" d="M12 13C12.2652 13 12.5196 13.1054 12.7071 13.2929C12.8946 13.4804 13 13.7348 13 14V16C13 16.2652 12.8946 16.5196 12.7071 16.7071C12.5196 16.8946 12.2652 17 12 17C11.7348 17 11.4804 16.8946 11.2929 16.7071C11.1054 16.5196 11 16.2652 11 16V14C11 13.7348 11.1054 13.4804 11.2929 13.2929C11.4804 13.1054 11.7348 13 12 13Z" fill="#CE8503"/>
<path fill-rule="evenodd" clip-rule="evenodd" d="M14.486 5.143C14.3733 5.21049 14.275 5.29951 14.1967 5.40499C14.1185 5.51047 14.0617 5.63033 14.0298 5.75774C13.9978 5.88515 13.9913 6.0176 14.0106 6.14754C14.0298 6.27747 14.0745 6.40234 14.142 6.515L17.142 11.515C17.2096 11.6277 17.2988 11.7259 17.4044 11.8041C17.51 11.8824 17.63 11.939 17.7575 11.9709C17.885 12.0027 18.0175 12.0091 18.1475 11.9898C18.2774 11.9704 18.4023 11.9256 18.515 11.858C18.6277 11.7904 18.7259 11.7012 18.8041 11.5956C18.8824 11.49 18.939 11.37 18.9709 11.2425C19.0027 11.115 19.0091 10.9825 18.9898 10.8525C18.9704 10.7226 18.9256 10.5977 18.858 10.485L15.858 5.485C15.7904 5.37234 15.7012 5.27412 15.5955 5.19595C15.4899 5.11778 15.3699 5.0612 15.2424 5.02944C15.1149 4.99767 14.9823 4.99136 14.8524 5.01084C14.7224 5.03033 14.5976 5.07524 14.485 5.143H14.486Z" fill="#CE8503"/>
</svg>
