<svg width="16" height="17" viewBox="0 0 16 17" fill="none" xmlns="http://www.w3.org/2000/svg">
<path d="M15.6804 3.35205L8.75633 0.0528978C8.68408 0.0180828 8.60488 0 8.52464 0C8.4444 0 8.36519 0.0180828 8.29294 0.0528978L0.303598 3.89925C0.212961 3.94231 0.136369 4.01004 0.082654 4.09464C0.0289388 4.17924 0.000287421 4.27725 3.23063e-06 4.37739V13.1698C-0.000358755 13.2735 0.0297064 13.375 0.0864923 13.4619C0.143278 13.5487 0.224303 13.6171 0.319577 13.6586L7.24368 16.9471C7.31593 16.9819 7.39513 17 7.47537 17C7.55561 17 7.63481 16.9819 7.70706 16.9471L15.6964 13.1007C15.787 13.0577 15.8636 12.99 15.9174 12.9054C15.9711 12.8208 15.9997 12.7227 16 12.6226V3.83019C15.9983 3.72831 15.9673 3.62908 15.9106 3.5443C15.854 3.45953 15.7741 3.39279 15.6804 3.35205ZM8.5273 1.12074L14.3489 3.89394L11.6591 5.19022L5.97603 2.34796L8.5273 1.12074ZM7.46205 7.22497L1.6032 4.44645L4.74568 2.93235L10.4447 5.77461L7.46205 7.22497ZM1.07058 5.36023L6.92943 8.15999V15.6296L1.07058 12.8351V5.36023ZM7.99468 15.6243V8.13874L14.9188 4.79709V12.2879L7.99468 15.6243Z" fill="#CE8503"/>
</svg>
