<svg width="20" height="15" viewBox="0 0 20 15" fill="none" xmlns="http://www.w3.org/2000/svg">
<path fill-rule="evenodd" clip-rule="evenodd" d="M0.594 1.208C0.873046 0.832956 1.23595 0.528385 1.65372 0.318633C2.07149 0.108881 2.53253 -0.000236709 3 1.50314e-06H17C17.3941 -0.000393166 17.7844 0.0769348 18.1485 0.227559C18.5127 0.378183 18.8435 0.599147 19.1222 0.877801C19.4009 1.15646 19.6218 1.48733 19.7724 1.85148C19.9231 2.21564 20.0004 2.60592 20 3V12C20 12.7957 19.6839 13.5587 19.1213 14.1213C18.5587 14.6839 17.7956 15 17 15H3C2.20435 15 1.44129 14.6839 0.87868 14.1213C0.316071 13.5587 0 12.7957 0 12V3C0 2.33 0.221 1.708 0.594 1.208ZM2.95 2L9.27 8.755C9.36355 8.85507 9.47666 8.93485 9.60232 8.9894C9.72798 9.04394 9.86351 9.07209 10.0005 9.07209C10.1375 9.07209 10.273 9.04394 10.3987 8.9894C10.5243 8.93485 10.6374 8.85507 10.731 8.755L17.052 2H3L2.949 2.001L2.95 2ZM18 3.915L12.19 10.123C11.9094 10.4227 11.5702 10.6617 11.1935 10.825C10.8168 10.9884 10.4106 11.0727 10 11.0727C9.58941 11.0727 9.18318 10.9884 8.80648 10.825C8.42978 10.6617 8.09062 10.4227 7.81 10.123L2 3.915V12C2 12.2652 2.10536 12.5196 2.29289 12.7071C2.48043 12.8946 2.73478 13 3 13H17C17.2652 13 17.5196 12.8946 17.7071 12.7071C17.8946 12.5196 18 12.2652 18 12V3.915Z" fill="#FBA409"/>
</svg>
