<svg width="17" height="17" viewBox="0 0 17 17" fill="none" xmlns="http://www.w3.org/2000/svg">
<path d="M3.81366 7.71056H13.1871C13.8869 7.71056 14.2587 6.90493 13.7935 6.39549L9.10719 1.26553C9.03117 1.18205 8.93782 1.11522 8.83329 1.06944C8.72875 1.02367 8.61543 1 8.5008 1C8.38617 1 8.27285 1.02367 8.16831 1.06944C8.06378 1.11522 7.97043 1.18205 7.89441 1.26553L3.20646 6.39549C2.74132 6.90493 3.11311 7.71056 3.81366 7.71056ZM7.8936 15.7345C7.96961 15.818 8.06297 15.8848 8.1675 15.9306C8.27203 15.9763 8.38536 16 8.49999 16C8.61462 16 8.72794 15.9763 8.83247 15.9306C8.937 15.8848 9.03036 15.818 9.10638 15.7345L13.7927 10.6045C14.2587 10.0959 13.8869 9.29023 13.1863 9.29023H3.81366C3.11392 9.29023 2.74213 10.0959 3.20727 10.6053L7.8936 15.7345Z" fill="#CE8503"/>
</svg>
