<svg width="24" height="24" viewBox="0 0 24 24" fill="none" xmlns="http://www.w3.org/2000/svg">
<path d="M9.75 17.5C8.2172 17.5 6.71882 17.0455 5.44433 16.1939C4.16985 15.3423 3.17652 14.1319 2.58994 12.7158C2.00336 11.2997 1.84988 9.74141 2.14892 8.23805C2.44795 6.7347 3.18607 5.35378 4.26993 4.26993C5.35378 3.18607 6.7347 2.44795 8.23805 2.14892C9.74141 1.84988 11.2997 2.00336 12.7158 2.58994C14.1319 3.17652 15.3423 4.16985 16.1939 5.44433C17.0455 6.71882 17.5 8.2172 17.5 9.75C17.4974 11.8046 16.68 13.7743 15.2272 15.2272C13.7743 16.68 11.8046 17.4974 9.75 17.5ZM9.75 4C8.61276 4 7.50106 4.33724 6.55547 4.96905C5.60989 5.60087 4.8729 6.4989 4.4377 7.54957C4.00249 8.60025 3.88862 9.75638 4.11049 10.8718C4.33235 11.9872 4.87999 13.0117 5.68414 13.8159C6.48829 14.62 7.51284 15.1677 8.62823 15.3895C9.74363 15.6114 10.8998 15.4975 11.9504 15.0623C13.0011 14.6271 13.8991 13.8901 14.531 12.9445C15.1628 11.999 15.5 10.8872 15.5 9.75C15.4974 8.22582 14.8907 6.76482 13.8129 5.68706C12.7352 4.6093 11.2742 4.00265 9.75 4Z" fill="#111111"/>
<path d="M21 22C20.8684 22.0008 20.738 21.9755 20.6161 21.9258C20.4943 21.876 20.3835 21.8027 20.29 21.71L13.81 15.23C13.7168 15.1368 13.6428 15.0261 13.5924 14.9042C13.5419 14.7824 13.5159 14.6519 13.5159 14.52C13.5159 14.3881 13.5419 14.2576 13.5924 14.1357C13.6428 14.0139 13.7168 13.9032 13.81 13.81C13.9033 13.7168 14.014 13.6428 14.1358 13.5923C14.2576 13.5419 14.3882 13.5159 14.52 13.5159C14.6519 13.5159 14.7824 13.5419 14.9043 13.5923C15.0261 13.6428 15.1368 13.7168 15.23 13.81L21.71 20.29C21.8037 20.383 21.8781 20.4936 21.9289 20.6154C21.9797 20.7373 22.0058 20.868 22.0058 21C22.0058 21.132 21.9797 21.2627 21.9289 21.3846C21.8781 21.5064 21.8037 21.617 21.71 21.71C21.6166 21.8027 21.5058 21.876 21.3839 21.9258C21.2621 21.9755 21.1316 22.0008 21 22Z" fill="#111111"/>
</svg>
