<svg width="24" height="24" viewBox="0 0 24 24" fill="none" xmlns="http://www.w3.org/2000/svg">
<path d="M11.93 22.366C11.857 22.366 11.746 22.366 11.672 22.329C11.488 22.292 11.34 22.181 11.192 22.071L2.92801 13.621C0.235014 10.855 0.235014 6.427 2.92801 3.697C4.03501 2.59 5.40001 2 6.87601 2H6.91301C8.57301 2 10.381 2.775 11.968 4.14C13.518 2.775 15.325 2 16.985 2H17.022C18.498 2 19.863 2.59 20.97 3.697C23.663 6.39 23.663 10.855 20.97 13.622L12.669 22.071C12.484 22.292 12.226 22.366 11.931 22.366H11.93ZM6.87601 4.066C5.95401 4.066 5.10601 4.436 4.36701 5.173C2.44901 7.091 2.44901 10.227 4.36701 12.183L11.931 19.894L19.494 12.183C21.413 10.227 21.413 7.091 19.494 5.173C18.756 4.435 17.944 4.066 16.985 4.066H16.948C15.583 4.066 13.997 4.878 12.632 6.28L12.595 6.317C12.41 6.501 12.115 6.612 11.857 6.612C11.599 6.612 11.341 6.502 11.119 6.28C9.86502 4.878 8.28001 4.066 6.87601 4.066Z" fill="#CE8503"/>
</svg>
