<svg width="17" height="8" viewBox="0 0 17 8" fill="none" xmlns="http://www.w3.org/2000/svg">
<path d="M14.9233 0.30938C15.1518 0.111182 15.4604 0 15.782 0C16.1036 0 16.4122 0.111182 16.6408 0.30938C16.7536 0.406706 16.8432 0.522717 16.9044 0.65066C16.9655 0.778603 16.997 0.915923 16.997 1.05463C16.997 1.19333 16.9655 1.33065 16.9044 1.4586C16.8432 1.58654 16.7536 1.70255 16.6408 1.79988L9.77802 7.69111C9.54898 7.88903 9.24017 8 8.91842 8C8.59668 8 8.28787 7.88903 8.05883 7.69111L1.19609 1.79988C1.08326 1.70255 0.993658 1.58654 0.932499 1.4586C0.871339 1.33065 0.839844 1.19333 0.839844 1.05463C0.839844 0.915923 0.871339 0.778603 0.932499 0.65066C0.993658 0.522717 1.08326 0.406706 1.19609 0.30938C1.42461 0.111182 1.73321 0 2.05481 0C2.3764 0 2.685 0.111182 2.91353 0.30938L8.92106 5.1408L14.9233 0.30938Z" fill="#FBA409"/>
</svg>
