<svg width="15" height="15" viewBox="0 0 15 15" fill="none" xmlns="http://www.w3.org/2000/svg">
<path d="M12.4956 14.4175C5.96438 14.4175 0.625 9.07811 0.625 2.52374C0.627303 2.02606 0.826067 1.54944 1.17804 1.19759C1.53001 0.845732 2.0067 0.647126 2.50437 0.644989H4.84188C5.59812 0.644989 6.19375 1.24061 6.19375 1.99686C6.19375 2.98249 6.4 3.92186 6.8125 4.81561C6.92687 5.06749 6.88125 5.38874 6.675 5.59499L5.66688 6.57999C5.57496 6.67968 5.52562 6.81132 5.52938 6.94686C5.52938 7.08436 5.575 7.19874 5.66688 7.31374L7.70625 9.35311C7.88937 9.53624 8.23313 9.53624 8.41687 9.35311L9.40188 8.36749C9.60812 8.16124 9.90625 8.11561 10.1813 8.22999C11.075 8.64249 12.0375 8.84874 13.0456 8.84874C13.7794 8.84874 14.3981 9.44499 14.3981 10.2012V12.5387C14.375 13.57 13.55 14.4175 12.4956 14.4175ZM2.50437 2.01999C2.37107 2.02113 2.24353 2.07455 2.14921 2.16876C2.05488 2.26296 2.00131 2.39043 2 2.52374C2 8.32186 6.72062 13.0425 12.4956 13.0425C12.7706 13.0425 13 12.8137 13 12.5387V10.2237C11.9688 10.2237 10.9831 10.0406 10.0437 9.65124L9.40188 10.2925C9.05813 10.6362 8.57687 10.8425 8.07312 10.8425C7.56875 10.8425 7.11062 10.6362 6.74375 10.2925L4.70437 8.25311C4.36063 7.90936 4.15437 7.42811 4.15437 6.92374C4.15437 6.41999 4.36063 5.96124 4.70437 5.59499L5.36875 4.92999C5.00371 3.99525 4.81716 3.00035 4.81875 1.99686H2.50437V2.01999Z" fill="#FCB639"/>
</svg>
