<svg width="15" height="13" viewBox="0 0 15 13" fill="none" xmlns="http://www.w3.org/2000/svg">
<path d="M14.3 1.78957C14.2998 1.5038 14.1889 1.22922 13.9905 1.02353C13.7921 0.817849 13.5217 0.69708 13.2361 0.68661V0.68457H1.86412V0.68763C1.8444 0.68661 1.82485 0.68457 1.80496 0.68457C1.57644 0.684719 1.35358 0.755718 1.16708 0.887788C0.980582 1.01986 0.839619 1.2065 0.763605 1.42202C0.68759 1.63753 0.680265 1.87131 0.742637 2.09116C0.805009 2.31101 0.93401 2.50611 1.11187 2.6496L6.23567 7.77323L6.2355 10.9351V10.9612H6.23805C6.24235 11.0587 6.27131 11.1536 6.32225 11.2368C6.37318 11.3201 6.44441 11.389 6.52926 11.4372L6.52773 11.44L7.86597 12.2126C7.87719 12.2204 7.8896 12.226 7.90133 12.233L7.90609 12.2357V12.2356C7.99143 12.2849 8.08935 12.3153 8.19509 12.3153C8.27136 12.3153 8.34689 12.3003 8.41735 12.2711C8.48782 12.242 8.55184 12.1992 8.60577 12.1453C8.6597 12.0913 8.70248 12.0273 8.73165 11.9568C8.76083 11.8864 8.77584 11.8108 8.77581 11.7346C8.77581 11.7193 8.77241 11.7048 8.77139 11.6899H8.77581V7.77799L13.9467 2.60727L13.9416 2.60217C14.0545 2.49906 14.1447 2.37355 14.2064 2.23363C14.2681 2.09372 14.3 1.94248 14.3 1.78957ZM4.48229 2.89457H4.48467L4.48484 2.89712L4.48229 2.89457Z" fill="#CE8503"/>
</svg>
