<svg width="26" height="26" viewBox="0 0 26 26" fill="none" xmlns="http://www.w3.org/2000/svg">
<g clip-path="url(#clip0)">
<path d="M18.2275 6.22778L12.7276 11.7277L7.22766 6.22778C7.09505 6.09517 6.9152 6.02067 6.72766 6.02067C6.54013 6.02067 6.36027 6.09517 6.22767 6.22778C6.09506 6.36038 6.02056 6.54024 6.02056 6.72777C6.02056 6.91531 6.09506 7.09516 6.22767 7.22776L11.7276 12.7277L6.22767 18.2276C6.09506 18.3602 6.02056 18.5401 6.02056 18.7276C6.02056 18.9152 6.09506 19.095 6.22767 19.2276C6.29018 19.2951 6.36643 19.3483 6.45127 19.3838C6.53611 19.4193 6.62757 19.4362 6.71949 19.4334C6.81141 19.4305 6.90165 19.408 6.98414 19.3673C7.06662 19.3267 7.13943 19.2688 7.19766 19.1976L12.6976 13.6977L18.2275 19.2276C18.3601 19.3602 18.54 19.4347 18.7275 19.4347C18.9151 19.4347 19.0949 19.3602 19.2275 19.2276C19.3601 19.095 19.4346 18.9152 19.4346 18.7276C19.4346 18.5401 19.3601 18.3602 19.2275 18.2276L13.7276 12.7277L19.2275 7.22776C19.3601 7.09516 19.4346 6.9153 19.4346 6.72777C19.4346 6.54024 19.3601 6.36038 19.2275 6.22778C19.0949 6.09517 18.9151 6.02067 18.7275 6.02067C18.54 6.02067 18.3601 6.09517 18.2275 6.22778Z" fill="#CE8503"/>
</g>
<defs>
<clipPath id="clip0">
<rect width="25.4555" height="25.4555" fill="white"/>
</clipPath>
</defs>
</svg>
