<svg width="17" height="8" viewBox="0 0 17 8" fill="none" xmlns="http://www.w3.org/2000/svg">
<path d="M14.1235 0.30938C14.352 0.111182 14.6606 0 14.9822 0C15.3038 0 15.6124 0.111182 15.841 0.30938C15.9538 0.406706 16.0434 0.522717 16.1045 0.65066C16.1657 0.778603 16.1972 0.915923 16.1972 1.05463C16.1972 1.19333 16.1657 1.33065 16.1045 1.4586C16.0434 1.58654 15.9538 1.70255 15.841 1.79988L8.97822 7.69111C8.74917 7.88903 8.44037 8 8.11862 8C7.79687 8 7.48807 7.88903 7.25902 7.69111L0.396281 1.79988C0.283454 1.70255 0.193853 1.58654 0.132694 1.4586C0.0715348 1.33065 0.0400391 1.19333 0.0400391 1.05463C0.0400391 0.915923 0.0715348 0.778603 0.132694 0.65066C0.193853 0.522717 0.283454 0.406706 0.396281 0.30938C0.624807 0.111182 0.933406 0 1.255 0C1.5766 0 1.8852 0.111182 2.11372 0.30938L8.12125 5.1408L14.1235 0.30938Z" fill="#ADB5BD"/>
</svg>
