<svg width="24" height="24" viewBox="0 0 24 24" fill="none" xmlns="http://www.w3.org/2000/svg">
<path d="M11.991 2C6.496 2 2 6.496 2 11.991C2 17.485 6.496 21.981 11.991 21.981C17.485 21.981 21.981 17.485 21.981 11.991C21.981 6.496 17.535 2 11.991 2ZM16.586 16.436C16.387 16.735 16.037 16.836 15.736 16.637C13.387 15.187 10.44 14.887 6.943 15.686C6.595 15.788 6.295 15.538 6.195 15.237C6.094 14.887 6.344 14.589 6.645 14.488C10.44 13.638 13.738 13.989 16.335 15.588C16.685 15.737 16.735 16.136 16.586 16.436ZM17.786 13.689C17.535 14.038 17.086 14.188 16.735 13.938C14.038 12.292 9.943 11.79 6.796 12.79C6.398 12.891 5.946 12.69 5.847 12.292C5.746 11.89 5.947 11.44 6.346 11.34C9.992 10.242 14.489 10.792 17.585 12.691C17.885 12.84 18.035 13.339 17.786 13.689ZM17.885 10.89C14.688 8.993 9.343 8.793 6.295 9.744C6.06321 9.81079 5.81459 9.78571 5.6008 9.67398C5.38701 9.56224 5.22449 9.37244 5.147 9.144C5.07902 8.91193 5.1034 8.66256 5.21504 8.44804C5.32667 8.23353 5.51692 8.07048 5.746 7.993C9.293 6.944 15.138 7.143 18.835 9.344C19.284 9.593 19.434 10.193 19.184 10.642C18.934 10.992 18.335 11.14 17.885 10.89Z" fill="black"/>
</svg>
