<svg width="15" height="18" viewBox="0 0 15 18" fill="none" xmlns="http://www.w3.org/2000/svg">
<path d="M7.5 8.07691C8.29873 8.07691 9.07953 7.84006 9.74365 7.39631C10.4078 6.95256 10.9254 6.32184 11.231 5.5839C11.5367 4.84597 11.6167 4.03398 11.4609 3.25059C11.305 2.46721 10.9204 1.74763 10.3556 1.18284C9.79083 0.61805 9.07125 0.233424 8.28787 0.0775996C7.50448 -0.0782251 6.69248 0.00174979 5.95455 0.307411C5.21662 0.613072 4.5859 1.13069 4.14215 1.79481C3.6984 2.45893 3.46155 3.23972 3.46155 4.03846C3.46155 5.10952 3.88703 6.13672 4.64438 6.89407C5.40174 7.65143 6.42894 8.07691 7.5 8.07691ZM7.5 1.15385C8.07052 1.15385 8.62823 1.32302 9.10261 1.63999C9.57698 1.95695 9.9467 2.40747 10.165 2.93456C10.3834 3.46166 10.4405 4.04166 10.3292 4.60121C10.2179 5.16077 9.94315 5.67476 9.53973 6.07818C9.13631 6.4816 8.62232 6.75633 8.06276 6.86764C7.5032 6.97894 6.9232 6.92182 6.39611 6.70349C5.86902 6.48516 5.4185 6.11543 5.10154 5.64106C4.78457 5.16669 4.61539 4.60898 4.61539 4.03846C4.61539 3.27341 4.91931 2.5397 5.46027 1.99873C6.00124 1.45776 6.73496 1.15385 7.5 1.15385Z" fill="#CE8503"/>
<path d="M14.6942 12.3288C13.769 11.3509 12.6541 10.572 11.4176 10.0397C10.1811 9.50734 8.84907 9.23279 7.50287 9.23279C6.15667 9.23279 4.82462 9.50734 3.58814 10.0397C2.35167 10.572 1.23674 11.3509 0.311539 12.3288C0.110951 12.543 -0.000453987 12.8257 1.39056e-06 13.1192V16.1538C1.39056e-06 16.4598 0.121567 16.7533 0.337954 16.9697C0.554342 17.186 0.847827 17.3076 1.15385 17.3076H13.8461C14.1521 17.3076 14.4456 17.186 14.662 16.9697C14.8784 16.7533 15 16.4598 15 16.1538V13.1192C15.002 12.8264 14.8927 12.5439 14.6942 12.3288ZM13.8461 16.1538H1.15385V13.1134C1.97148 12.2524 2.95574 11.5669 4.04674 11.0984C5.13774 10.6299 6.31265 10.3883 7.49999 10.3883C8.68732 10.3883 9.86224 10.6299 10.9532 11.0984C12.0442 11.5669 13.0285 12.2524 13.8461 13.1134V16.1538Z" fill="#CE8503"/>
</svg>
