<svg width="24" height="24" viewBox="0 0 24 24" fill="none" xmlns="http://www.w3.org/2000/svg">
<path fill-rule="evenodd" clip-rule="evenodd" d="M2.594 5.208C2.87305 4.83296 3.23595 4.52839 3.65372 4.31863C4.07149 4.10888 4.53253 3.99976 5 4H19C19.3941 3.99961 19.7844 4.07693 20.1485 4.22756C20.5127 4.37818 20.8435 4.59915 21.1222 4.8778C21.4009 5.15646 21.6218 5.48733 21.7724 5.85148C21.9231 6.21564 22.0004 6.60592 22 7V16C22 16.7957 21.6839 17.5587 21.1213 18.1213C20.5587 18.6839 19.7956 19 19 19H5C4.20435 19 3.44129 18.6839 2.87868 18.1213C2.31607 17.5587 2 16.7957 2 16V7C2 6.33 2.221 5.708 2.594 5.208ZM4.95 6L11.27 12.755C11.3636 12.8551 11.4767 12.9349 11.6023 12.9894C11.728 13.0439 11.8635 13.0721 12.0005 13.0721C12.1375 13.0721 12.273 13.0439 12.3987 12.9894C12.5243 12.9349 12.6374 12.8551 12.731 12.755L19.052 6H5L4.949 6.001L4.95 6ZM20 7.915L14.19 14.123C13.9094 14.4227 13.5702 14.6617 13.1935 14.825C12.8168 14.9884 12.4106 15.0727 12 15.0727C11.5894 15.0727 11.1832 14.9884 10.8065 14.825C10.4298 14.6617 10.0906 14.4227 9.81 14.123L4 7.915V16C4 16.2652 4.10536 16.5196 4.29289 16.7071C4.48043 16.8946 4.73478 17 5 17H19C19.2652 17 19.5196 16.8946 19.7071 16.7071C19.8946 16.5196 20 16.2652 20 16V7.915Z" fill="#7F8993"/>
</svg>
