<svg width="17" height="8" viewBox="0 0 17 8" fill="none" xmlns="http://www.w3.org/2000/svg">
<path d="M2.91359 7.69062C2.68507 7.88882 2.37647 8 2.05487 8C1.73328 8 1.42468 7.88882 1.19615 7.69062C1.08332 7.59329 0.993721 7.47728 0.932562 7.34934C0.871403 7.2214 0.839909 7.08408 0.839909 6.94537C0.839909 6.80667 0.871403 6.66935 0.932562 6.5414C0.993721 6.41346 1.08332 6.29745 1.19615 6.20012L8.05889 0.308892C8.28794 0.110969 8.59674 0 8.91849 0C9.24023 0 9.54904 0.110969 9.77809 0.308892L16.6408 6.20012C16.7537 6.29745 16.8433 6.41346 16.9044 6.5414C16.9656 6.66935 16.9971 6.80667 16.9971 6.94537C16.9971 7.08408 16.9656 7.2214 16.9044 7.34934C16.8433 7.47728 16.7537 7.59329 16.6408 7.69062C16.4123 7.88882 16.1037 8 15.7821 8C15.4605 8 15.1519 7.88882 14.9234 7.69062L8.91585 2.8592L2.91359 7.69062Z" fill="#FBA409"/>
</svg>
