<svg width="12" height="6" viewBox="0 0 12 6" fill="none" xmlns="http://www.w3.org/2000/svg">
<path d="M9.90244 0.232035C10.0631 0.0833867 10.2801 0 10.5062 0C10.7323 0 10.9493 0.0833867 11.11 0.232035C11.1893 0.305029 11.2523 0.392037 11.2953 0.487995C11.3384 0.583952 11.3605 0.686942 11.3605 0.790971C11.3605 0.895001 11.3384 0.99799 11.2953 1.09395C11.2523 1.18991 11.1893 1.27691 11.11 1.34991L6.28465 5.76833C6.12361 5.91677 5.90648 6 5.68025 6C5.45402 6 5.23689 5.91677 5.07584 5.76833L0.250483 1.34991C0.171151 1.27691 0.10815 1.18991 0.0651479 1.09395C0.0221454 0.99799 0 0.895001 0 0.790971C0 0.686942 0.0221454 0.583952 0.0651479 0.487995C0.10815 0.392037 0.171151 0.305029 0.250483 0.232035C0.411165 0.0833867 0.628148 0 0.85427 0C1.08039 0 1.29738 0.0833867 1.45806 0.232035L5.6821 3.8556L9.90244 0.232035Z" fill="#394047"/>
</svg>
