<svg width="24" height="24" viewBox="0 0 24 24" fill="none" xmlns="http://www.w3.org/2000/svg">
<path d="M16.4997 21.5607C16.2484 21.5625 16.0056 21.4697 15.8197 21.3007L6.8197 13.0007C6.72276 12.9109 6.64458 12.8028 6.58965 12.6827C6.53473 12.5625 6.50415 12.4327 6.4997 12.3007C6.4901 12.0391 6.58345 11.7842 6.7597 11.5907L14.8997 2.76066C14.9886 2.6629 15.0961 2.58374 15.2158 2.52775C15.3355 2.47176 15.4651 2.44006 15.5972 2.43449C15.7292 2.42891 15.8611 2.44956 15.9851 2.49524C16.1091 2.54093 16.2228 2.61075 16.3197 2.70066C16.5127 2.88133 16.6264 3.1311 16.6357 3.39534C16.6451 3.65957 16.5495 3.91677 16.3697 4.11066L8.9097 12.2007L17.1797 19.8307C17.3741 20.01 17.4896 20.259 17.5009 20.5233C17.5121 20.7875 17.4182 21.0455 17.2397 21.2407C17.1453 21.3424 17.0308 21.4234 16.9034 21.4785C16.776 21.5336 16.6385 21.5616 16.4997 21.5607Z" fill="#394047"/>
</svg>
