<svg width="13" height="15" viewBox="0 0 13 15" fill="none" xmlns="http://www.w3.org/2000/svg">
<path d="M6.8125 14.375C6.55625 14.375 6.3 14.2375 6.18375 14.0069C6.02125 13.6619 6.1375 13.2481 6.48625 13.0875C11.5162 10.5581 11.3531 6.99375 11.3531 6.97125V6.925C11.3531 4.2125 9.32687 2.00437 6.8125 2.00437C4.2975 2.00437 2.27188 4.21187 2.27188 6.925C2.27188 7.31625 1.96938 7.615 1.57375 7.615C1.1775 7.615 0.875 7.31625 0.875 6.925C0.875 3.45312 3.52938 0.625 6.8125 0.625C10.0725 0.625 12.75 3.43 12.75 6.90188C12.7731 7.29313 12.7969 11.4781 7.115 14.3062C7.02187 14.3519 6.92875 14.375 6.8125 14.375Z" fill="#FBA409"/>
<path d="M6.81251 14.375C6.69626 14.375 6.60314 14.3519 6.51001 14.3062C0.828765 11.4775 0.85189 7.29313 0.875015 6.90188C0.875015 3.43063 3.55251 0.625 6.81251 0.625C10.0956 0.625 12.75 3.45312 12.75 6.925C12.75 7.31625 12.4475 7.615 12.0513 7.615C11.6556 7.615 11.3531 7.31625 11.3531 6.925C11.3531 4.2125 9.32689 2.00437 6.81251 2.00437C4.29751 2.00437 2.27189 4.21187 2.27189 6.925V6.97125C2.27189 7.10875 2.15564 10.6044 7.13876 13.0875C7.48751 13.2481 7.62751 13.685 7.44126 14.0069C7.32501 14.2369 7.06876 14.375 6.81251 14.375Z" fill="#FBA409"/>
<path d="M6.8125 9.0175C5.29875 9.0175 4.065 7.79875 4.065 6.30437C4.065 4.81 5.29875 3.59125 6.8125 3.59125C8.32563 3.59125 9.56 4.81 9.56 6.30437C9.56 7.79875 8.32563 9.0175 6.8125 9.0175ZM6.8125 4.97062C6.0675 4.97062 5.4625 5.56875 5.4625 6.30437C5.4625 7.04 6.0675 7.63812 6.8125 7.63812C7.5575 7.63812 8.1625 7.04 8.1625 6.30437C8.1625 5.56875 7.5575 4.97062 6.8125 4.97062Z" fill="#FBA409"/>
</svg>
