<svg width="527" height="269" viewBox="0 0 527 269" fill="none" xmlns="http://www.w3.org/2000/svg">
<path fill-rule="evenodd" clip-rule="evenodd" d="M526.645 3.89907C526.763 4.25462 526.838 4.62256 526.871 4.99555C526.88 5.0904 526.907 5.18108 526.933 5.27218C526.966 5.38756 527 5.50364 527 5.62979V263.625C527 265.051 526.434 266.418 525.426 267.426C524.418 268.434 523.051 269 521.625 269H134.632C133.207 269 131.839 268.434 130.831 267.426C129.823 266.418 129.257 265.051 129.257 263.625V5.62979C129.257 5.4961 129.295 5.36996 129.332 5.24466C129.358 5.15837 129.384 5.07248 129.397 4.9848C129.431 4.62 129.503 4.25973 129.612 3.90982C129.742 3.56042 129.908 3.22539 130.106 2.91008C130.151 2.83446 130.184 2.75332 130.218 2.67123L130.218 2.67114L130.218 2.67103L130.218 2.67085C130.266 2.55468 130.315 2.43661 130.397 2.3296C130.434 2.27962 130.483 2.24416 130.531 2.20844L130.531 2.2084C130.566 2.18268 130.602 2.15684 130.633 2.12535C130.894 1.83786 131.19 1.58497 131.515 1.37286C131.559 1.34005 131.603 1.30688 131.647 1.27374C131.848 1.12235 132.049 0.97152 132.278 0.856869C132.592 0.715757 132.92 0.60767 133.256 0.534368L133.325 0.515441C133.655 0.42531 133.968 0.339483 134.31 0.319387C134.356 0.314714 134.401 0.301912 134.446 0.288932L134.446 0.288926C134.505 0.272053 134.565 0.254883 134.632 0.254883H521.625C521.679 0.254883 521.73 0.268322 521.781 0.281759L521.781 0.281799C521.832 0.295218 521.883 0.308623 521.937 0.308623C522.317 0.341249 522.692 0.416983 523.055 0.534368L523.115 0.549398L523.115 0.549433C523.399 0.619935 523.697 0.694184 523.958 0.824617C524.224 0.952593 524.462 1.13466 524.707 1.32129L524.775 1.37286C525.082 1.58718 525.366 1.8321 525.624 2.10386C525.658 2.14954 525.702 2.18308 525.746 2.21738V2.21744L525.746 2.21765L525.747 2.21798L525.747 2.21813C525.786 2.24816 525.826 2.27885 525.861 2.31884C525.93 2.41762 525.975 2.52582 526.02 2.63495L526.02 2.63548L526.02 2.63593L526.02 2.63631C526.058 2.72864 526.097 2.82161 526.151 2.91008C526.347 3.22283 526.513 3.55408 526.645 3.89907ZM328.129 149.312L505.963 11.0047H150.295L328.129 149.312ZM140.007 16.6161V258.25H516.25V16.6161L331.429 160.362C330.487 161.1 329.325 161.501 328.129 161.501C326.932 161.501 325.77 161.1 324.828 160.362L140.007 16.6161ZM27.1341 43.2545H70.1333C71.5588 43.2545 72.9259 43.8207 73.9339 44.8287C74.9419 45.8367 75.5082 47.2039 75.5082 48.6294C75.5082 50.0549 74.9419 51.422 73.9339 52.43C72.9259 53.438 71.5588 54.0043 70.1333 54.0043H27.1341C25.7086 54.0043 24.3414 53.438 23.3334 52.43C22.3254 51.422 21.7592 50.0549 21.7592 48.6294C21.7592 47.2039 22.3254 45.8367 23.3334 44.8287C24.3414 43.8207 25.7086 43.2545 27.1341 43.2545ZM70.1333 129.252H5.63445C4.20894 129.252 2.84182 129.819 1.83383 130.827C0.825836 131.835 0.259552 133.202 0.259552 134.627C0.259552 136.053 0.825836 137.42 1.83383 138.428C2.84182 139.436 4.20894 140.002 5.63445 140.002H70.1333C71.5588 140.002 72.9259 139.436 73.9339 138.428C74.9419 137.42 75.5082 136.053 75.5082 134.627C75.5082 133.202 74.9419 131.835 73.9339 130.827C72.9259 129.819 71.5588 129.252 70.1333 129.252ZM48.6337 215.251H70.1333C71.5588 215.251 72.926 215.817 73.934 216.825C74.9419 217.833 75.5082 219.2 75.5082 220.626C75.5082 222.051 74.9419 223.418 73.934 224.426C72.926 225.434 71.5588 226.001 70.1333 226.001H48.6337C47.2082 226.001 45.8411 225.434 44.8331 224.426C43.8251 223.418 43.2588 222.051 43.2588 220.626C43.2588 219.2 43.8251 217.833 44.8331 216.825C45.8411 215.817 47.2082 215.251 48.6337 215.251Z" fill="#262D31" fill-opacity="0.3"/>
</svg>
