<svg width="38" height="48" viewBox="0 0 38 48" fill="none" xmlns="http://www.w3.org/2000/svg">
<path fill-rule="evenodd" clip-rule="evenodd" d="M6.49249 8.83784C5.78843 8.83784 5.11321 9.11752 4.61537 9.61537C4.11752 10.1132 3.83784 10.7884 3.83784 11.4925V37.8626L9.41629 32.2842C9.58862 32.1118 9.82235 32.015 10.0661 32.015H31.5075C32.2116 32.015 32.8868 31.7353 33.3846 31.2375C33.8825 30.7396 34.1622 30.0644 34.1622 29.3604V11.4925C34.1622 10.7884 33.8825 10.1132 33.3846 9.61537C32.8868 9.11752 32.2116 8.83784 31.5075 8.83784H6.49249ZM3.31582 8.31582C4.15833 7.47331 5.30101 7 6.49249 7H31.5075C32.699 7 33.8417 7.47331 34.6842 8.31582C35.5267 9.15833 36 10.301 36 11.4925V29.3604C36 30.5518 35.5267 31.6945 34.6842 32.537C33.8417 33.3795 32.699 33.8528 31.5075 33.8528H10.4467L3.56869 40.7309C3.30588 40.9937 2.91064 41.0723 2.56726 40.93C2.22389 40.7878 2 40.4527 2 40.0811V11.4925C2 10.301 2.47331 9.15833 3.31582 8.31582Z" fill="#FBA409"/>
</svg>
