<svg width="695" height="401" viewBox="0 0 695 401" fill="none" xmlns="http://www.w3.org/2000/svg">
<g filter="url(#filter0_d)">
<path d="M0 228.379L121.91 0H240.554L71.2955 302.507H0V228.379ZM173.613 302.507H97.419L144.224 219.113H174.157L214.975 144.44H280.284V219.113H326V302.507H280.284V375H173.613V302.507Z" fill="url(#paint0_linear)"/>
<path d="M174.613 302.507V301.507H173.613H99.127L144.809 220.113H174.157H174.75L175.034 219.593L215.568 145.44H279.284V219.113V220.113H280.284H325V301.507H280.284H279.284V302.507V374H174.613V302.507ZM1 301.507V228.63L122.51 1H238.849L70.7091 301.507H1Z" stroke="white" stroke-width="2"/>
</g>
<g filter="url(#filter1_d)">
<path d="M539.629 192.5C539.629 160.946 539.447 140.273 539.083 130.48C538.355 115.247 536.899 104.548 534.716 98.3821C532.168 92.2164 528.164 88.4081 522.705 86.9574C517.61 85.1439 508.875 84.2372 496.5 84.2372C491.041 84.2372 484.307 84.5999 476.3 85.3253V1.54403C478.484 1.18134 481.76 1 486.127 1H496.5C534.716 1 564.196 4.26421 584.942 10.7926C605.687 16.9583 620.974 27.295 630.8 41.8025C639.899 55.222 645.541 72.8125 647.724 94.5738C649.908 116.335 651 148.977 651 192.5C651 231.67 650.09 261.411 648.27 281.722C646.814 302.032 642.811 319.079 636.26 332.861C628.981 348.094 617.698 359.7 602.412 367.679C587.489 375.295 566.562 380.192 539.629 382.368V192.5ZM496.5 384C458.648 384 429.168 380.917 408.058 374.751C387.313 368.223 372.027 357.524 362.2 342.653C353.101 329.234 347.459 311.825 345.276 290.426C343.092 269.027 342 236.385 342 192.5C342 153.33 342.728 123.589 344.184 103.278C346.004 82.9678 350.189 65.9214 356.74 52.1392C364.019 36.9062 375.12 25.4815 390.042 17.8651C405.329 9.8859 426.438 4.80824 453.371 2.63211V192.5C453.371 223.691 453.553 244.183 453.917 253.976C454.645 268.483 456.283 279.364 458.83 286.618C461.378 292.784 465.2 296.773 470.295 298.587C475.39 300.037 484.125 300.763 496.5 300.763H507.419C509.966 300.763 513.06 300.4 516.7 299.675V383.456C514.516 383.819 511.24 384 506.873 384H496.5Z" fill="url(#paint1_linear)"/>
<path d="M540.082 130.443L540.082 130.432C539.354 115.197 537.896 104.366 535.658 98.0482L535.65 98.024L535.64 98.0002C533.003 91.6196 528.798 87.5554 523.002 86.0015C517.725 84.1345 508.849 83.2372 496.5 83.2372C491.251 83.2372 484.849 83.5698 477.3 84.2322V2.40802C479.381 2.13932 482.315 2 486.127 2H496.5C534.678 2 564.04 5.26338 584.642 11.7465L584.649 11.7489L584.657 11.7512C605.235 17.867 620.303 28.0889 629.972 42.3634L629.973 42.3637C638.952 55.6062 644.557 73.0224 646.729 94.6737C648.908 116.384 650 148.985 650 192.5C650 231.662 649.09 261.367 647.274 281.632L647.274 281.641L647.273 281.65C645.823 301.876 641.84 318.792 635.357 332.431C628.173 347.463 617.049 358.91 601.952 366.791C587.395 374.22 566.976 379.068 540.629 381.282V192.5C540.629 160.95 540.447 140.258 540.082 130.443ZM390.505 18.7516C405.421 10.9656 426.022 5.93623 452.371 3.718V192.5C452.371 223.687 452.553 244.198 452.918 254.013L452.918 254.026C453.647 268.56 455.291 279.557 457.887 286.949L457.896 286.975L457.906 287C460.535 293.361 464.537 297.599 469.96 299.529L469.99 299.54L470.021 299.548C475.263 301.041 484.123 301.763 496.5 301.763H507.419C509.764 301.763 512.528 301.466 515.7 300.884V382.592C513.619 382.861 510.685 383 506.873 383H496.5C458.691 383 429.324 379.919 408.349 373.794C387.777 367.319 372.707 356.739 363.034 342.102L363.027 342.092C354.047 328.847 348.443 311.61 346.27 290.325C344.092 268.979 343 236.379 343 192.5C343 153.342 343.728 123.633 345.181 103.359C346.993 83.1332 351.158 66.2131 357.643 52.5693C364.828 37.5334 375.772 26.2714 390.497 18.7558L390.497 18.7558L390.505 18.7516Z" stroke="white" stroke-width="2"/>
</g>
<path d="M586.8 81.4C586.667 79.7334 586.5 78.6334 586.3 78.1C586.033 77.4334 585.633 77.0334 585.1 76.9C584.567 76.7667 583.667 76.7 582.4 76.7H581.8V68.4H582.4C586.267 68.4 589.233 68.7334 591.3 69.4C593.367 70 594.9 71.0334 595.9 72.5C596.833 73.8334 597.4 75.6 597.6 77.8C597.8 79.9334 597.9 83.2334 597.9 87.7C597.9 91.7 597.8 94.7 597.6 96.7C597.467 98.7 597.1 100.367 596.5 101.7C595.767 103.233 594.633 104.4 593.1 105.2C591.633 106 589.533 106.5 586.8 106.7V81.4ZM582.4 106.9C578.6 106.9 575.667 106.6 573.6 106C571.533 105.333 570 104.233 569 102.7C568.067 101.367 567.5 99.6334 567.3 97.5C567.1 95.3667 567 92.1 567 87.7C567 83.9 567.067 80.9667 567.2 78.9C567.4 76.7667 567.833 75 568.5 73.6C569.233 72.0667 570.333 70.9 571.8 70.1C573.267 69.3 575.367 68.8 578.1 68.6V87.7C578.1 90.8334 578.133 92.9 578.2 93.9C578.2 95.4334 578.333 96.5 578.6 97.1C578.8 97.7667 579.167 98.2 579.7 98.4C580.3 98.5334 581.2 98.6 582.4 98.6H583.1V106.9H582.4ZM623.8 69.2H635.5L590.6 138H578.9L623.8 69.2ZM636.3 113.3C636.167 111.633 636 110.533 635.8 110C635.533 109.333 635.133 108.933 634.6 108.8C634.067 108.667 633.167 108.6 631.9 108.6H631.3V100.3H631.9C635.767 100.3 638.733 100.633 640.8 101.3C642.867 101.9 644.4 102.933 645.4 104.4C646.333 105.733 646.9 107.5 647.1 109.7C647.3 111.833 647.4 115.133 647.4 119.6C647.4 123.6 647.3 126.6 647.1 128.6C646.967 130.6 646.6 132.267 646 133.6C645.267 135.133 644.133 136.3 642.6 137.1C641.133 137.9 639.033 138.4 636.3 138.6V113.3ZM631.9 138.8C628.1 138.8 625.167 138.5 623.1 137.9C621.033 137.233 619.5 136.133 618.5 134.6C617.567 133.267 617 131.533 616.8 129.4C616.6 127.267 616.5 124 616.5 119.6C616.5 115.8 616.567 112.867 616.7 110.8C616.9 108.667 617.333 106.9 618 105.5C618.733 103.967 619.833 102.8 621.3 102C622.767 101.2 624.867 100.7 627.6 100.5V119.6C627.6 122.733 627.633 124.8 627.7 125.8C627.7 127.333 627.833 128.4 628.1 129C628.3 129.667 628.667 130.1 629.2 130.3C629.8 130.433 630.7 130.5 631.9 130.5H632.6V138.8H631.9Z" fill="white"/>
<path d="M595.8 195.616C595.8 192.352 595.768 190.176 595.704 189.088C595.64 187.552 595.448 186.4 595.128 185.632C594.808 184.8 594.296 184.288 593.592 184.096C592.824 183.904 591.768 183.808 590.424 183.808H589.08V170.272H590.424C595.992 170.272 600.344 170.72 603.48 171.616C606.616 172.448 608.952 173.856 610.488 175.84C611.896 177.632 612.792 180.032 613.176 183.04C613.624 185.984 613.848 190.176 613.848 195.616C613.848 200.672 613.688 204.608 613.368 207.424C613.112 210.176 612.44 212.448 611.352 214.24C610.136 216.224 608.312 217.728 605.88 218.752C603.448 219.712 600.088 220.32 595.8 220.576V195.616ZM590.424 220.768C584.856 220.768 580.504 220.352 577.368 219.52C574.232 218.688 571.896 217.28 570.36 215.296C568.952 213.504 568.024 211.136 567.576 208.192C567.192 205.248 567 201.056 567 195.616C567 190.624 567.16 186.72 567.48 183.904C567.8 181.088 568.504 178.752 569.592 176.896C570.744 174.848 572.536 173.344 574.968 172.384C577.4 171.36 580.76 170.72 585.048 170.464V195.616C585.048 198.88 585.08 201.024 585.144 202.048C585.208 203.584 585.4 204.736 585.72 205.504C586.04 206.272 586.584 206.752 587.352 206.944C587.992 207.136 589.016 207.232 590.424 207.232H591.768V220.768H590.424Z" fill="white"/>
<path d="M683.378 163.456C683.186 164.224 683.09 165.312 683.09 166.72V171.04H694.802V184.576H619.633V171.04H628.657V169.984C628.657 164.544 629.041 160.416 629.809 157.6C630.577 154.784 631.986 152.736 634.034 151.456C635.953 150.24 638.61 149.472 642.002 149.152C645.394 148.832 650.77 148.672 658.13 148.672V160.96C654.801 160.96 652.626 160.992 651.602 161.056C650.066 161.12 648.882 161.344 648.049 161.728C647.282 162.112 646.834 162.688 646.706 163.456C646.514 164.224 646.418 165.312 646.418 166.72V171.04H665.33V169.984C665.33 164.544 665.714 160.416 666.482 157.6C667.25 154.784 668.658 152.736 670.706 151.456C672.626 150.24 675.282 149.472 678.674 149.152C682.066 148.832 687.442 148.672 694.802 148.672V160.96C691.474 160.96 689.298 160.992 688.274 161.056C686.738 161.12 685.554 161.344 684.722 161.728C683.954 162.112 683.506 162.688 683.378 163.456ZM628.657 188.416H646.418V220H628.657V188.416ZM665.33 188.416H683.09V220H665.33V188.416Z" fill="white"/>
<defs>
<filter id="filter0_d" x="0" y="0" width="332" height="392" filterUnits="userSpaceOnUse" color-interpolation-filters="sRGB">
<feFlood flood-opacity="0" result="BackgroundImageFix"/>
<feColorMatrix in="SourceAlpha" type="matrix" values="0 0 0 0 0 0 0 0 0 0 0 0 0 0 0 0 0 0 127 0"/>
<feOffset dx="6" dy="17"/>
<feColorMatrix type="matrix" values="0 0 0 0 0.948594 0 0 0 0 0.0264062 0 0 0 0 0.0264066 0 0 0 0.25 0"/>
<feBlend mode="normal" in2="BackgroundImageFix" result="effect1_dropShadow"/>
<feBlend mode="normal" in="SourceGraphic" in2="effect1_dropShadow" result="shape"/>
</filter>
<filter id="filter1_d" x="342" y="1" width="315" height="400" filterUnits="userSpaceOnUse" color-interpolation-filters="sRGB">
<feFlood flood-opacity="0" result="BackgroundImageFix"/>
<feColorMatrix in="SourceAlpha" type="matrix" values="0 0 0 0 0 0 0 0 0 0 0 0 0 0 0 0 0 0 127 0"/>
<feOffset dx="6" dy="17"/>
<feColorMatrix type="matrix" values="0 0 0 0 0.948594 0 0 0 0 0.0264062 0 0 0 0 0.0264066 0 0 0 0.25 0"/>
<feBlend mode="normal" in2="BackgroundImageFix" result="effect1_dropShadow"/>
<feBlend mode="normal" in="SourceGraphic" in2="effect1_dropShadow" result="shape"/>
</filter>
<linearGradient id="paint0_linear" x1="216.336" y1="375" x2="216.336" y2="-36.519" gradientUnits="userSpaceOnUse">
<stop stop-color="#5CF9FF"/>
<stop offset="0.270833" stop-color="#6530FC" stop-opacity="0.84"/>
<stop offset="0.520833" stop-color="#CD02EF"/>
<stop offset="1" stop-color="white" stop-opacity="0"/>
</linearGradient>
<linearGradient id="paint1_linear" x1="547.054" y1="384" x2="547.054" y2="-36.298" gradientUnits="userSpaceOnUse">
<stop stop-color="#5CF9FF"/>
<stop offset="0.270833" stop-color="#6530FC" stop-opacity="0.84"/>
<stop offset="0.520833" stop-color="#CD02EF"/>
<stop offset="1" stop-color="white" stop-opacity="0"/>
</linearGradient>
</defs>
</svg>
