<svg width="24" height="24" viewBox="0 0 24 24" fill="none" xmlns="http://www.w3.org/2000/svg">
<path d="M12.4316 22.2832H19.5394C20.2712 22.2832 20.8652 21.6892 20.8652 20.9574V3.71679V2.32581C20.8652 1.59399 20.2712 1 19.5394 1H12.4316H10.0682V1.4386C10.0732 1.48371 10.0757 1.53133 10.0757 1.57895V4.46867V5.21053C10.0757 6.2406 9.23859 7.07769 8.20851 7.07769H7.46666H4.57693C4.53934 7.07769 4.49924 7.07519 4.46164 7.07268H4.00049V20.9574C4.00049 21.6892 4.59447 22.2832 5.3263 22.2832H6.77994H12.4316ZM12.6997 17.7769H8.06566C7.71979 17.7769 7.43909 17.4962 7.43909 17.1504C7.43909 16.8045 7.71979 16.5238 8.06566 16.5238H12.7023C13.0481 16.5238 13.3288 16.8045 13.3288 17.1504C13.3288 17.4962 13.0456 17.7769 12.6997 17.7769ZM17.3363 14.579H8.06566C7.71979 14.579 7.43909 14.2982 7.43909 13.9524C7.43909 13.6065 7.71979 13.3258 8.06566 13.3258H17.3363C17.6822 13.3258 17.9629 13.6065 17.9629 13.9524C17.9629 14.2982 17.6822 14.579 17.3363 14.579ZM8.06566 9.92982H17.3363C17.6822 9.92982 17.9629 10.2105 17.9629 10.5564C17.9629 10.9023 17.6822 11.183 17.3363 11.183H8.06566C7.71979 11.183 7.43909 10.9023 7.43909 10.5564C7.43909 10.2105 7.71979 9.92982 8.06566 9.92982Z" fill="#FBA409"/>
<path d="M4.57685 6.32554H8.20844C8.21094 6.32554 8.21595 6.32554 8.21846 6.32554C8.82498 6.32053 9.31621 5.8293 9.32122 5.22278C9.32122 5.22028 9.32122 5.21527 9.32122 5.21276V1.57867C9.32122 1.24283 9.04553 1.01978 8.75984 1.01978C8.62199 1.01978 8.48415 1.0699 8.36886 1.18519L4.18086 5.37316C3.82999 5.72404 4.07811 6.32554 4.57685 6.32554Z" fill="#FBA409"/>
</svg>
