<svg width="38" height="48" viewBox="0 0 38 48" fill="none" xmlns="http://www.w3.org/2000/svg">
<path fill-rule="evenodd" clip-rule="evenodd" d="M3.43057 3.5237C4.35289 2.55395 5.61394 2 6.93919 2H23.0203C23.272 2 23.5127 2.10325 23.6861 2.28563L35.7469 14.9667C35.9094 15.1375 36 15.3643 36 15.6V40.9622C36 42.3125 35.4902 43.6162 34.5694 44.5844C33.6471 45.5542 32.3861 46.1081 31.0608 46.1081H6.93919C5.61394 46.1081 4.35289 45.5542 3.43057 44.5844C2.50975 43.6162 2 42.3125 2 40.9622V7.14595C2 5.79561 2.50975 4.49188 3.43057 3.5237ZM6.93919 3.83784C6.13195 3.83784 5.34786 4.17458 4.76228 4.79027C4.17521 5.40753 3.83784 6.25413 3.83784 7.14595V40.9622C3.83784 41.854 4.17521 42.7006 4.76228 43.3178C5.34786 43.9335 6.13195 44.2703 6.93919 44.2703H31.0608C31.868 44.2703 32.6521 43.9335 33.2377 43.3178C33.8248 42.7006 34.1622 41.854 34.1622 40.9622V16.5189H23.0203C22.5128 16.5189 22.1014 16.1075 22.1014 15.6V3.83784H6.93919ZM23.9392 5.21848L32.9389 14.6811H23.9392V5.21848ZM10.0405 17.7135C10.0405 17.206 10.452 16.7946 10.9595 16.7946H14.9797C15.4872 16.7946 15.8986 17.206 15.8986 17.7135C15.8986 18.221 15.4872 18.6324 14.9797 18.6324H10.9595C10.452 18.6324 10.0405 18.221 10.0405 17.7135ZM10.0405 26.1676C10.0405 25.6601 10.452 25.2486 10.9595 25.2486H27.0405C27.548 25.2486 27.9595 25.6601 27.9595 26.1676C27.9595 26.6751 27.548 27.0865 27.0405 27.0865H10.9595C10.452 27.0865 10.0405 26.6751 10.0405 26.1676ZM10.0405 34.6216C10.0405 34.1141 10.452 33.7027 10.9595 33.7027H27.0405C27.548 33.7027 27.9595 34.1141 27.9595 34.6216C27.9595 35.1291 27.548 35.5405 27.0405 35.5405H10.9595C10.452 35.5405 10.0405 35.1291 10.0405 34.6216Z" fill="#FBA409"/>
</svg>
