<svg width="38" height="48" viewBox="0 0 38 48" fill="none" xmlns="http://www.w3.org/2000/svg">
<path fill-rule="evenodd" clip-rule="evenodd" d="M16.7556 5.60082C17.4381 5.20721 18.2121 5 19 5C19.7879 5 20.5618 5.20719 21.2443 5.60077C21.245 5.60114 21.2456 5.60151 21.2462 5.60188L33.7538 12.749C34.3311 13.0824 34.8257 13.5392 35.2031 14.0852C35.2772 14.1499 35.3421 14.2277 35.3941 14.3176C35.4404 14.3976 35.4733 14.4817 35.4935 14.5673C35.8251 15.2051 35.9993 15.9142 36 16.635V30.9312C35.9992 31.719 35.7912 32.4928 35.397 33.1748C35.0027 33.8569 34.436 34.4233 33.7538 34.8172L33.7502 34.8193L21.2462 41.9644C21.2455 41.9648 21.2447 41.9653 21.2439 41.9657C20.7202 42.2677 20.1426 42.4599 19.5462 42.5329C19.3935 42.646 19.2046 42.7128 19 42.7128C18.7954 42.7128 18.6065 42.646 18.4538 42.5329C17.8574 42.4599 17.2797 42.2676 16.756 41.9657C16.7553 41.9652 16.7545 41.9648 16.7538 41.9644L4.24979 34.8193L4.24625 34.8172C3.56398 34.4233 2.99729 33.8569 2.60303 33.1748C2.20877 32.4928 2.00081 31.719 2 30.9312V16.635C2.00074 15.914 2.17499 15.2048 2.50677 14.5668C2.52694 14.4814 2.55978 14.3975 2.60599 14.3176C2.65793 14.2278 2.72273 14.1501 2.79673 14.0855C3.17413 13.5394 3.66879 13.0824 4.24625 12.749L4.24979 12.747L10.1996 9.34707C10.3633 9.10599 10.6252 8.96493 10.9 8.94687L16.7538 5.60188C16.7544 5.60153 16.755 5.60117 16.7556 5.60082ZM11.0508 10.9774L5.16516 14.3406C5.16462 14.341 5.16408 14.3413 5.16354 14.3416C5.05373 14.4051 4.949 14.4761 4.85002 14.5541L19.0001 22.7394L25.214 19.1448L11.0508 10.9774ZM27.0506 18.0824L12.8987 9.92149L17.6691 7.19553L17.6727 7.19349C18.0762 6.9605 18.534 6.83784 19 6.83784C19.466 6.83784 19.9238 6.9605 20.3273 7.19349L20.3309 7.19553L32.8348 14.3406C32.8354 14.341 32.8359 14.3413 32.8365 14.3416C32.9463 14.4051 33.051 14.4762 33.15 14.5541L27.0506 18.0824ZM34.1111 16.1214L19.9189 24.3311V40.5643C20.0597 40.5123 20.1964 40.4484 20.3273 40.3728L20.3309 40.3707L32.8348 33.2256C32.8353 33.2253 32.8358 33.225 32.8363 33.2247C33.2388 32.992 33.5731 32.6576 33.8058 32.2551C34.0388 31.8521 34.1617 31.3949 34.1622 30.9293V16.6369C34.162 16.4631 34.1447 16.2905 34.1111 16.1214ZM18.0811 40.5643V24.331L3.88893 16.1213C3.85529 16.2903 3.83804 16.4628 3.83784 16.6365V30.9298C3.83839 31.3951 3.96128 31.8522 4.19417 32.2551C4.42686 32.6577 4.76119 32.992 5.16369 33.2247C5.16418 33.225 5.16467 33.2253 5.16516 33.2256L17.6727 40.3727C17.8036 40.4483 17.9403 40.5123 18.0811 40.5643Z" fill="#FBA409"/>
</svg>
