<svg width="107" height="62" viewBox="0 0 107 62" fill="none" xmlns="http://www.w3.org/2000/svg">
<g clip-path="url(#clip0)">
<path d="M8.53064 6.62562L0 48.5972H26.2247C29.4142 48.5972 32.4265 46.1283 33.0847 43.0295L34.0213 38.6459H13.5933L15.4412 29.0474H32.6291L34.7301 19.1214H17.2891L19.3901 10.0015H39.2359L41.2103 0.0754395H16.6056C12.682 0.0754395 9.31535 2.82148 8.53064 6.62562Z" fill="black"/>
<path d="M48.855 29.3247H66.0429L68.1439 19.1467H50.7029L52.8039 10.0269H72.6497L74.6241 0.10083H50.0195C46.0959 0.10083 42.7292 2.84687 41.9445 6.65101L33.4138 48.5974H37.2868C41.6407 48.5974 45.3871 45.5742 46.2731 41.3418L48.855 29.3247Z" fill="black"/>
<path d="M66.7009 41.241C67.3338 40.6867 67.9413 40.1325 68.5741 39.6034C69.9917 38.369 71.4092 37.1597 72.8015 35.9253C73.4343 35.3962 74.0418 34.842 74.6747 34.2877C74.8012 34.1869 74.8519 34.1617 74.9531 34.2877C75.9657 35.4466 77.2313 36.3031 78.6489 36.8826C79.7121 37.3109 80.8005 37.6132 81.9649 37.714C82.775 37.7895 83.5597 37.8651 84.395 37.9407C84.3191 38.4697 84.2178 39.024 84.1166 39.6538C84.4457 39.5027 84.6988 39.3767 84.9773 39.2507C86.167 38.6209 87.3567 37.9911 88.5718 37.3864C88.6983 37.3109 88.9262 37.3109 89.0274 37.3864C90.3943 38.0918 91.7613 38.7973 93.1029 39.5027C93.2041 39.553 93.3054 39.5782 93.4319 39.6538C93.4319 39.5278 93.4319 39.4523 93.4319 39.3767C93.1535 37.8399 92.8751 36.3031 92.6219 34.7664C92.5966 34.6404 92.6725 34.4389 92.7738 34.3633C93.7357 33.4311 94.6976 32.499 95.6595 31.5417C95.8874 31.3149 96.0899 31.0882 96.343 30.8111C95.8114 30.7355 95.3051 30.6347 94.8242 30.5591C93.6598 30.3828 92.4953 30.2316 91.3309 30.0553C91.2044 30.0301 91.0778 29.9041 91.0272 29.7782C90.5715 28.8964 90.1412 28.0146 89.7109 27.1329C89.4577 26.6038 89.2046 26.0748 88.9261 25.5709C88.9008 25.5205 88.8502 25.4701 88.7743 25.3694C88.1921 26.5534 87.6098 27.6871 87.053 28.846C86.167 28.6193 85.281 28.4429 84.4204 28.191C83.2812 27.8635 82.1675 27.4856 81.079 27.0573C79.0286 26.2763 77.206 25.1174 75.7631 23.4295C74.7759 22.2706 74.0925 20.9606 73.7128 19.4742C73.3331 18.013 73.2824 16.5266 73.409 15.0402C73.6115 12.6469 74.2443 10.3543 75.4594 8.26332C76.4213 6.62578 77.6363 5.24016 79.1298 4.08128C81.2562 2.41855 83.6356 1.36044 86.2429 0.730613C89.1287 0.0252089 92.065 -0.176335 95.0267 0.0755949C97.3302 0.277139 99.5578 0.806192 101.659 1.78872C103.684 2.72086 105.431 4.0057 106.823 5.74402C106.873 5.79441 106.899 5.84479 106.949 5.92037C106.949 5.94557 106.975 5.94557 106.975 5.97076C104.367 8.26332 101.76 10.5307 99.1275 12.8233C98.5706 12.143 97.9631 11.5636 97.2543 11.1101C96.343 10.5307 95.3305 10.178 94.242 9.97645C92.9257 9.72452 91.6347 9.67413 90.3184 9.82529C88.3439 10.052 86.5973 10.7826 85.3823 12.4202C84.6482 13.4027 84.3697 14.486 84.6988 15.6953C84.9013 16.4259 85.3823 16.9549 86.0404 17.2824C86.6479 17.5847 87.3061 17.8367 87.9642 18.013C89.1793 18.3657 90.3943 18.668 91.6094 18.9704C93.3054 19.3986 95.0014 19.9025 96.5961 20.6583C98.5959 21.5904 100.317 22.8753 101.482 24.7899C101.937 25.5457 102.266 26.3519 102.519 27.1833C103.102 29.1987 103.178 31.2393 103.051 33.3052C102.924 35.1191 102.519 36.8826 101.76 38.5453C100.773 40.6867 99.3047 42.4502 97.4062 43.8359C95.8114 44.9947 94.0648 45.8513 92.1916 46.4811C90.8753 46.9094 89.5084 47.2117 88.1414 47.4385C85.8379 47.8164 83.5344 47.8667 81.2055 47.7408C79.8386 47.6652 78.4717 47.514 77.1048 47.2621C74.9025 46.8842 72.8268 46.1284 70.9536 44.9443C69.3588 43.987 67.9666 42.7274 66.7009 41.241Z" fill="black"/>
<path d="M81.1042 30.786L86.3441 30.0302C86.3441 30.0302 88.6983 25.1931 88.7995 25.1931C88.9008 25.1931 91.1537 30.0302 91.1537 30.0302L96.5201 30.786L92.6725 34.4893L93.5078 39.8051L88.8249 37.3361L83.99 39.8051L84.876 34.5145L81.1042 30.786Z" fill="#FCB639"/>
<path d="M9.41658 61.9499H5.99927V56.8105H9.41658V57.7175H7.01181V58.9268H9.0622V59.8337H7.01181V61.0934H9.41658V61.9499Z" fill="black"/>
<path d="M15.0362 60.4379C15.0362 60.9166 14.859 61.2945 14.5046 61.5716C14.1502 61.8487 13.6945 61.9999 13.1376 61.9999C12.3276 61.9999 11.6948 61.7731 11.2391 61.3197L11.8973 60.6646C12.1757 60.9418 12.6061 61.0929 13.1376 61.0929C13.7452 61.0929 14.0489 60.8914 14.0489 60.4631C14.0489 60.2615 13.9983 60.1356 13.8971 60.0348C13.7958 59.934 13.6439 59.8837 13.4414 59.8585L12.8086 59.7829C11.8973 59.6569 11.4416 59.1783 11.4416 58.3469C11.4416 57.8682 11.5935 57.4903 11.9226 57.2132C12.2517 56.9361 12.682 56.7849 13.2389 56.7849C13.9477 56.7849 14.5046 56.9865 14.9096 57.3895L14.2768 58.0194C14.0236 57.7926 13.6692 57.6667 13.2136 57.6667C12.9605 57.6667 12.7579 57.7171 12.6314 57.843C12.5048 57.969 12.4289 58.1201 12.4289 58.3217C12.4289 58.4728 12.4795 58.5988 12.5808 58.6996C12.682 58.8004 12.8339 58.8759 13.0617 58.9011L13.6692 58.9767C14.0996 59.0271 14.4286 59.1782 14.6565 59.3798C14.8843 59.5813 15.0362 59.9592 15.0362 60.4379Z" fill="black"/>
<path d="M20.9596 58.3972C20.9596 58.8507 20.8077 59.2286 20.504 59.5309C20.1749 59.8584 19.7699 60.0096 19.2383 60.0096H18.2511V61.9494H17.2385V56.8101H19.2383C19.7446 56.8101 20.1749 56.9612 20.504 57.2887C20.8077 57.5658 20.9596 57.9437 20.9596 58.3972ZM19.9471 58.3972C19.9471 58.1957 19.8711 58.0193 19.7446 57.8934C19.618 57.7674 19.4155 57.6918 19.1877 57.6918H18.2511V59.1026H19.1877C19.4155 59.1026 19.5927 59.027 19.7446 58.9011C19.8711 58.7751 19.9471 58.624 19.9471 58.3972Z" fill="black"/>
<path d="M26.7309 59.3798C26.7309 59.934 26.7056 60.3371 26.655 60.5387C26.6043 60.8914 26.4525 61.1937 26.1993 61.4204C25.8196 61.7983 25.364 61.9747 24.8071 61.9747C24.2502 61.9747 23.7945 61.7983 23.4148 61.4204C23.187 61.1937 23.0351 60.8914 22.9592 60.5387C22.9086 60.3371 22.9086 59.934 22.9086 59.3798C22.9086 58.8255 22.9339 58.4225 22.9592 58.2209C23.0351 57.8682 23.187 57.5659 23.4148 57.3392C23.7945 56.9613 24.2502 56.7849 24.8071 56.7849C25.364 56.7849 25.8196 56.9613 26.1993 57.3392C26.4271 57.5659 26.579 57.8682 26.655 58.2209C26.7056 58.4225 26.7309 58.8255 26.7309 59.3798ZM25.7184 59.3798C25.7184 58.9767 25.7184 58.7248 25.693 58.624C25.6677 58.2965 25.5918 58.0698 25.4652 57.9186C25.288 57.7422 25.0855 57.6415 24.8071 57.6415C24.5286 57.6415 24.3261 57.7422 24.1489 57.9186C24.0224 58.0698 23.9464 58.2965 23.9211 58.624C23.9211 58.6996 23.8958 58.9515 23.8958 59.3798C23.8958 59.8081 23.8958 60.0348 23.9211 60.1356C23.9464 60.4631 24.0224 60.6898 24.1489 60.841C24.3008 61.0173 24.5286 61.1181 24.8071 61.1181C25.1108 61.1181 25.3387 60.9921 25.5159 60.7654C25.6424 60.5639 25.7184 60.1104 25.7184 59.3798Z" fill="black"/>
<path d="M32.9329 61.9494H31.7684L30.7559 59.8836H30.0218V61.9494H29.0093V56.8101H31.0344C31.5406 56.8101 31.971 56.9612 32.2747 57.2635C32.5785 57.5658 32.7304 57.9185 32.7304 58.372C32.7304 58.7247 32.6291 59.0018 32.4519 59.2538C32.2747 59.4805 32.0722 59.6317 31.7938 59.7324L32.9329 61.9494ZM31.7178 58.372C31.7178 58.1705 31.6419 58.0193 31.5153 57.8934C31.3887 57.7674 31.2116 57.717 30.9837 57.717H30.0218V59.0774H30.9837C31.2116 59.0774 31.3887 59.027 31.5153 58.9011C31.6419 58.7751 31.7178 58.5736 31.7178 58.372Z" fill="black"/>
<path d="M38.3751 57.6919H37.0335V61.9495H36.0209V57.6919H34.6793V56.7849H38.4004V57.6919H38.3751Z" fill="black"/>
<path d="M43.8681 61.9494H40.4508V56.8101H43.8681V57.717H41.4633V58.9263H43.5137V59.8332H41.4633V61.0929H43.8681V61.9494Z" fill="black"/>
<path d="M52.5001 57.6918H50.0953V58.9515H52.1457V59.8584H50.0953V61.9494H49.0828V56.8101H52.5001V57.6918Z" fill="black"/>
<path d="M55.6643 61.9494H54.6517V56.8101H55.6643V61.9494Z" fill="black"/>
<path d="M62.0939 61.9494H61.1827L59.1323 58.8003V61.9494H58.1198V56.8101H59.031L61.0814 59.9592V56.8101H62.0939V61.9494Z" fill="black"/>
<path d="M68.2198 59.3798C68.2198 59.934 68.1945 60.3371 68.1439 60.5387C68.0932 60.8914 67.9413 61.1937 67.6882 61.4204C67.3085 61.7983 66.8529 61.9747 66.296 61.9747C65.7391 61.9747 65.2834 61.7983 64.9037 61.4204C64.6759 61.1937 64.524 60.8914 64.4481 60.5387C64.3975 60.3371 64.3975 59.934 64.3975 59.3798C64.3975 58.8255 64.4228 58.4225 64.4481 58.2209C64.524 57.8682 64.6759 57.5659 64.9037 57.3392C65.2834 56.9613 65.7391 56.7849 66.296 56.7849C66.8529 56.7849 67.3085 56.9613 67.6882 57.3392C67.916 57.5659 68.0679 57.8682 68.1439 58.2209C68.1945 58.4225 68.2198 58.8255 68.2198 59.3798ZM67.2073 59.3798C67.2073 58.9767 67.2072 58.7248 67.1819 58.624C67.1566 58.2965 67.0807 58.0698 66.9541 57.9186C66.7769 57.7422 66.5744 57.6415 66.296 57.6415C66.0175 57.6415 65.815 57.7422 65.6378 57.9186C65.5112 58.0698 65.4353 58.2965 65.41 58.624C65.41 58.6996 65.3847 58.9515 65.3847 59.3798C65.3847 59.8081 65.3847 60.0348 65.41 60.1356C65.4353 60.4631 65.5112 60.6898 65.6378 60.841C65.815 61.0173 66.0175 61.1181 66.296 61.1181C66.5997 61.1181 66.8276 60.9921 67.0047 60.7654C67.1566 60.5639 67.2073 60.1104 67.2073 59.3798Z" fill="black"/>
<path d="M76.8263 60.4379C76.8263 60.9166 76.6491 61.2945 76.2947 61.5716C75.9403 61.8487 75.4847 61.9999 74.9278 61.9999C74.1178 61.9999 73.4849 61.7731 73.0293 61.3197L73.6874 60.6646C73.9659 60.9418 74.3962 61.0929 74.9278 61.0929C75.5353 61.0929 75.8391 60.8914 75.8391 60.4631C75.8391 60.2615 75.7885 60.1356 75.6872 60.0348C75.586 59.934 75.4341 59.8837 75.2316 59.8585L74.5987 59.7829C73.6875 59.6569 73.2318 59.1783 73.2318 58.3469C73.2318 57.8682 73.3837 57.4903 73.7128 57.2132C74.0418 56.9361 74.4722 56.7849 75.0291 56.7849C75.7378 56.7849 76.2947 56.9865 76.6997 57.3895L76.0669 58.0194C75.8138 57.7926 75.4594 57.6667 75.0037 57.6667C74.7506 57.6667 74.5481 57.7171 74.4215 57.843C74.295 57.969 74.219 58.1201 74.219 58.3217C74.219 58.4728 74.2697 58.5988 74.3709 58.6996C74.4722 58.8004 74.624 58.8759 74.8519 58.9011L75.4594 58.9767C75.8897 59.0271 76.2188 59.1782 76.4466 59.3798C76.6997 59.5813 76.8263 59.9592 76.8263 60.4379Z" fill="black"/>
<path d="M82.37 57.6919H81.0284V61.9495H80.0158V57.6919H78.6742V56.7849H82.3953V57.6919H82.37Z" fill="black"/>
<path d="M88.116 59.3798C88.116 59.934 88.0907 60.3371 88.0401 60.5387C87.9895 60.8914 87.8376 61.1937 87.5845 61.4204C87.2048 61.7983 86.7491 61.9747 86.1922 61.9747C85.6353 61.9747 85.1797 61.7983 84.8 61.4204C84.5721 61.1937 84.4203 60.8914 84.3443 60.5387C84.2937 60.3371 84.2937 59.934 84.2937 59.3798C84.2937 58.8255 84.319 58.4225 84.3443 58.2209C84.4203 57.8682 84.5721 57.5659 84.8 57.3392C85.1797 56.9613 85.6353 56.7849 86.1922 56.7849C86.7491 56.7849 87.2048 56.9613 87.5845 57.3392C87.8123 57.5659 87.9642 57.8682 88.0401 58.2209C88.0907 58.4225 88.116 58.8255 88.116 59.3798ZM87.1035 59.3798C87.1035 58.9767 87.1035 58.7248 87.0782 58.624C87.0529 58.2965 86.9769 58.0698 86.8504 57.9186C86.6732 57.7422 86.4707 57.6415 86.1922 57.6415C85.9138 57.6415 85.7113 57.7422 85.5341 57.9186C85.4075 58.0698 85.3316 58.2965 85.3062 58.624C85.3062 58.6996 85.2809 58.9515 85.2809 59.3798C85.2809 59.8081 85.2809 60.0348 85.3062 60.1356C85.3316 60.4631 85.4075 60.6898 85.5341 60.841C85.7113 61.0173 85.9138 61.1181 86.1922 61.1181C86.496 61.1181 86.7238 60.9921 86.901 60.7654C87.0529 60.5639 87.1035 60.1104 87.1035 59.3798Z" fill="black"/>
<path d="M94.3433 61.9494H93.1788L92.1663 59.8836H91.4322V61.9494H90.4197V56.8101H92.4448C92.951 56.8101 93.3814 56.9612 93.6851 57.2635C93.9889 57.5658 94.1408 57.9185 94.1408 58.372C94.1408 58.7247 94.0395 59.0018 93.8623 59.2538C93.6851 59.4805 93.4826 59.6317 93.2042 59.7324L94.3433 61.9494ZM93.1282 58.372C93.1282 58.1705 93.0523 58.0193 92.9257 57.8934C92.7991 57.7674 92.6219 57.717 92.3941 57.717H91.4322V59.0774H92.3941C92.6219 59.0774 92.7991 59.027 92.9257 58.9011C93.0523 58.7247 93.1282 58.5736 93.1282 58.372Z" fill="black"/>
<path d="M99.8615 61.9494H96.4442V56.8101H99.8615V57.717H97.4568V58.9263H99.5071V59.8332H97.4568V61.0929H99.8615V61.9494Z" fill="black"/>
</g>
<defs>
<clipPath id="clip0">
<rect width="107" height="62" fill="white"/>
</clipPath>
</defs>
</svg>
