<svg width="38" height="48" viewBox="0 0 38 48" fill="none" xmlns="http://www.w3.org/2000/svg">
<path fill-rule="evenodd" clip-rule="evenodd" d="M12.9696 4.83784C12.3669 4.83784 11.8784 5.32639 11.8784 5.92905V9.94932C11.8784 10.552 12.3669 11.0405 12.9696 11.0405H25.0304C25.6331 11.0405 26.1216 10.552 26.1216 9.94932V7.94176C26.1216 7.9409 26.1216 7.94005 26.1216 7.93919C26.1216 7.93833 26.1216 7.93748 26.1216 7.93663V5.92905C26.1216 5.32639 25.6331 4.83784 25.0304 4.83784H12.9696ZM27.9595 7.02027V5.92905C27.9595 4.31138 26.6481 3 25.0304 3H12.9696C11.3519 3 10.0405 4.31138 10.0405 5.92905V7.02027H6.93919C5.62923 7.02027 4.37293 7.54065 3.44665 8.46693C2.52038 9.3932 2 10.6495 2 11.9595V40.1014C2 41.4113 2.52038 42.6676 3.44665 43.5939C4.37293 44.5202 5.62923 45.0405 6.93919 45.0405H31.0608C32.3708 45.0405 33.6271 44.5202 34.5533 43.5939C35.4796 42.6676 36 41.4113 36 40.1014V11.9595C36 10.6495 35.4796 9.3932 34.5533 8.46693C33.6271 7.54065 32.3708 7.02027 31.0608 7.02027H27.9595ZM27.9595 8.85811V9.94932C27.9595 11.567 26.6481 12.8784 25.0304 12.8784H12.9696C11.3519 12.8784 10.0405 11.567 10.0405 9.94932V8.85811H6.93919C6.11666 8.85811 5.32782 9.18486 4.7462 9.76647C4.16459 10.3481 3.83784 11.1369 3.83784 11.9595V40.1014C3.83784 40.9239 4.16459 41.7127 4.7462 42.2943C5.32782 42.876 6.11666 43.2027 6.93919 43.2027H31.0608C31.8833 43.2027 32.6722 42.876 33.2538 42.2943C33.8354 41.7127 34.1622 40.9239 34.1622 40.1014V11.9595C34.1622 11.1369 33.8354 10.3481 33.2538 9.76647C32.6722 9.18486 31.8833 8.85811 31.0608 8.85811H27.9595Z" fill="#FBA409"/>
</svg>
