<svg width="107" height="62" viewBox="0 0 107 62" fill="none" xmlns="http://www.w3.org/2000/svg">
<g opacity="0.4" clip-path="url(#clip0)">
<path d="M8.53064 6.62587L0 48.5974H26.2247C29.4142 48.5974 32.4265 46.1285 33.0847 43.0298L34.0213 38.6462H13.5933L15.4412 29.0476H32.6291L34.7301 19.1216H17.2891L19.3901 10.0017H39.2359L41.2103 0.0756836H16.6056C12.682 0.0756836 9.31535 2.82172 8.53064 6.62587Z" fill="#ADB5BD"/>
<path d="M48.855 29.3245H66.0428L68.1438 19.1465H50.7029L52.8039 10.0266H72.6496L74.6241 0.100586H50.0194C46.0958 0.100586 42.7291 2.84662 41.9444 6.65077L33.4138 48.5971H37.2867C41.6406 48.5971 45.387 45.574 46.273 41.3415L48.855 29.3245Z" fill="#ADB5BD"/>
<path d="M66.701 41.241C67.3338 40.6867 67.9413 40.1325 68.5742 39.6034C69.9917 38.369 71.4093 37.1597 72.8015 35.9253C73.4343 35.3962 74.0419 34.842 74.6747 34.2877C74.8013 34.1869 74.8519 34.1617 74.9531 34.2877C75.9657 35.4466 77.2314 36.3031 78.6489 36.8826C79.7121 37.3109 80.8006 37.6132 81.965 37.714C82.775 37.7895 83.5597 37.8651 84.3951 37.9407C84.3191 38.4697 84.2179 39.024 84.1166 39.6538C84.4457 39.5027 84.6988 39.3767 84.9773 39.2507C86.167 38.6209 87.3567 37.9911 88.5718 37.3864C88.6984 37.3109 88.9262 37.3109 89.0274 37.3864C90.3944 38.0918 91.7613 38.7973 93.1029 39.5027C93.2042 39.553 93.3054 39.5782 93.432 39.6538C93.432 39.5278 93.432 39.4523 93.432 39.3767C93.1535 37.8399 92.8751 36.3031 92.6219 34.7664C92.5966 34.6404 92.6726 34.4389 92.7738 34.3633C93.7357 33.4311 94.6977 32.499 95.6596 31.5417C95.8874 31.3149 96.0899 31.0882 96.343 30.8111C95.8114 30.7355 95.3052 30.6347 94.8242 30.5591C93.6598 30.3828 92.4954 30.2316 91.331 30.0553C91.2044 30.0301 91.0778 29.9041 91.0272 29.7782C90.5716 28.8964 90.1412 28.0146 89.7109 27.1329C89.4578 26.6038 89.2046 26.0748 88.9262 25.5709C88.9009 25.5205 88.8502 25.4701 88.7743 25.3694C88.1921 26.5534 87.6099 27.6871 87.053 28.846C86.167 28.6193 85.281 28.4429 84.4204 28.191C83.2813 27.8635 82.1675 27.4856 81.079 27.0573C79.0286 26.2763 77.206 25.1174 75.7632 23.4295C74.776 22.2706 74.0925 20.9606 73.7128 19.4742C73.3331 18.013 73.2825 16.5266 73.409 15.0402C73.6115 12.6469 74.2444 10.3543 75.4594 8.26332C76.4213 6.62578 77.6364 5.24016 79.1299 4.08128C81.2562 2.41855 83.6357 1.36044 86.243 0.730613C89.1287 0.0252089 92.0651 -0.176335 95.0267 0.0755949C97.3303 0.277139 99.5578 0.806192 101.659 1.78872C103.684 2.72086 105.431 4.0057 106.823 5.74402C106.873 5.79441 106.899 5.84479 106.949 5.92037C106.949 5.94557 106.975 5.94557 106.975 5.97076C104.367 8.26332 101.76 10.5307 99.1275 12.8233C98.5706 12.143 97.9631 11.5636 97.2543 11.1101C96.343 10.5307 95.3305 10.178 94.242 9.97645C92.9257 9.72452 91.6347 9.67413 90.3184 9.82529C88.344 10.052 86.5973 10.7826 85.3823 12.4202C84.6482 13.4027 84.3698 14.486 84.6988 15.6953C84.9013 16.4259 85.3823 16.9549 86.0404 17.2824C86.648 17.5847 87.3061 17.8367 87.9643 18.013C89.1793 18.3657 90.3944 18.668 91.6094 18.9704C93.3054 19.3986 95.0014 19.9025 96.5962 20.6583C98.5959 21.5904 100.317 22.8753 101.482 24.7899C101.937 25.5457 102.266 26.3519 102.52 27.1833C103.102 29.1987 103.178 31.2393 103.051 33.3052C102.925 35.1191 102.52 36.8826 101.76 38.5453C100.773 40.6867 99.3047 42.4502 97.4062 43.8359C95.8114 44.9947 94.0648 45.8513 92.1916 46.4811C90.8753 46.9094 89.5084 47.2117 88.1415 47.4385C85.8379 47.8164 83.5344 47.8667 81.2056 47.7408C79.8386 47.6652 78.4717 47.514 77.1048 47.2621C74.9025 46.8842 72.8268 46.1284 70.9536 44.9443C69.3589 43.987 67.9666 42.7274 66.701 41.241Z" fill="#ADB5BD"/>
<path d="M81.1043 30.7857L86.3442 30.0299C86.3442 30.0299 88.6983 25.1929 88.7996 25.1929C88.9009 25.1929 91.1538 30.0299 91.1538 30.0299L96.5202 30.7857L92.6726 34.4891L93.5079 39.8048L88.8249 37.3359L83.99 39.8048L84.876 34.5143L81.1043 30.7857Z" fill="#7F8993"/>
<path d="M9.41665 61.9499H5.99933V56.8105H9.41665V57.7175H7.01187V58.9268H9.06226V59.8337H7.01187V61.0934H9.41665V61.9499Z" fill="#ADB5BD"/>
<path d="M15.0363 60.4381C15.0363 60.9168 14.8591 61.2947 14.5047 61.5718C14.1503 61.8489 13.6946 62.0001 13.1377 62.0001C12.3277 62.0001 11.6949 61.7734 11.2392 61.3199L11.8974 60.6649C12.1758 60.942 12.6062 61.0932 13.1377 61.0932C13.7453 61.0932 14.049 60.8916 14.049 60.4633C14.049 60.2618 13.9984 60.1358 13.8971 60.0351C13.7959 59.9343 13.644 59.8839 13.4415 59.8587L12.8087 59.7831C11.8974 59.6572 11.4417 59.1785 11.4417 58.3471C11.4417 57.8685 11.5936 57.4906 11.9227 57.2134C12.2518 56.9363 12.6821 56.7852 13.239 56.7852C13.9478 56.7852 14.5047 56.9867 14.9097 57.3898L14.2768 58.0196C14.0237 57.7929 13.6693 57.6669 13.2137 57.6669C12.9605 57.6669 12.758 57.7173 12.6315 57.8433C12.5049 57.9692 12.429 58.1204 12.429 58.3219C12.429 58.4731 12.4796 58.5991 12.5808 58.6998C12.6821 58.8006 12.834 58.8762 13.0618 58.9014L13.6693 58.977C14.0997 59.0273 14.4287 59.1785 14.6565 59.38C14.8844 59.5816 15.0363 59.9595 15.0363 60.4381Z" fill="#ADB5BD"/>
<path d="M20.9597 58.3977C20.9597 58.8512 20.8078 59.2291 20.504 59.5314C20.1749 59.8589 19.7699 60.0101 19.2383 60.0101H18.2511V61.9499H17.2386V56.8105H19.2383C19.7446 56.8105 20.1749 56.9617 20.504 57.2892C20.8078 57.5663 20.9597 57.9442 20.9597 58.3977ZM19.9471 58.3977C19.9471 58.1962 19.8712 58.0198 19.7446 57.8938C19.6181 57.7679 19.4155 57.6923 19.1877 57.6923H18.2511V59.1031H19.1877C19.4155 59.1031 19.5927 59.0275 19.7446 58.9016C19.8712 58.7756 19.9471 58.6244 19.9471 58.3977Z" fill="#ADB5BD"/>
<path d="M26.731 59.38C26.731 59.9343 26.7057 60.3374 26.6551 60.5389C26.6045 60.8916 26.4526 61.1939 26.1994 61.4207C25.8197 61.7986 25.3641 61.9749 24.8072 61.9749C24.2503 61.9749 23.7947 61.7986 23.415 61.4207C23.1871 61.1939 23.0353 60.8916 22.9593 60.5389C22.9087 60.3374 22.9087 59.9343 22.9087 59.38C22.9087 58.8258 22.934 58.4227 22.9593 58.2212C23.0353 57.8685 23.1871 57.5661 23.415 57.3394C23.7947 56.9615 24.2503 56.7852 24.8072 56.7852C25.3641 56.7852 25.8197 56.9615 26.1994 57.3394C26.4273 57.5661 26.5791 57.8685 26.6551 58.2212C26.7057 58.4227 26.731 58.8258 26.731 59.38ZM25.7185 59.38C25.7185 58.9769 25.7185 58.725 25.6932 58.6242C25.6679 58.2967 25.5919 58.07 25.4654 57.9188C25.2882 57.7425 25.0856 57.6417 24.8072 57.6417C24.5288 57.6417 24.3262 57.7425 24.1491 57.9188C24.0225 58.07 23.9465 58.2967 23.9212 58.6242C23.9212 58.6998 23.8959 58.9518 23.8959 59.38C23.8959 59.8083 23.8959 60.0351 23.9212 60.1358C23.9465 60.4633 24.0225 60.6901 24.1491 60.8412C24.3009 61.0176 24.5288 61.1184 24.8072 61.1184C25.111 61.1184 25.3388 60.9924 25.516 60.7657C25.6425 60.5641 25.7185 60.1106 25.7185 59.38Z" fill="#ADB5BD"/>
<path d="M32.9329 61.9499H31.7685L30.756 59.8841H30.0219V61.9499H29.0093V56.8105H31.0344C31.5407 56.8105 31.971 56.9617 32.2748 57.264C32.5785 57.5663 32.7304 57.919 32.7304 58.3725C32.7304 58.7252 32.6292 59.0023 32.452 59.2543C32.2748 59.481 32.0723 59.6322 31.7938 59.7329L32.9329 61.9499ZM31.7179 58.3725C31.7179 58.171 31.6419 58.0198 31.5154 57.8938C31.3888 57.7679 31.2116 57.7175 30.9838 57.7175H30.0219V59.0779H30.9838C31.2116 59.0779 31.3888 59.0275 31.5154 58.9016C31.6419 58.7756 31.7179 58.5741 31.7179 58.3725Z" fill="#ADB5BD"/>
<path d="M38.3752 57.6921H37.0336V61.9497H36.0211V57.6921H34.6794V56.7852H38.4005V57.6921H38.3752Z" fill="#ADB5BD"/>
<path d="M43.8682 61.9499H40.4509V56.8105H43.8682V57.7175H41.4634V58.9268H43.5138V59.8337H41.4634V61.0934H43.8682V61.9499Z" fill="#ADB5BD"/>
<path d="M52.5002 57.6923H50.0954V58.952H52.1458V59.8589H50.0954V61.9499H49.0829V56.8105H52.5002V57.6923Z" fill="#ADB5BD"/>
<path d="M55.6644 61.9499H54.6518V56.8105H55.6644V61.9499Z" fill="#ADB5BD"/>
<path d="M62.094 61.9499H61.1827L59.1324 58.8008V61.9499H58.1198V56.8105H59.0311L61.0815 59.9597V56.8105H62.094V61.9499Z" fill="#ADB5BD"/>
<path d="M68.2198 59.38C68.2198 59.9343 68.1945 60.3374 68.1439 60.5389C68.0933 60.8916 67.9414 61.1939 67.6883 61.4207C67.3086 61.7986 66.8529 61.9749 66.296 61.9749C65.7391 61.9749 65.2835 61.7986 64.9038 61.4207C64.676 61.1939 64.5241 60.8916 64.4482 60.5389C64.3975 60.3374 64.3975 59.9343 64.3975 59.38C64.3975 58.8258 64.4228 58.4227 64.4482 58.2212C64.5241 57.8685 64.676 57.5661 64.9038 57.3394C65.2835 56.9615 65.7391 56.7852 66.296 56.7852C66.8529 56.7852 67.3086 56.9615 67.6883 57.3394C67.9161 57.5661 68.068 57.8685 68.1439 58.2212C68.1945 58.4227 68.2198 58.8258 68.2198 59.38ZM67.2073 59.38C67.2073 58.9769 67.2073 58.725 67.182 58.6242C67.1567 58.2967 67.0807 58.07 66.9542 57.9188C66.777 57.7425 66.5745 57.6417 66.296 57.6417C66.0176 57.6417 65.8151 57.7425 65.6379 57.9188C65.5113 58.07 65.4354 58.2967 65.4101 58.6242C65.4101 58.6998 65.3847 58.9518 65.3847 59.38C65.3847 59.8083 65.3847 60.0351 65.4101 60.1358C65.4354 60.4633 65.5113 60.6901 65.6379 60.8412C65.8151 61.0176 66.0176 61.1184 66.296 61.1184C66.5998 61.1184 66.8276 60.9924 67.0048 60.7657C67.1567 60.5641 67.2073 60.1106 67.2073 59.38Z" fill="#ADB5BD"/>
<path d="M76.8263 60.4381C76.8263 60.9168 76.6492 61.2947 76.2948 61.5718C75.9404 61.8489 75.4847 62.0001 74.9278 62.0001C74.1178 62.0001 73.485 61.7734 73.0293 61.3199L73.6875 60.6649C73.9659 60.942 74.3963 61.0932 74.9278 61.0932C75.5354 61.0932 75.8391 60.8916 75.8391 60.4633C75.8391 60.2618 75.7885 60.1358 75.6872 60.0351C75.586 59.9343 75.4341 59.8839 75.2316 59.8587L74.5988 59.7831C73.6875 59.6572 73.2318 59.1785 73.2318 58.3471C73.2318 57.8685 73.3837 57.4906 73.7128 57.2134C74.0419 56.9363 74.4722 56.7852 75.0291 56.7852C75.7379 56.7852 76.2948 56.9867 76.6998 57.3898L76.0669 58.0196C75.8138 57.7929 75.4594 57.6669 75.0038 57.6669C74.7506 57.6669 74.5481 57.7173 74.4216 57.8433C74.295 57.9692 74.2191 58.1204 74.2191 58.3219C74.2191 58.4731 74.2697 58.5991 74.3709 58.6998C74.4722 58.8006 74.6241 58.8762 74.8519 58.9014L75.4594 58.977C75.8898 59.0273 76.2188 59.1785 76.4466 59.38C76.6998 59.5816 76.8263 59.9595 76.8263 60.4381Z" fill="#ADB5BD"/>
<path d="M82.37 57.6921H81.0284V61.9497H80.0159V57.6921H78.6743V56.7852H82.3953V57.6921H82.37Z" fill="#ADB5BD"/>
<path d="M88.1162 59.38C88.1162 59.9343 88.0908 60.3374 88.0402 60.5389C87.9896 60.8916 87.8377 61.1939 87.5846 61.4207C87.2049 61.7986 86.7492 61.9749 86.1923 61.9749C85.6354 61.9749 85.1798 61.7986 84.8001 61.4207C84.5723 61.1939 84.4204 60.8916 84.3445 60.5389C84.2938 60.3374 84.2938 59.9343 84.2938 59.38C84.2938 58.8258 84.3191 58.4227 84.3445 58.2212C84.4204 57.8685 84.5723 57.5661 84.8001 57.3394C85.1798 56.9615 85.6354 56.7852 86.1923 56.7852C86.7492 56.7852 87.2049 56.9615 87.5846 57.3394C87.8124 57.5661 87.9643 57.8685 88.0402 58.2212C88.0908 58.4227 88.1162 58.8258 88.1162 59.38ZM87.1036 59.38C87.1036 58.9769 87.1036 58.725 87.0783 58.6242C87.053 58.2967 86.9771 58.07 86.8505 57.9188C86.6733 57.7425 86.4708 57.6417 86.1923 57.6417C85.9139 57.6417 85.7114 57.7425 85.5342 57.9188C85.4076 58.07 85.3317 58.2967 85.3064 58.6242C85.3064 58.6998 85.281 58.9518 85.281 59.38C85.281 59.8083 85.2811 60.0351 85.3064 60.1358C85.3317 60.4633 85.4076 60.6901 85.5342 60.8412C85.7114 61.0176 85.9139 61.1184 86.1923 61.1184C86.4961 61.1184 86.7239 60.9924 86.9011 60.7657C87.053 60.5641 87.1036 60.1106 87.1036 59.38Z" fill="#ADB5BD"/>
<path d="M94.3433 61.9499H93.1789L92.1663 59.8841H91.4322V61.9499H90.4197V56.8105H92.4448C92.9511 56.8105 93.3814 56.9617 93.6851 57.264C93.9889 57.5663 94.1408 57.919 94.1408 58.3725C94.1408 58.7252 94.0395 59.0023 93.8623 59.2543C93.6851 59.481 93.4826 59.6322 93.2042 59.7329L94.3433 61.9499ZM93.1282 58.3725C93.1282 58.171 93.0523 58.0198 92.9257 57.8938C92.7992 57.7679 92.622 57.7175 92.3942 57.7175H91.4322V59.0779H92.3942C92.622 59.0779 92.7992 59.0275 92.9257 58.9016C93.0523 58.7252 93.1282 58.5741 93.1282 58.3725Z" fill="#ADB5BD"/>
<path d="M99.8616 61.9499H96.4443V56.8105H99.8616V57.7175H97.4568V58.9268H99.5072V59.8337H97.4568V61.0934H99.8616V61.9499Z" fill="#ADB5BD"/>
</g>
<defs>
<clipPath id="clip0">
<rect width="107" height="62" fill="white"/>
</clipPath>
</defs>
</svg>
