<svg width="38" height="48" viewBox="0 0 38 48" fill="none" xmlns="http://www.w3.org/2000/svg">
<path fill-rule="evenodd" clip-rule="evenodd" d="M27.2842 3.26915C27.643 2.91028 28.2248 2.91028 28.5837 3.26915L35.7309 10.4163C35.9032 10.5886 36 10.8224 36 11.0661C36 11.3098 35.9032 11.5435 35.7309 11.7158L28.5837 18.863C28.2248 19.2218 27.643 19.2218 27.2842 18.863C26.9253 18.5041 26.9253 17.9223 27.2842 17.5634L32.8626 11.985H10.0661C8.41424 11.985 6.83006 12.6412 5.66204 13.8092C4.49402 14.9772 3.83784 16.5614 3.83784 18.2132V21.7868C3.83784 22.2943 3.42642 22.7057 2.91892 22.7057C2.41141 22.7057 2 22.2943 2 21.7868V18.2132C2 16.074 2.84981 14.0223 4.3625 12.5096C5.87518 10.997 7.92681 10.1471 10.0661 10.1471H32.8626L27.2842 4.56869C26.9253 4.20983 26.9253 3.62801 27.2842 3.26915ZM34.1622 28.9339V25.3604C34.1622 24.8529 34.5736 24.4414 35.0811 24.4414C35.5886 24.4414 36 24.8529 36 25.3604V28.9339C36 31.0732 35.1502 33.1248 33.6375 34.6375C32.1248 36.1502 30.0732 37 27.9339 37H5.13739L10.7158 42.5785C11.0747 42.9373 11.0747 43.5191 10.7158 43.878C10.357 44.2369 9.77515 44.2369 9.41629 43.878L2.26915 36.7309C1.91028 36.372 1.91028 35.7902 2.26915 35.4313L9.41629 28.2842C9.77515 27.9253 10.357 27.9253 10.7158 28.2842C11.0747 28.643 11.0747 29.2248 10.7158 29.5837L5.13739 35.1622H27.9339C29.5858 35.1622 31.1699 34.506 32.338 33.338C33.506 32.1699 34.1622 30.5858 34.1622 28.9339Z" fill="#FBA409"/>
</svg>
