<svg width="38" height="48" viewBox="0 0 38 48" fill="none" xmlns="http://www.w3.org/2000/svg">
<path fill-rule="evenodd" clip-rule="evenodd" d="M19 8.83784C14.9787 8.83784 11.1222 10.4353 8.27873 13.2787C5.43528 16.1222 3.83784 19.9787 3.83784 24V26.6547H8.27928C9.47076 26.6547 10.6134 27.128 11.456 27.9705C12.2985 28.813 12.7718 29.9557 12.7718 31.1472V36.5075C12.7718 37.699 12.2985 38.8417 11.456 39.6842C10.6134 40.5267 9.47076 41 8.27928 41H6.49249C5.30101 41 4.15833 40.5267 3.31582 39.6842C2.47331 38.8417 2 37.699 2 36.5075V24C2 19.4913 3.79107 15.1673 6.97918 11.9792C10.1673 8.79107 14.4913 7 19 7C23.5087 7 27.8327 8.79107 31.0208 11.9792C34.2089 15.1673 36 19.4913 36 24V36.5075C36 37.699 35.5267 38.8417 34.6842 39.6842C33.8417 40.5267 32.699 41 31.5075 41H29.7207C28.5292 41 27.3866 40.5267 26.544 39.6842C25.7015 38.8417 25.2282 37.699 25.2282 36.5075V31.1472C25.2282 29.9557 25.7015 28.813 26.544 27.9705C27.3866 27.128 28.5292 26.6547 29.7207 26.6547H34.1622V24C34.1622 19.9787 32.5647 16.1222 29.7213 13.2787C26.8778 10.4353 23.0213 8.83784 19 8.83784ZM34.1622 28.4925H29.7207C29.0167 28.4925 28.3414 28.7722 27.8436 29.27C27.3458 29.7679 27.0661 30.4431 27.0661 31.1472V36.5075C27.0661 37.2116 27.3458 37.8868 27.8436 38.3846C28.3414 38.8825 29.0167 39.1622 29.7207 39.1622H31.5075C32.2116 39.1622 32.8868 38.8825 33.3846 38.3846C33.8825 37.8868 34.1622 37.2116 34.1622 36.5075V28.4925ZM3.83784 36.5075C3.83784 37.2116 4.11752 37.8868 4.61537 38.3846C5.11321 38.8825 5.78843 39.1622 6.49249 39.1622H8.27928C8.98334 39.1622 9.65856 38.8825 10.1564 38.3846C10.6542 37.8868 10.9339 37.2116 10.9339 36.5075V31.1472C10.9339 30.4431 10.6542 29.7679 10.1564 29.27C9.65856 28.7722 8.98334 28.4925 8.27928 28.4925H3.83784V36.5075Z" fill="#FBA409"/>
</svg>
