<svg width="60" height="40" xmlns="http://www.w3.org/2000/svg"><g fill="none" fill-rule="evenodd"><path fill="#0A78A9" d="M0 0h60v40H0z"/><path d="M17.916 19.44v-.637l-.298.637h-2.641l-.323-.685v.685H9.732l-.586-1.383h-.98l-.62 1.383H5v-4.184L6.864 11h3.585l.501 1.202v-1.19h4.373l.968 2.032.944-2.044H31.06s.729-.012 1.206.325V11h3.477v.457S36.376 11 37.296 11h6.153l.538 1.226V11h3.93l.717 1.226V11h3.764v8.44h-3.86l-.907-1.467v1.467h-4.815l-.681-1.515h-.933l-.632 1.515h-2.916s-1.087-.013-1.9-.6v.6H29.96v-1.972c0-.288-.215-.264-.215-.264h-.216v2.236H17.916zM15.025 21.268h7.61l1.1 1.25 1.123-1.25h5.854s.55.011 1.076.288v-.288h5.21c.668 0 1.218.336 1.218.336v-.336h6.703v.312s.478-.312 1.111-.312h4.373v.312s.55-.312 1.123-.312h3.43v7.96s-.455.516-1.387.516h-4.516v-.253s-.43.253-1.088.253H35.969v-2.057c0-.203-.083-.24-.263-.24h-.167v2.297h-3.751v-2.285s-.419.228-1.111.228h-1.35v2.057h-4.624l-1.052-1.298-1.123 1.298h-7.503v-8.476z" fill="#FFF"/><path fill="#0A78A9" d="M39.016 22.542h4.78v1.286h-3.31v1.119H43.7v1.142h-3.214v1.178h3.31v1.263h-4.78zM53.032 24.874c1.792.084 1.935.999 1.935 1.96 0 1.118-.908 1.72-1.864 1.72h-3.07v-1.287h2.389c.406 0 1.003 0 1.003-.577 0-.264-.095-.445-.537-.493-.19-.024-.896-.06-1.004-.06-1.625-.048-1.996-.866-1.996-1.852 0-1.118.778-1.731 1.734-1.731h3.07v1.286h-2.246c-.514 0-1.063-.06-1.063.518 0 .36.274.444.62.469.12 0 .92.047 1.029.047zM47.523 24.874c1.792.084 1.948.999 1.948 1.96 0 1.118-.92 1.72-1.876 1.72h-3.07v-1.287h2.4c.395 0 1.005 0 1.005-.577 0-.264-.108-.445-.538-.493-.191-.024-.908-.06-1.004-.06-1.625-.048-2.007-.866-2.007-1.852 0-1.118.788-1.731 1.744-1.731h3.071v1.286H46.95c-.514 0-1.064-.06-1.064.518 0 .36.276.444.622.469.119 0 .908.047 1.015.047zM30.198 22.553h-5.125L23.4 24.405l-1.625-1.863h-5.759v5.987h5.568l1.756-1.984 1.72 1.997h2.797v-2.033h1.971c.753 0 2.139-.024 2.139-2.128 0-1.49-1.052-1.828-1.769-1.828zm-9.367 4.714h-3.369v-1.178h3.214v-1.142h-3.214v-1.119l3.549.012 1.421 1.623-1.6 1.804zm5.58.697l-2.103-2.5 2.103-2.333v4.833zm3.298-2.693H27.88v-1.43h1.828c.61 0 .812.384.812.685 0 .397-.215.745-.812.745zM37.26 25.813c.8-.397 1.003-.939 1.003-1.66 0-1.286-1.027-1.6-1.743-1.6h-3.8v5.989h1.457v-2.116h1.912c.502 0 .705.505.717 1.022l.036 1.094h1.421l-.047-1.227c0-.974-.263-1.419-.956-1.502zm-1.267-.614h-1.816V23.84h1.828c.61 0 .801.385.801.686 0 .397-.215.673-.813.673zM33.305 12.202h1.458v5.987h-1.458zM21.333 12.202h4.78V13.5h-3.31v1.118h3.214v1.13h-3.214v1.19h3.31v1.25h-4.78zM31.525 15.472c.8-.409 1.003-.938 1.003-1.659 0-1.287-1.027-1.611-1.744-1.611h-3.8v5.987h1.458v-2.103h1.912c.502 0 .705.505.717 1.01l.035 1.093h1.422l-.048-1.225c0-.962-.263-1.42-.955-1.492zm-1.267-.625h-1.816v-1.359h1.828c.61 0 .8.397.8.686.001.409-.214.673-.812.673zM17.964 12.202l-1.792 4.016-1.78-4.016h-2.295v5.771l-2.556-5.771H7.605L5 18.189h1.553l.562-1.334h2.916l.585 1.334h2.94v-4.436l1.959 4.436h1.326l1.995-4.364v4.364h1.458v-5.987h-2.33zm-10.3 3.367l.873-2.093.908 2.093h-1.78zM49.841 12.202v4.148l-2.461-4.148h-2.163v5.627l-2.485-5.627h-1.935l-2.02 4.641s-.848 0-.931-.024c-.359-.072-.908-.324-.908-1.37v-.445c0-1.395.753-1.503 1.72-1.503h.908v-1.3h-1.912c-.657 0-2.103.506-2.15 2.97-.036 1.66.68 3.03 2.293 3.03h1.936l.573-1.346h2.916l.574 1.347h2.88v-4.389l2.628 4.389h1.995v-6h-1.458zm-8.973 3.367l.873-2.093.908 2.093h-1.781z"/></g></svg>