<svg width="60" height="40" xmlns="http://www.w3.org/2000/svg"><g fill="none" fill-rule="evenodd"><path fill="#084E94" d="M0 0h60v40H0z"/><path d="M31.903 22.226c3.606.024 6.913-2.946 6.913-6.553C38.816 11.73 35.509 9 31.903 9h-3.115c-3.667 0-6.672 2.73-6.672 6.673 0 3.607 3.005 6.577 6.672 6.553h3.115z" fill="#FFF"/><path d="M30.171 19.184V12.02a3.836 3.836 0 010 7.165m-5.206-3.583a3.835 3.835 0 012.465-3.582v7.165a3.835 3.835 0 01-2.465-3.583m3.836-6.06a6.065 6.065 0 00-6.06 6.06c0 3.343 2.717 6.048 6.06 6.06a6.062 6.062 0 006.047-6.06c0-3.342-2.705-6.06-6.047-6.06z" fill="#084E94"/><path d="M15.346 26.747c0 .529.385.6.734.6 1.503 0 2.008-1.141 2.008-2.188 0-1.31-.842-2.248-2.188-2.248-.289 0-.42.024-.553.024v3.812zm-.685-3.283c0-.637-.325-.589-.637-.601v-.18c.265.012.553.012.818.012.3 0 .697-.012 1.214-.012 1.815 0 2.801 1.214 2.801 2.452 0 .686-.408 2.429-2.885 2.429-.361 0-.686-.011-1.01-.011-.313 0-.625.011-.938.011v-.18c.42-.036.625-.06.637-.53v-3.39zM19.843 23.296c-.18 0-.336-.168-.336-.348 0-.18.168-.337.336-.337.18 0 .349.145.349.337 0 .18-.157.348-.349.348m-.745 4.088h.132c.193 0 .337 0 .337-.228v-1.9c0-.3-.109-.349-.361-.481v-.12c.325-.096.721-.228.746-.252a.31.31 0 01.12-.036c.036 0 .06.047.06.107v2.682c0 .228.144.228.348.228h.12v.18c-.24 0-.492-.011-.733-.011-.252 0-.505.011-.77.011v-.18zM21.262 25.304c0-.265-.084-.337-.409-.47v-.131c.3-.097.59-.18.926-.337.024 0 .036.024.036.072v.458c.41-.29.746-.53 1.214-.53.59 0 .806.433.806.986v1.804c0 .228.156.228.349.228h.12v.18c-.24 0-.481-.011-.733-.011-.253 0-.506.011-.758.011v-.18h.12c.205 0 .337 0 .337-.228V25.34c0-.397-.241-.589-.638-.589-.228 0-.576.18-.817.337v2.068c0 .228.156.228.349.228h.132v.18c-.24 0-.493-.011-.746-.011-.252 0-.505.011-.757.011v-.18h.132c.193 0 .337 0 .337-.228v-1.852zM26.083 25.412c.169 0 .192-.096.192-.18 0-.349-.216-.637-.613-.637-.42 0-.721.312-.805.818h1.226zm-1.238.229c-.024.06-.024.168 0 .397.036.673.469 1.214 1.022 1.214.385 0 .685-.205.95-.47l.096.097c-.325.433-.722.794-1.299.794-1.106 0-1.334-1.082-1.334-1.527 0-1.371.925-1.78 1.419-1.78.565 0 1.166.361 1.178 1.106 0 .037 0 .084-.012.12l-.06.049h-1.96zM27.033 27.384h.192c.193 0 .337 0 .337-.228v-1.972c0-.217-.264-.253-.36-.313v-.096c.504-.229.78-.409.853-.409.036 0 .06.024.06.097v.625h.012c.168-.265.469-.722.89-.722.18 0 .409.12.409.373 0 .192-.133.36-.337.36-.216 0-.216-.168-.457-.168-.12 0-.517.157-.517.577v1.648c0 .228.144.228.337.228h.397v.18c-.385 0-.686-.011-.986-.011-.277 0-.578.011-.83.011v-.18zM29.726 26.59c.096.47.373.854.878.854.42 0 .577-.252.577-.493 0-.83-1.527-.565-1.527-1.683 0-.397.313-.902 1.082-.902.229 0 .517.072.794.204l.048.71h-.157c-.072-.433-.312-.685-.757-.685-.289 0-.553.156-.553.457 0 .817 1.623.565 1.623 1.67 0 .457-.373.95-1.202.95-.277 0-.601-.096-.854-.24l-.072-.806.12-.035zM38.046 23.945h-.168c-.133-.817-.722-1.142-1.503-1.142-.806 0-1.972.542-1.972 2.213 0 1.419 1.01 2.428 2.092 2.428.685 0 1.263-.469 1.407-1.202l.156.036-.156 1.022c-.3.18-1.094.373-1.55.373-1.637 0-2.67-1.059-2.67-2.634 0-1.43 1.274-2.464 2.645-2.464.565 0 1.118.192 1.66.373l.06.997zM38.298 27.384h.133c.204 0 .336 0 .336-.228V23.26c0-.457-.096-.468-.372-.553V22.6c.289-.084.577-.216.722-.3.084-.036.13-.073.156-.073.047 0 .06.037.06.097v4.833c0 .228.156.228.348.228h.12v.18c-.24 0-.48-.011-.733-.011-.252 0-.505.011-.77.011v-.18zM42.796 27.18c0 .132.072.132.192.132h.276v.145c-.3.023-.865.168-.998.216l-.036-.024v-.566c-.42.35-.746.59-1.239.59-.384 0-.769-.24-.769-.83v-1.791c0-.181-.036-.36-.42-.397v-.132c.252 0 .805-.049.901-.049.072 0 .072.049.072.205v1.803c0 .205 0 .806.613.806.241 0 .554-.18.842-.42v-1.876c0-.145-.336-.217-.589-.29v-.132c.637-.035 1.022-.096 1.094-.096.06 0 .06.049.06.132v2.574zM44.178 26.771c0 .276.253.722.721.722.758 0 1.07-.734 1.07-1.36 0-.757-.577-1.382-1.118-1.382-.265 0-.48.168-.673.325v1.695zm0-1.9c.288-.24.662-.505 1.046-.505.817 0 1.298.71 1.298 1.467 0 .926-.673 1.84-1.67 1.84-.518 0-.782-.169-.975-.24l-.204.156-.145-.073c.061-.42.097-.83.097-1.25V23.26c0-.457-.108-.468-.373-.553V22.6c.276-.084.577-.216.722-.3.072-.036.132-.073.156-.073.036 0 .048.037.048.097v2.548zM14.012 31.628h.06c.132 0 .277-.012.277-.217v-1.983c0-.204-.145-.228-.277-.228h-.06v-.109c.145 0 .373.013.565.013.192 0 .42-.013.601-.013v.109h-.06c-.132 0-.276.024-.276.228v1.983c0 .205.144.217.276.217h.06v.12c-.192 0-.42-.011-.6-.011-.193 0-.421.011-.566.011v-.12z" fill="#FFF"/><path d="M15.154 31.737v-.085h-.036c-.132 0-.3-.024-.3-.24v-1.984c0-.217.168-.24.3-.24h.036v-.084c-.168 0-.396.023-.577.023-.18 0-.397-.023-.541-.023v.083h.024c.145 0 .3.024.3.241v1.983c0 .217-.155.241-.3.241h-.024v.085c.144-.013.36-.025.541-.025.18 0 .397.012.577.025m.024.023c-.192 0-.42-.012-.6-.012-.193 0-.41.012-.566.012H14V31.616h.06c.144 0 .264-.012.276-.205v-1.995c-.012-.18-.132-.192-.276-.192H14v-.157h.012c.157 0 .373.024.565.024.192 0 .42-.024.601-.024h.012v.157h-.072c-.132 0-.264.012-.264.204v1.983c0 .193.132.205.264.205h.072V31.76h-.012zM17.787 31.003l.012-.012v-1.43c0-.314-.216-.361-.337-.361h-.083v-.109c.18 0 .36.012.54.012.157 0 .313-.012.458-.012v.109h-.048c-.169 0-.337.036-.337.493v1.73c0 .133 0 .265.012.385h-.145L15.9 29.62v1.563c0 .337.073.445.362.445h.072v.12c-.168 0-.337-.011-.493-.011-.169 0-.349.011-.517.011v-.12h.048c.264 0 .349-.168.349-.48v-1.6c0-.216-.18-.337-.349-.337h-.048v-.12c.144 0 .288.013.433.013.12 0 .228-.013.336-.013l1.695 1.912z" fill="#FFF"/><path d="M17.86 31.784h.132c-.024-.108-.024-.24-.024-.36v-1.731c0-.457.192-.505.36-.505h.037v-.084c-.145 0-.301.023-.458.023-.168 0-.336-.023-.505-.023v.083h.06c.12 0 .35.049.35.373v1.443h-.013l-.012.012-1.695-1.911c-.108 0-.216.023-.336.023-.145 0-.29-.023-.421-.023v.083h.036c.18 0 .36.133.36.361v1.6c0 .3-.084.504-.36.504h-.036v.072c.168 0 .336-.012.504-.012.157 0 .314.012.47.012v-.072h-.048c-.3 0-.373-.132-.373-.47v-1.61l1.971 2.212zm.144.037h-.157l-1.924-2.153v1.515c0 .337.049.433.337.433h.084V31.76h-.024c-.156 0-.324-.012-.48-.012-.17 0-.35.012-.517.012h-.025V31.616H15.371c.252 0 .324-.169.324-.469v-1.599a.323.323 0 00-.324-.325h-.073v-.144h.025c.144 0 .288.012.432.012.109 0 .229-.012.349-.012l1.671 1.888V29.56c0-.3-.204-.337-.313-.337h-.095v-.144h.012c.18 0 .36.012.528.012.157 0 .313-.012.47-.012h.024V29.223H18.328c-.156 0-.324.013-.324.47v1.73c0 .133 0 .265.024.374v.023h-.024zM18.953 29.284c-.288 0-.3.06-.36.349h-.108c.012-.109.036-.217.048-.326.012-.107.024-.216.024-.324h.084c.036.108.132.108.228.108h1.972c.097 0 .193 0 .205-.12l.084.012c-.012.108-.025.204-.036.313-.012.108-.012.205-.012.312l-.109.036c-.012-.132-.036-.36-.288-.36h-.625v2.02c0 .3.132.324.324.324h.073v.12c-.157 0-.421-.011-.626-.011-.228 0-.492.011-.649.011v-.12h.072c.217 0 .325-.012.325-.313v-2.031h-.626z" fill="#FFF"/><path d="M20.457 31.76c-.157 0-.422-.012-.626-.012-.228 0-.493.012-.637.012h-.024V31.616h.096c.204 0 .29-.012.29-.3v-2.02h-.603v-.037h.638v2.056c0 .3-.12.337-.325.337h-.06v.072c.144 0 .409-.012.625-.012.204 0 .457.012.601.012v-.072h-.048c-.192 0-.336-.048-.336-.349V29.26h.637c.264 0 .288.229.3.361l.084-.024c0-.096 0-.204.013-.3 0-.097.024-.193.036-.289l-.06-.012c-.012.108-.12.108-.217.108h-1.984c-.096 0-.192 0-.228-.108h-.06c0 .108-.012.204-.024.312-.012.109-.024.205-.036.3h.072c.06-.264.084-.348.372-.348v.037c-.276.011-.276.047-.336.337v.011h-.156l.012-.024c.012-.096.036-.204.036-.324a1.31 1.31 0 00.024-.313v-.024h.12l.012.012c.024.096.096.096.192.108h1.984c.097-.012.18-.012.18-.108v-.012h.025l.108.012v.024c-.024.096-.036.204-.048.3v.325h-.012l-.144.048v-.024c0-.144-.024-.348-.265-.348h-.601v2.008c0 .288.12.312.3.312h.085V31.76h-.012zM21.25 31.628h.06c.132 0 .276-.012.276-.217v-1.983c0-.204-.144-.228-.276-.228h-.06v-.109c.24 0 .637.013.95.013.325 0 .721-.013.974-.013 0 .169 0 .42.012.577l-.12.036c-.013-.252-.06-.444-.457-.444h-.53v.998h.446c.228 0 .276-.133.3-.337h.12c-.012.144-.012.3-.012.444 0 .145 0 .29.012.433l-.12.024c-.024-.228-.024-.372-.289-.372h-.457v.878c0 .252.217.252.457.252.457 0 .662-.036.77-.469l.108.037a4.868 4.868 0 00-.12.6c-.253 0-.685-.011-1.022-.011-.349 0-.806.011-1.022.011v-.12z" fill="#FFF"/><path d="M23.27 31.724c.036-.18.084-.373.132-.565l-.084-.024c-.108.42-.325.47-.782.457-.24 0-.48 0-.48-.264v-.902h.48c.265 0 .29.156.313.372l.072-.011v-.422-.432h-.072c-.024.204-.084.336-.324.336h-.47v-1.033h.554c.396 0 .456.204.468.444l.084-.023c0-.109-.012-.241-.012-.373 0-.06 0-.12.012-.18-.264 0-.648.023-.961.023-.313 0-.698-.023-.926-.023v.083h.036c.132 0 .3.024.3.241v1.983c0 .217-.168.241-.3.241h-.036v.072c.216 0 .661-.012.998-.012.324 0 .757.012.998.012m.024.036c-.253 0-.685-.012-1.022-.012-.349 0-.806.012-1.022.012h-.012V31.616h.072c.133 0 .265-.012.265-.205v-1.995c0-.18-.132-.192-.265-.192h-.072v-.145h.012c.24 0 .625.012.95.012.325 0 .71-.012.974-.012h.012V29.284c0 .132 0 .276.012.384v.012l-.012.013-.132.036v-.025c-.025-.252-.06-.42-.445-.432h-.517v.961h.433c.216 0 .264-.107.288-.312v-.012H22.957v.012c0 .144-.012.301-.012.445 0 .144.012.289.012.433v.012h-.012l-.132.036v-.024c-.024-.229-.036-.361-.288-.361h-.433v.866c0 .24.204.228.444.24.457-.012.65-.036.758-.456v-.013h.024l.12.024v.025c-.06.203-.096.396-.132.6v.013h-.012zM24.424 30.378h.18c.385 0 .59-.145.59-.59 0-.348-.217-.564-.553-.564-.12 0-.168.012-.217.023v1.13zm-.493-.89c0-.277-.156-.288-.264-.288h-.072v-.109c.12 0 .36.013.589.013.228 0 .408-.013.613-.013.481 0 .902.132.902.674 0 .336-.229.553-.53.661l.65.974c.108.168.192.216.373.228v.12c-.12 0-.253-.011-.373-.011s-.24.011-.36.011c-.29-.384-.542-.793-.794-1.238h-.241v.818c0 .3.133.3.3.3h.073v.12c-.217 0-.433-.011-.65-.011-.18 0-.36.011-.552.011v-.12h.072c.132 0 .264-.06.264-.204v-1.936z" fill="#FFF"/><path d="M24.604 30.365c.373-.011.565-.143.578-.576-.013-.337-.217-.542-.542-.542-.108 0-.156 0-.204.013v1.105h.168zm-.18.025H24.4v-1.166h.012c.06 0 .108-.013.228-.013.337 0 .565.23.565.578 0 .444-.216.601-.6.601h-.181zm0 .108h.253l.012.012c.24.433.493.841.77 1.227.12 0 .24-.025.36-.025s.24.012.36.012v-.072c-.18-.024-.264-.084-.372-.24l-.661-.986.023-.012c.29-.12.518-.313.518-.65 0-.528-.409-.65-.89-.66-.205 0-.385.023-.613.023-.229 0-.445-.024-.577-.024v.084h.06c.12 0 .276.024.276.313v1.924c0 .156-.132.228-.276.228h-.06v.085c.18 0 .36-.025.54-.025.205 0 .422.025.638.025v-.085h-.06c-.168 0-.325-.024-.325-.325v-.83h.024zm1.767 1.262c-.132 0-.252-.012-.372-.012s-.24.012-.373.012c-.288-.384-.54-.793-.781-1.226h-.229v.794c0 .288.12.288.289.288h.096V31.76h-.024c-.217 0-.433-.012-.65-.012-.18 0-.36.012-.552.012h-.012V31.616H23.667c.132 0 .252-.06.252-.192v-1.936c-.012-.264-.132-.264-.252-.264h-.084v-.145h.012c.12 0 .36.012.589.012.228 0 .408-.012.613-.012.481 0 .926.132.926.686 0 .336-.229.553-.53.673l.638.962c.108.156.18.192.36.216h.012V31.761h-.012zM28.776 31.003l.012-.012v-1.43c0-.314-.228-.361-.336-.361h-.084v-.109c.18 0 .36.012.529.012.156 0 .313-.012.469-.012v.109h-.048c-.169 0-.337.036-.337.493v1.73c0 .133 0 .265.012.385h-.144l-1.96-2.188v1.563c0 .337.073.445.36.445h.073v.12c-.168 0-.337-.011-.493-.011-.18 0-.348.011-.517.011v-.12h.048c.265 0 .349-.168.349-.48v-1.6c0-.216-.18-.337-.349-.337h-.048v-.12c.144 0 .288.013.433.013.108 0 .229-.013.337-.013l1.694 1.912z" fill="#FFF"/><path d="M28.849 31.784h.132c-.024-.108-.024-.24-.024-.36v-1.731c0-.457.192-.505.36-.505h.037v-.084c-.157 0-.301.023-.457.023-.169 0-.337-.023-.518-.023v.083h.073c.12 0 .348.049.348.373l-.012 1.443-.012.012-1.695-1.911c-.108 0-.228.023-.336.023-.145 0-.289-.023-.421-.023v.083h.036c.18 0 .36.133.36.361v1.6c0 .312-.084.504-.36.504h-.036v.072c.168 0 .336-.012.493-.012.168 0 .325.012.48.012v-.072h-.047c-.3 0-.373-.132-.373-.47v-1.61l1.972 2.212zm.144.037h-.156l-1.924-2.153v1.515c0 .337.048.433.336.433h.085V31.76h-.024c-.157 0-.325-.012-.482-.012-.18 0-.348.012-.516.012h-.025V31.616H26.36c.252 0 .324-.169.324-.469v-1.599a.322.322 0 00-.324-.325h-.073V29.08h.025c.144 0 .288.012.433.012.108 0 .216-.012.348-.012l1.672 1.888V29.56c0-.3-.205-.337-.313-.337h-.096v-.144h.012c.18 0 .36.012.529.012.156 0 .312-.012.468-.012h.025V29.223H29.317c-.156 0-.324.013-.324.47v1.73c0 .133 0 .265.024.374v.023h-.024zM30.532 29.512l-.36 1.082h.709l-.349-1.082zm-.553 1.696c-.036.12-.084.228-.084.288 0 .12.168.132.288.132h.048v.12c-.156-.011-.312-.011-.469-.011-.132 0-.276 0-.408.011v-.12h.024a.332.332 0 00.324-.24l.614-1.744c.048-.144.12-.337.144-.48.12-.037.276-.109.349-.157.012-.012.012-.012.023-.012.012 0 .025 0 .025.012.012.037.024.06.035.097l.698 1.995c.048.132.096.265.144.385.048.108.12.144.253.144h.024v.12c-.169-.011-.348-.011-.529-.011-.18 0-.373 0-.565.011v-.12h.036c.084 0 .24-.012.24-.108 0-.048-.036-.144-.084-.276l-.144-.433h-.866l-.12.397z" fill="#FFF"/><path d="M30.195 30.582h.674l-.337-1.022-.337 1.022zm-.048.024l.373-1.105h.012v.011-.011h.012l.36 1.105h-.757zm.781 1.118c.193 0 .374-.012.554-.012.18 0 .348.012.517.012v-.072h-.012c-.133 0-.217-.048-.265-.169-.048-.107-.096-.252-.144-.384l-.697-1.996c-.012-.024-.024-.06-.037-.084v-.012h-.012c-.011 0-.011.012-.023.012-.073.048-.229.12-.337.144-.025.144-.096.337-.144.481l-.602 1.743c-.06.169-.192.265-.348.265h-.013v.072c.133 0 .265-.012.397-.012.145 0 .301.012.445.012v-.072h-.024c-.12 0-.3-.024-.3-.156 0-.073.048-.169.084-.301l.012.012-.012-.012.12-.408h.89l.156.456c.036.12.072.216.072.276 0 .121-.168.133-.252.133h-.024v.072zm1.083.036c-.169 0-.349-.012-.53-.012-.18 0-.372.012-.564.012h-.025V31.616h.061c.096 0 .216-.024.216-.096.012-.036-.024-.144-.072-.265l-.144-.433h-.842l-.108.386c-.048.132-.084.228-.084.288 0 .096.144.12.264.12h.06V31.76h-.024c-.144 0-.3-.012-.457-.012-.132 0-.264.012-.408.012h-.013V31.616h.037a.318.318 0 00.312-.24l.613-1.743c.048-.145.12-.326.144-.482.12-.036.277-.12.35-.168h.035c.012 0 .036 0 .048.025.012.023.025.06.037.096l.697 1.983c.048.132.084.277.132.385.048.108.12.144.24.144h.037v.145h-.012zM32.179 29.284c-.288 0-.3.06-.36.349h-.109c.012-.109.036-.217.048-.326.012-.107.012-.216.012-.324h.096c.037.108.133.108.23.108h1.97c.097 0 .193 0 .205-.12l.084.012-.036.313c-.012.108-.012.205-.012.312l-.108.036c-.012-.132-.036-.36-.288-.36h-.626v2.02c0 .3.133.324.313.324h.084v.12c-.156 0-.42-.011-.625-.011-.228 0-.493.011-.65.011v-.12h.073c.216 0 .325-.012.325-.313v-2.031h-.626z" fill="#FFF"/><path d="M33.682 31.76c-.156 0-.42-.012-.625-.012-.228 0-.493.012-.65.012h-.012V31.616H32.48c.216 0 .3-.012.3-.3v-2.02h-.6v-.037h.637v2.056c0 .3-.12.337-.337.337h-.048v.072c.144 0 .409-.012.625-.012.205 0 .457.012.601.012v-.072h-.048c-.192 0-.337-.048-.337-.349V29.26h.638c.264 0 .288.217.3.361l.084-.024v-.3c.013-.097.036-.193.048-.289l-.06-.012c-.024.108-.12.108-.216.108h-1.984c-.096 0-.192 0-.228-.108h-.06c0 .108-.013.204-.025.312a2.222 2.222 0 01-.048.3h.085c.048-.264.084-.348.372-.348v.037c-.288.011-.276.047-.336.337v.011h-.157l.013-.024c.012-.108.024-.204.036-.324.024-.097.024-.205.024-.313v-.024h.12l.012.012c.024.096.096.096.192.096l.013.012h1.97c.098-.012.18-.012.18-.108v-.012h.026l.108.012v.024c-.024.096-.036.204-.048.3-.013.108-.013.205-.013.313v.012l-.144.048v-.024c-.011-.144-.024-.348-.264-.348h-.6v2.008c0 .288.107.312.3.312h.084V31.76h-.013zM34.5 31.628h.047c.145 0 .29-.012.29-.217v-1.983c0-.204-.145-.228-.29-.228H34.5v-.109c.144 0 .373.013.566.013.192 0 .408-.013.589-.013v.109h-.049c-.144 0-.288.024-.288.228v1.983c0 .205.144.217.288.217h.049v.12c-.181 0-.41-.011-.602-.011-.18 0-.409.011-.553.011v-.12z" fill="#FFF"/><path d="M35.641 31.724v-.072h-.036c-.132 0-.3-.024-.3-.24v-1.984c0-.217.168-.24.3-.24h.036v-.084c-.18 0-.396.023-.576.023-.181 0-.397-.023-.554-.023v.083h.036c.132 0 .3.024.3.241v1.983c0 .217-.168.241-.3.241h-.036v.072c.145 0 .362-.012.542-.012.192 0 .408.012.588.012m.013.036c-.18 0-.41-.012-.602-.012-.18 0-.409.012-.552.012h-.024V31.616H34.547c.145 0 .265-.012.265-.205v-1.995c0-.18-.12-.192-.265-.192h-.071v-.145h.024c.143 0 .373.012.565.012.18 0 .408-.012.589-.012h.024V29.224H35.605c-.143 0-.264.012-.264.204v1.983c0 .193.12.205.264.205h.073V31.76h-.024zM37.229 31.64c.745 0 .865-.65.865-1.214 0-.553-.289-1.226-.925-1.226-.662 0-.866.6-.866 1.106 0 .685.313 1.335.926 1.335m-.049-2.61c.806 0 1.455.506 1.455 1.31 0 .878-.625 1.467-1.442 1.467-.806 0-1.42-.553-1.42-1.37 0-.794.614-1.407 1.407-1.407z" fill="#FFF"/><path d="M36.29 30.305c0-.516.194-1.118.879-1.118.649 0 .95.686.95 1.24 0 .564-.133 1.225-.89 1.225V31.616c.733 0 .853-.625.853-1.19 0-.553-.3-1.203-.913-1.215-.65.012-.842.59-.842 1.094 0 .674.3 1.31.902 1.31v.037c-.626 0-.939-.661-.939-1.347m-.54.133c.011-.805.625-1.42 1.43-1.42v.037a1.37 1.37 0 00-1.394 1.383c0 .806.613 1.346 1.407 1.346.806 0 1.419-.576 1.43-1.442 0-.794-.637-1.287-1.443-1.287V29.02c.819 0 1.467.505 1.467 1.323 0 .89-.637 1.479-1.454 1.479-.818 0-1.432-.553-1.443-1.383zM41.196 31.003l.012-.012v-1.43c0-.314-.217-.361-.337-.361h-.083v-.109c.18 0 .36.012.54.012.157 0 .313-.012.47-.012v.109h-.06c-.169 0-.337.036-.337.493v1.73c0 .133 0 .265.024.385h-.144l-1.96-2.188v1.563c0 .337.06.445.349.445h.072v.12c-.168 0-.337-.011-.494-.011-.167 0-.348.011-.516.011v-.12h.048c.265 0 .348-.168.348-.48v-1.6c0-.216-.18-.337-.348-.337h-.048v-.12c.144 0 .288.013.433.013.12 0 .228-.013.336-.013l1.695 1.912z" fill="#FFF"/><path d="M41.268 31.784h.133c-.024-.108-.024-.24-.024-.36v-1.731c0-.457.192-.505.36-.505h.036v-.084c-.144 0-.3.023-.456.023-.169 0-.337-.023-.506-.023v.083h.06c.12 0 .35.049.35.373v1.443h-.013l-.012.012-1.695-1.911c-.108 0-.216.023-.337.023-.144 0-.276-.023-.42-.023v.083h.036c.18 0 .36.133.36.361v1.6c0 .3-.084.504-.36.504h-.036v.072c.168 0 .337-.012.504-.012.157 0 .313.012.47.012v-.072h-.048c-.301 0-.373-.132-.373-.47v-1.61l1.971 2.212zm.145.037h-.157l-1.923-2.153v1.515c0 .337.047.433.336.433h.084V31.76h-.011c-.169 0-.337-.012-.494-.012-.168 0-.348.012-.517.012h-.024V31.616H38.78c.252 0 .324-.169.324-.469v-1.599a.322.322 0 00-.324-.325h-.073v-.144h.024c.145 0 .288.012.433.012.109 0 .229-.012.35-.012l1.67 1.888V29.56c0-.3-.204-.337-.313-.337h-.096v-.144h.012c.18 0 .361.012.53.012.156 0 .312-.012.48-.012h.012V29.223h-.072c-.156 0-.324.013-.324.47v1.73c0 .133 0 .265.024.374v.023h-.024zM42.964 29.512h-.012l-.35 1.082h.71l-.348-1.082zm-.565 1.696c-.036.12-.085.228-.085.288 0 .12.169.132.288.132h.049v.12c-.156-.011-.312-.011-.47-.011-.132 0-.264 0-.408.011v-.12h.024a.357.357 0 00.337-.24l.601-1.744c.048-.144.12-.337.144-.48.12-.037.277-.109.35-.157.011-.012.011-.012.023-.012s.024 0 .024.012c.012.037.024.06.036.097l.71 1.995c.035.132.084.265.131.385.049.108.133.144.253.144h.024v.12c-.168-.011-.337-.011-.529-.011-.18 0-.373 0-.565.011v-.12h.036c.096 0 .24-.012.24-.108 0-.048-.035-.144-.071-.276l-.156-.433h-.854l-.132.397z" fill="#FFF"/><path d="M42.615 30.582h.673l-.336-1.022-.337 1.022zm-.036.024l.36-1.105h.025v.011h-.012.012v-.011h.012l.36 1.105h-.757zm.77 1.118c.192 0 .372-.012.552-.012.181 0 .35.012.517.012v-.072h-.011c-.133 0-.217-.048-.265-.169-.048-.107-.096-.252-.145-.384l-.697-1.996c-.012-.024-.024-.06-.036-.084v-.012h-.011s-.013.012-.024.012c-.073.048-.217.12-.337.144-.024.144-.096.337-.145.481l-.601 1.743c-.06.169-.192.265-.348.265h-.013v.072c.132 0 .265-.012.397-.012.157 0 .3.012.445.012v-.072h-.024c-.12 0-.3-.024-.3-.156 0-.073.047-.169.084-.301l.012.012-.012-.012.12-.408h.89l.156.456c.036.12.072.216.072.276 0 .121-.168.133-.253.133h-.023v.072zm1.082.036c-.169 0-.349-.012-.53-.012-.18 0-.373.012-.565.012h-.011V31.616h.047c.096 0 .229-.024.229-.096 0-.036-.036-.144-.084-.265l-.145-.433h-.83l-.12.386c-.048.132-.083.228-.083.288 0 .096.144.12.264.12h.06V31.76h-.012c-.156 0-.312-.012-.47-.012-.131 0-.264.012-.408.012h-.012V31.616H41.797a.316.316 0 00.312-.24l.614-1.743c.048-.145.12-.326.145-.482.12-.036.276-.12.348-.168h.036c.012 0 .036 0 .048.025.012.023.025.06.036.096l.697 1.983c.049.132.084.277.145.385.036.108.108.144.228.144h.037V31.761h-.012zM45.393 31.376c0 .156.107.192.228.216.156.012.324.012.504-.012a.566.566 0 00.362-.204.934.934 0 00.12-.277h.108c-.048.216-.097.433-.144.65-.337 0-.674-.012-.998-.012-.336 0-.673.011-1.01.011v-.12h.048c.144 0 .289-.012.289-.252v-1.948c0-.204-.145-.228-.29-.228h-.047v-.109c.204 0 .397.013.601.013.192 0 .385-.013.577-.013v.109h-.096c-.145 0-.252.011-.252.203v1.973z" fill="#FFF"/><path d="M46.558 31.724c.049-.204.097-.397.133-.613h-.073a.923.923 0 01-.12.276.549.549 0 01-.373.205c-.107.012-.203.024-.3.024-.072 0-.144-.012-.204-.012-.132-.012-.252-.072-.252-.228v-1.96c0-.216.144-.229.276-.229h.083v-.083c-.192 0-.372.023-.564.023-.192 0-.385-.023-.589-.023v.083h.036c.144 0 .312.024.312.241v1.948c0 .252-.168.276-.312.276h-.036v.072c.336 0 .662-.012.997-.012.325 0 .662.012.986.012m.013.036c-.337 0-.662-.012-.998-.012-.336 0-.673.012-1.01.012h-.013V31.616h.061c.144 0 .276-.012.276-.24v-1.948c0-.192-.132-.204-.276-.204h-.06v-.145h.012c.204 0 .397.012.601.012.192 0 .385-.012.577-.012h.024V29.224h-.12c-.145 0-.241 0-.241.192v1.96c0 .144.096.18.217.192.06.012.132.012.205.012.096 0 .192 0 .288-.012a.572.572 0 00.36-.204c.06-.084.084-.181.109-.265l.011-.012H46.74l-.012.012c-.036.229-.096.433-.144.65v.011h-.012z" fill="#FFF"/></g></svg>