<svg width="60" height="40" xmlns="http://www.w3.org/2000/svg"><g fill="none" fill-rule="evenodd"><path fill="#000" d="M0 0h60v40H0z"/><g fill-rule="nonzero"><path d="M49.533 21.399a2.793 2.793 0 01-3.621 2.087l-.62 1.852a4.748 4.748 0 006.155-3.548l-1.914-.391zm-5.878 2.994l1.293-1.463a2.781 2.781 0 01-.941-2.091c0-.832.364-1.578.941-2.089l-1.294-1.463a4.734 4.734 0 00-1.6 3.552 4.73 4.73 0 001.601 3.554zm2.258-6.201a2.792 2.792 0 013.62 2.091l1.914-.39a4.745 4.745 0 00-6.152-3.553l.618 1.852zm-5.729-4.232v9.158l1.589.659-.752 1.806-1.572-.653a1.786 1.786 0 01-.774-.65c-.174-.27-.304-.639-.304-1.136v-9.183l1.813-.001zm-7.24 2.138a4.743 4.743 0 00-4.046 7.331l8.59-3.672a4.742 4.742 0 00-4.544-3.659zm-2.846 5.036a2.792 2.792 0 014.907-2.095l-4.907 2.095zm4.726 1.7a2.772 2.772 0 01-3.437.366l-1.038 1.654a4.703 4.703 0 002.452.729 4.72 4.72 0 003.385-1.35l-1.362-1.399z" fill="#FFF"/><path d="M21.251 20.69a4.573 4.573 0 01-5.931 3.42l-1.016 3.035a7.774 7.774 0 0010.082-5.812l-3.135-.643z" fill="#ED412F"/><path d="M11.621 25.593l2.12-2.397a4.562 4.562 0 01-1.543-3.425c0-1.363.597-2.586 1.543-3.423l-2.121-2.396A7.754 7.754 0 009 19.772a7.75 7.75 0 002.621 5.821" fill="#1AA5DF"/><path d="M15.32 15.434a4.577 4.577 0 015.932 3.424l3.135-.639a7.774 7.774 0 00-10.081-5.82l1.014 3.035z" fill="#FFCA32"/></g></g></svg>