<svg width="60" height="40" xmlns="http://www.w3.org/2000/svg"><g fill="none" fill-rule="evenodd"><path fill="#FFF" d="M0 0h60v40H0z"/><path d="M55 0H5C2.25 0 0 2.25 0 5v30c0 2.75 2.25 5 5 5h50c2.75 0 5-2.25 5-5V5c0-2.75-2.25-5-5-5zm0 1c2.206 0 4 1.794 4 4v30c0 2.206-1.794 4-4 4H5c-2.206 0-4-1.794-4-4V5c0-2.206 1.794-4 4-4h50z"/><path d="M37.917 38.993c-5.175 0-10.351-.001-15.526.003-.201 0-.293-.03-.345-.264-.241-1.091-.514-2.176-.781-3.261-.233-.944-.478-1.885-.708-2.829-.208-.853-.4-1.71-.607-2.564-.186-.771-.386-1.539-.573-2.309-.187-.771-.365-1.544-.55-2.315-.16-.665-.325-1.328-.487-1.992-.189-.775-.37-1.553-.568-2.325-.165-.641-.293-1.282-.28-1.949a5.067 5.067 0 011.115-3.126c.818-1.039 1.887-1.695 3.152-2.03.92-.244 1.85-.446 2.775-.671.967-.235 1.933-.479 2.901-.71.967-.231 1.937-.446 2.904-.677.967-.231 1.93-.477 2.897-.709.861-.207 1.725-.401 2.587-.606.793-.189 1.583-.391 2.376-.579.968-.23 1.938-.449 2.906-.68.686-.164 1.366-.355 2.056-.505a6.156 6.156 0 012.094-.103 5.783 5.783 0 012.66 1.015 5.598 5.598 0 011.976 2.454c.291.696.409 1.439.594 2.164.201.789.389 1.582.579 2.373.184.77.36 1.542.545 2.311.188.784.385 1.567.574 2.351.187.778.367 1.558.553 2.337.162.68.328 1.36.493 2.039l.424 1.742c.151.623.305 1.245.453 1.868.16.672.313 1.346.474 2.018.188.786.387 1.57.572 2.356.344 1.46.266 2.871-.515 4.194-.191.323-.452.586-.734.828a.633.633 0 01-.435.156c-5.185-.006-10.368-.005-15.551-.005z" fill="#FF7900" fill-rule="nonzero"/><g fill="#FFF" fill-rule="nonzero"><path d="M21.888 27.12c0-1.426.003-2.852-.004-4.279-.001-.177.041-.241.229-.236.538.012 1.077.011 1.615.001.174-.003.224.05.223.222-.007.997.001 1.994-.007 2.991-.002.189.046.25.243.248.968-.01 1.936-.009 2.903-.001.175.001.221-.05.22-.221-.008-1.004 0-2.008-.007-3.012-.001-.166.036-.23.215-.227a34.36 34.36 0 001.637-.001c.209-.006.213.095.213.252-.003 2.496-.003 4.992-.003 7.488 0 .378-.006.757.003 1.135.004.146-.048.187-.188.186a72.458 72.458 0 00-1.681 0c-.151.002-.197-.045-.197-.198.006-1.121-.001-2.241.007-3.362.001-.192-.053-.247-.246-.245-.96.01-1.921.008-2.881.001-.18-.001-.239.053-.238.236.007 1.113-.001 2.227.007 3.34.001.187-.057.232-.234.229a43.474 43.474 0 00-1.615-.001c-.17.003-.218-.051-.218-.223.007-1.441.004-2.882.004-4.323zM35.775 28.948c0 .414.003.764-.001 1.113-.001.123.031.188.171.189.334.002.669.028 1.002.021.543-.011.977-.232 1.213-.74.32-.686.334-1.395.051-2.092-.256-.629-.75-.906-1.356-.816-.571.085-.981.544-1.058 1.19-.048.4-.006.8-.022 1.135zm-.211-2.879c.526-.732 1.232-1.026 2.051-1.058 1.084-.043 2.026.575 2.489 1.59.382.837.419 1.711.29 2.603-.092.639-.32 1.221-.772 1.696-.55.577-1.255.815-2.026.895-.479.05-.96.023-1.439.028-.418.004-.379-.042-.38.369-.001.64-.004 1.281.003 1.921.002.151-.042.202-.197.199a48.365 48.365 0 00-1.616.001c-.161.003-.212-.038-.209-.205.01-.648.004-1.295.004-1.943 0-.345 0-.342-.34-.363a3.486 3.486 0 01-1.458-.398c-.846-.456-1.262-1.203-1.432-2.12-.075-.404-.073-.81-.073-1.218 0-.91.002-1.82-.003-2.729-.001-.147.035-.204.194-.201.553.009 1.106.01 1.659 0 .166-.003.209.049.208.21-.006 1.063-.015 2.125.002 3.188.008.516.13 1.009.524 1.389.145.14.32.226.51.281.134.039.214.02.213-.16-.007-1.498.013-2.997-.066-4.494l-.001-.044c.002-.403-.028-.334.336-.337.408-.003.815.006 1.223-.004.172-.004.226.054.229.225.002.207.044.416.077.679zM44.08 27.652c.342 0 .683-.002 1.025.001.102.001.168-.016.158-.142-.072-.937-.757-1.353-1.528-1.106-.522.167-.741.617-.847 1.125-.027.129.061.122.145.122h1.047zm.914 1.4c-.633 0-1.266.002-1.899-.002-.155-.001-.226.017-.166.208.187.59.641.834 1.191.95.758.159 1.503.033 2.237-.157.14-.036.185-.008.209.119.066.349.132.698.206 1.045.033.154-.047.206-.17.247a6.81 6.81 0 01-2.293.333c-.702-.013-1.368-.151-1.973-.524-.736-.455-1.151-1.129-1.306-1.966-.166-.9-.1-1.78.328-2.606.559-1.077 1.455-1.639 2.665-1.705.613-.034 1.203.047 1.74.364.611.361.991.906 1.197 1.572.2.646.252 1.307.148 1.98-.024.155-.116.141-.217.141-.631.002-1.264.001-1.897.001zM47.876 28.86c0-.589.005-1.178-.001-1.768a71.017 71.017 0 00-.039-1.787c-.006-.151.043-.183.181-.18.458.007.917.011 1.375-.002.158-.004.203.058.207.195.007.261.017.523.027.784.002.049-.007.117.052.13.067.015.071-.057.091-.1.273-.569.703-.952 1.322-1.107.229-.057.463-.033.695-.029.122.002.109.096.109.173.001.524-.003 1.047.004 1.571.002.15-.049.193-.193.166a1.704 1.704 0 00-1.045.105c-.568.255-.742.74-.744 1.315-.003 1.033-.007 2.066.004 3.099.002.199-.06.244-.247.24a40.284 40.284 0 00-1.593-.001c-.162.003-.211-.045-.21-.209.009-.864.005-1.73.005-2.595z"/></g><path d="M31.488 24.347c-.669.034-1.096-.449-1.089-1.028.008-.603.446-1.023 1.085-1.024.668-.001 1.104.413 1.102 1.048-.001.597-.446 1.004-1.098 1.004z" fill="#FFE701" fill-rule="nonzero"/></g></svg>