<svg width="60" height="40" xmlns="http://www.w3.org/2000/svg"><g fill="none" fill-rule="evenodd"><path fill="#FFF" d="M0 0h60v40H0z"/><g fill-rule="nonzero"><path d="M25.12 30.96L5 30.967v-.048c0-.027.032-.199.071-.384.039-.184.1-.478.135-.652l.134-.657.142-.694.138-.682c.036-.181.097-.477.135-.657a152.359 152.359 0 00.281-1.376c.035-.174.091-.443.124-.597.033-.154.075-.362.094-.463.018-.1.078-.396.133-.658.055-.262.115-.557.134-.657.019-.1.08-.396.134-.658.055-.261.115-.557.134-.657.019-.1.079-.396.135-.657a60.196 60.196 0 00.24-1.181l.174-.84.207-1.011.157-.779.11-.536.133-.645.146-.706.136-.67.133-.645.146-.706c.042-.208.113-.525.157-.706.044-.181.106-.4.139-.487.032-.087.121-.276.197-.419l.139-.261.126-.165c.069-.091.193-.234.275-.319a4.25 4.25 0 01.587-.496c.067-.046.198-.127.292-.179.094-.053.225-.121.292-.153a5.676 5.676 0 011.289-.409c.173-.034.447-.08.609-.102l.294-.039 20.132-.008L53.166 10v.048c0 .027-.032.199-.072.384l-.147.701-.133.645-.136.658-.145.706-.134.658c-.036.181-.097.477-.135.657l-.13.633-.136.67-.146.706-.134.645-.136.67c-.041.201-.106.519-.146.706-.04.187-.098.472-.131.633l-.136.67-.136.67-.131.633a199.51 199.51 0 00-.283 1.375l-.132.645-.145.706-.135.657-.137.67-.145.706-.132.645-.134.658c-.041.201-.107.517-.148.704l-.073.338-.087.234c-.048.129-.12.3-.16.38a4.074 4.074 0 01-.368.58 5.805 5.805 0 01-.282.302l-.205.206-.198.14a4.981 4.981 0 01-.26.175 12.18 12.18 0 01-.291.149 5.58 5.58 0 01-.394.178 6.378 6.378 0 01-1.021.279 8.03 8.03 0 01-.584.092l-.348.041-20.12.007z" fill="#B7232C"/><g fill="#F5F5F5"><path d="M16.151 16.585l.077-.33H14.76l-.032.224c-.008.063-.038.239-.063.392l-.011.062-.097.547a83.043 83.043 0 00-.245 1.48l-.025.166-1.655.034-.739-.018a86.8 86.8 0 01-.605-.017l.012-.069c.02-.112.056-.308.082-.434.026-.128.075-.381.109-.562.034-.183.073-.41.087-.506.012-.091.039-.243.059-.338.021-.098.061-.305.087-.459.024-.139.05-.268.057-.293l.081-.209h-1.48l-.057.315a16.01 16.01 0 00-.062.376l-.099.619-.269 1.681c-.041.254-.107.647-.148.874-.042.228-.101.55-.133.717l-.134.706c-.042.222-.103.532-.136.692-.033.163-.07.35-.082.418-.012.066-.049.258-.083.426-.024.12-.065.329-.065.372v.164h1.415l.294-1.784.138-.815c.034-.2.089-.512.121-.691l.047-.252h2.988l-.005.027c-.015.078-.061.316-.1.531l-.148.804-.134.718c-.032.167-.098.519-.145.78-.026.146-.088.488-.088.527l.002.155h1.417l.044-.256c.015-.084.038-.237.053-.338.014-.1.047-.312.074-.472l.121-.706.146-.865.135-.803c.034-.194.093-.521.132-.729l.418-2.277c.038-.227.09-.488.112-.584zM17.541 20.384l.133-.694c.034-.181.1-.523.148-.763a5.52 5.52 0 01.097-.438l.118-.193-1.393.017-.059.423a34.11 34.11 0 01-.118.765l-.136.841a32.72 32.72 0 01-.133.764l-.133.706a171.095 171.095 0 01-.256 1.312 8.094 8.094 0 01-.06.279l-.057.212h1.297l.045-.118a.6.6 0 00.023-.169c0-.032.026-.235.072-.52l.148-.904.134-.804c.032-.193.091-.515.13-.716zM17.208 17.66l.369.013.255-.086.256-.241.138-.326.012-.492-.116-.192-.241-.165h-.402l-.299.122-.185.184-.138.304-.033.493.141.276zM21.754 19.936l-.021.883-.062.274a5.497 5.497 0 01-.142.497l-.075.221-.102.193a3.22 3.22 0 01-.183.304 1.223 1.223 0 01-.156.177c-.045.039-.121.1-.167.134l-.074.055-.378.129-.361.025-.25-.044-.236-.107-.156-.149-.044-.099a1.78 1.78 0 01-.078-.23l-.026-.114.021-.385.063-.329c.035-.181.097-.521.138-.757.041-.233.104-.577.139-.761l.055-.294.105-.087a2.08 2.08 0 01.252-.178l.105-.063.312-.1.42-.025.314.063.232.107.182.182.048.097c.027.052.068.165.088.242l.037.139zm1.201-.703l-.165-.329-.339-.366-.438-.229-.434-.104-.438-.029-.478.057-.397.104-.164.075c-.09.042-.227.116-.306.165l-.065.044c.013-.067.027-.15.028-.191l.004-.129h-1.129l-.095.599-.151.93-.268 1.595c-.04.234-.106.605-.146.827l-.267 1.448-.149.803a69.36 69.36 0 01-.23 1.169l-.05.209h1.291l.048-.12a.53.53 0 00.022-.153c0-.026.014-.154.037-.302l.241-1.526.074-.487.252.254.375.161.45.061.526-.035.565-.147.146-.067c.086-.039.232-.121.333-.187l.19-.128.159-.158a3.78 3.78 0 00.285-.324.892.892 0 00.135-.204c.01-.018.031-.05.052-.083.049-.071.132-.241.185-.366a8.27 8.27 0 00.203-.547l.098-.307.049-.253a8.11 8.11 0 00.079-.521l.028-.28-.035-.458-.111-.471zM26.882 19.707l-.038.347H25.73c-.465 0-.849-.002-1.054-.005l.01-.027c.034-.093.093-.233.131-.31l.064-.128.293-.291.138-.066c.09-.043.195-.083.233-.093.038-.01.177-.028.318-.036l.232-.015.343.043.232.106.058.062a.796.796 0 01.089.118l.024.046.041.249zm1.206.168l.001-.224-.002-.251-.078-.333-.077-.144a1.73 1.73 0 00-.15-.215 1.217 1.217 0 00-.184-.167 2.594 2.594 0 00-.222-.134l-.151-.075-.442-.105-.545-.052-.502.034-.607.119-.184.072a3.909 3.909 0 00-.356.171 2.738 2.738 0 00-.284.189 2.35 2.35 0 00-.671.837 7.718 7.718 0 00-.142.301 6.944 6.944 0 00-.116.312 5.61 5.61 0 00-.124.438 8.494 8.494 0 00-.099.5l-.04.266.004.753.037.158c.021.092.062.229.091.309.03.079.083.194.12.261.039.068.118.174.181.24.059.062.164.155.238.211.074.055.2.129.288.169l.166.073.2.048c.114.027.285.06.382.073.096.012.294.023.451.025l.274.003.274-.025c.149-.014.393-.041.542-.062.159-.022.417-.07.575-.104l.382-.084.027-.198c.008-.059.041-.234.073-.39l.06-.289-.013-.094-.112-.108-.169.082a3.67 3.67 0 01-.331.121l-.24.08-.512.103-.833.001-.126-.04a2.033 2.033 0 01-.246-.098l-.101-.05-.165-.148-.129-.218-.089-.312-.002-.572.068-.442.624-.029 2.809.019.064-.271c.023-.1.059-.302.079-.45l.034-.284zM31.413 19.259c.156.046.173.046.188.046.014 0 .14-.005.14-.181.001-.025.022-.158.058-.333.063-.312.063-.327.063-.34 0-.104-.091-.137-.266-.189a2.327 2.327 0 00-.318-.072l-.141-.018-.177.031a2.365 2.365 0 00-.309.081 1.712 1.712 0 00-.286.145 2.013 2.013 0 00-.27.216 2.323 2.323 0 00-.129.142c.024-.135.047-.257.054-.283l.062-.203H28.86v.182a6.742 6.742 0 01-.06.413l-.123.765c-.034.214-.094.587-.134.827-.04.24-.1.584-.134.764l-.134.706a167.714 167.714 0 01-.256 1.298c-.037.18-.037.205-.037.235v.125h1.281l.024-.336a8.06 8.06 0 01.064-.531c.027-.177.083-.53.125-.784.041-.253.117-.674.168-.937.056-.277.112-.521.126-.563a.724.724 0 00.042-.159c.004-.016.031-.088.078-.189.044-.096.13-.249.188-.336l.092-.143.283-.262.323-.155.513.003.124.035zM35.56 19.048c.017-.11.047-.29.067-.401.043-.241.037-.279-.009-.325-.029-.028-.041-.04-.286-.068a16.159 16.159 0 00-.674-.051l-.482-.026-.674.053-.508.108-.158.063a2.51 2.51 0 00-.5.276 3.836 3.836 0 00-.27.245l-.202.202-.104.152a4.22 4.22 0 00-.229.404l-.122.25-.089.256c-.05.144-.12.378-.155.522l-.066.273-.046.475.001.625.054.384.157.386.186.285.269.264.337.181.187.052c.111.031.262.064.345.077.084.012.275.022.425.024l.276.003.312-.037c.17-.02.397-.054.504-.074.108-.021.283-.062.387-.093.215-.059.242-.083.252-.093.028-.022.055-.045.108-.318.025-.127.056-.297.07-.378.029-.176.023-.215-.02-.266l-.042-.038h-.052a.175.175 0 00-.104.038 2.718 2.718 0 01-.24.099l-.215.081-.64.128-.549-.019-.281-.098-.214-.188-.145-.265-.073-.359v-.262l-.001-.243.092-.615.051-.171c.028-.095.061-.207.071-.247.01-.037.053-.145.093-.237.042-.097.118-.246.167-.333l.076-.138.208-.221.217-.139.157-.049c.083-.025.231-.059.323-.073l.157-.026.518.024.614.121.129.048c.152.057.152.057.179.057.114.001.124-.07.161-.305zM38.794 20.925l-.013.076a4.674 4.674 0 01-.222.814 2.6 2.6 0 00-.075.209 2.672 2.672 0 01-.076.135l-.081.136-.135.134a1.301 1.301 0 01-.127.117.714.714 0 00-.129.074l-.075.051-.362.114-.354.019-.111-.028a1.172 1.172 0 01-.212-.08l-.088-.045-.044-.053a.999.999 0 01-.097-.148l-.04-.075-.018-.42.036-.123c.021-.071.071-.2.111-.28l.068-.142.265-.263.27-.133.375-.089h1.134zm1.093-2.407l-.337-.178-.505-.115-.647-.048-.406.025a13.7 13.7 0 00-.705.062l-.278.034-.5.003-.049.238c-.016.076-.059.256-.097.4-.08.308-.085.338-.033.39l.041.042h.056c.012 0 .05 0 .265-.059a8.16 8.16 0 01.583-.121l.35-.061.63-.029.406.071.237.117.118.177-.001.146.001.162-.063.309-1.65.007-.319.084a3.45 3.45 0 00-.411.135c-.037.019-.073.034-.068.036-.031 0-.058 0-.274.135l-.208.133-.146.146a2.34 2.34 0 00-.244.286 2.41 2.41 0 00-.175.332l-.089.217-.076.447.002.47.07.371.08.157c.041.074.112.179.163.238l.082.096.322.203.198.061c.096.026.241.06.324.072l.155.024.696-.022.437-.113.134-.063a2.02 2.02 0 00.617-.451c-.01.099-.017.195-.017.254l-.001.277h1.14l.031-.801.063-.451c.035-.246.092-.611.125-.812.034-.2.094-.54.132-.753l.136-.743.067-.374.004-.61-.15-.337-.216-.216zM43.884 19.296l.095-.007.106-.067.002-.145c0-.028.023-.171.056-.331l.078-.378-.163-.065a4.862 4.862 0 00-.193-.064l-.122-.039-.477-.005-.422.145-.268.161-.268.275c.021-.11.046-.254.047-.294l.003-.182H41.33l-.125.006v.125a76.037 76.037 0 01-.172 1.119c-.04.246-.105.646-.146.888a46.938 46.938 0 01-.267 1.47l-.337 1.707h1.34l-.001-.432.062-.403c.034-.221.089-.572.124-.779.035-.207.077-.472.095-.585.018-.113.064-.356.104-.541a6 6 0 01.107-.436c.004-.013.045-.125.044-.159.004-.017.036-.096.091-.212l.088-.191.254-.337.13-.099c.073-.055.194-.13.265-.164l.113-.056.56.005.225.07zM44.912 20.425c.006-.025.033-.094.065-.164a7.3 7.3 0 01.146-.305c.038-.072.113-.192.164-.261.052-.07.144-.175.201-.229a1.54 1.54 0 01.202-.162l.085-.055.363-.126h.766l.215.059c.099.027.204.059.259.077-.012.066-.036.196-.058.325-.028.161-.083.467-.123.681-.039.215-.1.537-.134.718a9.477 9.477 0 01-.109.502l-.083.308a1.844 1.844 0 01-.228.481 1.15 1.15 0 01-.141.165 1.79 1.79 0 01-.199.152l-.12.079-.355.113-.323.021-.125-.022a1.164 1.164 0 01-.214-.065l-.103-.044-.166-.135-.128-.247-.062-.272.005-.617.074-.54.06-.194c.093-.293.065-.243.066-.243zm2.96-4.317l-.027.264c-.008.083-.048.356-.087.608l-.146.9-.075.455a5.84 5.84 0 00-.183-.049l-.252-.062-.655-.049-.555.053-.511.133-.482.237-.358.268-.147.158a3.784 3.784 0 00-.271.332l-.123.18-.132.275c-.077.16-.166.36-.201.455a5.236 5.236 0 00-.144.475l-.078.312-.073.778.06.635.032.108c.019.063.059.176.088.249l.051.129.224.305.238.191.146.071c.089.045.231.1.322.123.094.026.237.055.322.066.085.011.259.021.396.023l.242.003.23-.038c.114-.019.278-.051.354-.073a1.93 1.93 0 00.292-.117l.171-.093.269-.24.001-.002a6.124 6.124 0 00-.016.14l-.029.302h1.218l-.001-.438.073-.621c.04-.341.099-.794.131-1.007.032-.213.082-.519.11-.678l.113-.646c.033-.194.094-.534.134-.754l.276-1.498.138-.729c.041-.213.102-.514.134-.667.062-.3.062-.312.061-.342v-.125h-1.28z"/></g></g></g></svg>