<svg width="60" height="40" xmlns="http://www.w3.org/2000/svg"><g fill="none" fill-rule="evenodd"><path fill="#1C3763" d="M0 0h60v40H0z"/><g fill="#FFF"><path d="M28.984 17.731c-.227 0-.526.18-.668.395 0 0-1.518 2.603-1.66 2.866-.084.143-.168.047-.18 0l-.466-2.842c-.047-.227-.286-.418-.585-.418h-.943c-.227 0-.37.19-.31.405 0 0 .716 4.097.859 5.064.072.526-.012.622-.012.622l-.932 1.636c-.143.227-.06.406.168.406h1.087c.227 0 .525-.18.668-.406l4.216-7.13s.395-.61.024-.597h-1.266zM15.679 19.176c-.322.228-.764.347-1.338.347h-.262c-.227 0-.37-.18-.323-.406l.323-1.374a.539.539 0 01.502-.394h.346c.406 0 .716.06.92.203.214.131.31.346.31.633 0 .43-.156.753-.478.991m2.282-2.114a1.514 1.514 0 00-.575-.62 2.704 2.704 0 00-.919-.347A7.695 7.695 0 0015.213 16h-2.21a.535.535 0 00-.501.406l-1.493 6.473c-.047.227.096.406.322.406h1.052c.239 0 .466-.18.513-.406l.37-1.576a.536.536 0 01.502-.394h.298c1.29 0 2.294-.264 3.022-.8.717-.526 1.075-1.232 1.075-2.09 0-.383-.06-.705-.202-.957zM23.06 17.982c-.393-.227-1.027-.334-1.887-.334-.43 0-.848.035-1.278.095-.322.048-.346.06-.55.108-.393.083-.465.49-.465.49l-.12.525c-.071.346.12.335.203.299.18-.048.275-.108.633-.18a4.43 4.43 0 01.991-.143c.419 0 .741.048.957.143.214.097.321.252.321.478 0 .048 0 .107-.011.143-.024.048-.06.084-.155.096-.61.048-1.04.096-1.566.18-.512.071-.966.19-1.336.357-.407.18-.706.418-.921.73-.202.298-.298.668-.298 1.098 0 .406.143.74.43 1.003.287.262.67.383 1.123.383.274 0 .501-.024.656-.06.155-.037.335-.096.514-.18a1.99 1.99 0 00.43-.239c.155-.095.263-.179.406-.262v.012l-.036.167c-.047.215.072.382.275.406H22.367c.012 0 .012 0 .012-.012a.537.537 0 00.454-.394l.777-3.332c.012-.084.035-.167.035-.275.013-.108.024-.19.024-.25 0-.478-.203-.825-.61-1.052zm-1.862 3.977a2.768 2.768 0 01-.419.215c-.203.084-.382.12-.55.12-.262 0-.464-.036-.608-.12-.132-.071-.203-.203-.203-.394 0-.215.048-.383.155-.513.107-.132.25-.228.441-.311.204-.06.43-.108.705-.155.239-.024.717-.084.777-.084.059 0 .107-.036.071.131 0 .072-.143.633-.203.896a.61.61 0 01-.166.215zM42.278 17.994c-.885-.502-2.688-.37-3.715-.143-.394.095-.465.49-.465.49l-.121.525c-.07.346.12.335.204.31.179-.06.274-.107.632-.19.335-.072.705-.132.992-.132.418 0 .74.048.956.131.214.097.322.252.322.478 0 .06 0 .107-.012.156-.024.047-.06.083-.168.095-.596.036-1.026.096-1.552.167-.514.072-.968.191-1.337.37-.406.18-.705.419-.908.717-.203.31-.311.669-.311 1.111 0 .406.144.74.43 1.003.943.837 2.245.215 3.13-.37v.012l-.036.167v.012c-.048.203.071.382.274.394h1.004a.54.54 0 00.454-.394l.728-3.13c.047-.214.119-.501.108-.74 0-.466-.203-.812-.61-1.04zm-1.875 3.965a2.572 2.572 0 01-.407.215c-.585.239-1.397.107-1.278-.728.072-.49.8-.573 1.218-.633.24-.036.717-.084.777-.095.06 0 .107-.037.071.13-.011.072-.143.634-.215.896-.011.084-.12.191-.166.215zM34.897 19.2c-.323.227-.766.346-1.338.346h-.263c-.227 0-.382-.178-.323-.405l.311-1.374c.048-.215.287-.394.514-.394h.347c.405 0 .703.071.918.202.203.133.3.347.311.634 0 .43-.167.752-.477.992m2.28-2.115a1.544 1.544 0 00-.585-.621 2.64 2.64 0 00-.92-.346 7.422 7.422 0 00-1.242-.096h-2.208a.547.547 0 00-.514.407l-1.482 6.472c-.06.228.084.407.311.407H31.6a.56.56 0 00.513-.407l.358-1.564a.535.535 0 01.502-.406h.311c1.29 0 2.294-.263 3.01-.8.728-.526 1.086-1.23 1.086-2.102 0-.37-.07-.693-.203-.944zM45.933 16.07h-.957c-.393 0-.489.348-.56.646l-1.302 5.925c-.036.142-.048.238-.06.262-.036.203.083.37.287.394h.979a.55.55 0 00.501-.37c0-.012.013-.012.013-.024l1.385-6.258c.024-.132.071-.263.012-.395a.338.338 0 00-.298-.18zM47.365 17.385c-.143.036-.334.06-.453-.06-.048-.047-.072-.143-.072-.275v-.537h-.12v-.155h.12v-.287h.167v.287h.358v.155h-.358v.466c0 .083-.012.215.083.263.072.036.191.011.263-.012h.012v.155zM49.073 17.397h-.166v-.585c0-.048 0-.096-.013-.131-.036-.3-.334-.168-.49-.049 0 .013 0 .024.013.049V17.397h-.18v-.585-.131c-.012-.049-.012-.072-.024-.096-.107-.18-.358-.048-.465.035v.777h-.168v-1.039h.168v.12a.71.71 0 01.167-.109c.155-.07.383-.035.454.132.298-.25.704-.262.704.227v.669z"/></g></g></svg>