<svg width="60" height="40" xmlns="http://www.w3.org/2000/svg"><g fill="none" fill-rule="evenodd"><path fill="#152884" d="M0 0h60v40H0z"/><g fill="#FFF" fill-rule="nonzero"><path d="M43.832 21.081l-.82-3.929a.515.515 0 01-.039-.004l-1.426 3.932 2.285.001zm-6.549 3.776l.489-1.173 3.616-8.638c.235-.562.653-.848 1.267-.846.703.003 1.405.003 2.108-.002.134-.001.194.027.225.175.711 3.428 1.429 6.854 2.146 10.28.014.067.022.136.034.213h-2.543c-.096-.461-.199-.915-.282-1.374-.031-.172-.099-.219-.271-.218a218.13 218.13 0 01-3.133.001c-.144-.001-.211.044-.257.181-.145.431-.301.858-.464 1.283-.022.058-.108.129-.165.129-.899.008-1.798.005-2.697.004-.018.001-.036-.007-.073-.015zM37.921 14.485l-.478 2.232c-.303-.101-.591-.211-.887-.293-.653-.181-1.319-.259-1.989-.129a1.862 1.862 0 00-.69.289c-.445.309-.459.819-.026 1.146.331.25.705.442 1.061.658.443.268.911.501 1.327.806 1.058.776 1.41 1.854 1.051 3.117-.338 1.189-1.173 1.902-2.286 2.331-1.02.393-2.083.449-3.158.362a7.957 7.957 0 01-1.984-.397c-.106-.037-.21-.08-.329-.126l.492-2.306c.457.161.895.345 1.349.469.677.184 1.374.251 2.065.096.269-.06.544-.183.766-.345.415-.304.446-.864.058-1.202-.292-.254-.64-.446-.972-.651-.499-.308-1.036-.563-1.504-.912-1.562-1.165-1.283-2.925-.472-3.979.602-.782 1.428-1.215 2.365-1.447 1.382-.342 2.746-.244 4.088.219.049.018.094.038.153.062zM29.91 14.217c-.073.35-.143.694-.217 1.037-.667 3.119-1.337 6.238-1.997 9.358-.043.203-.112.272-.326.267-.753-.015-1.506-.006-2.259-.006h-.234l.204-.959c.682-3.187 1.365-6.374 2.045-9.562.021-.099.043-.156.163-.156.842.005 1.683.003 2.525.004.024.002.048.009.096.017zM13.059 14.2h4.591c.772 0 1.245.394 1.388 1.15l1.134 5.997c.002.012.008.024.027.076.041-.09.072-.151.097-.215.9-2.273 1.801-4.546 2.694-6.821.059-.151.134-.193.288-.192.823.007 1.646.003 2.468.003h.215c-.041.107-.072.194-.108.279-1.428 3.409-2.857 6.817-4.283 10.227-.05.12-.106.173-.246.171-.861-.007-1.722-.007-2.582 0-.135.001-.181-.042-.214-.17-.724-2.814-1.456-5.626-2.178-8.441-.109-.423-.34-.716-.735-.904-.792-.378-1.628-.618-2.477-.822-.042-.01-.083-.023-.138-.038l.027-.15c.01-.041.019-.084.032-.15z"/></g></g></svg>