<svg xmlns="http://www.w3.org/2000/svg" width="30" height="29.987" viewBox="0 0 30 29.987">
  <path id="_" data-name="ïŠ" d="M1.077,29.987a1.115,1.115,0,0,1-.8-.351A1.1,1.1,0,0,1,.006,28.8l.586-5.238H29.408l.585,5.238a1.1,1.1,0,0,1-.267.837,1.117,1.117,0,0,1-.8.351Zm-.368-7.5L2.148,9.522a1.084,1.084,0,0,1,1.071-.954H7.5V10.71a2.142,2.142,0,1,0,4.284,0V8.568h6.426V10.71a2.142,2.142,0,1,0,4.283,0V8.568H26.78a1.084,1.084,0,0,1,1.071.954L29.291,22.49ZM19.284,10.71V6.426a4.284,4.284,0,1,0-8.568,0V10.71a1.071,1.071,0,0,1-2.142,0V6.426a6.426,6.426,0,1,1,12.852,0V10.71a1.071,1.071,0,1,1-2.142,0Z" fill="#2bbafe"/>
</svg>
