<svg width="516" height="257" fill="none" xmlns="http://www.w3.org/2000/svg"><path d="M516 255.964l-54.783-35.509s-77.554-92.661-102.99-107.267c-25.437-14.606-64.322-18.494-64.322-18.494-.148-.148-4.921-4.469-.444-.444 4.478 4.025-13.622-11.54-20.136-17.903-.741-.74-1.629-1.627-2.369-2.515-.445-.444-.741-.888-1.037-1.48-.148-.148-.148-.295-.296-.443-.148-.148-.148-.444-.148-.592v-.148s0-.148-.148-.148c-.592-.444-1.629-.888-2.665-1.184-1.037-.296-2.073-.592-3.258-.888-2.221-.591-4.294-1.035-6.515-1.479-1.036-.296-2.22-.592-3.257-.888a7.238 7.238 0 01-1.629-.592l-.888-.444c-.296-.147-.592-.295-.888-.74-.148 0-.148 0-.296-.147l-1.037-.148c-.592-.148-1.481-.444-2.073-1.184l-.148-.148c-.592-.592-.74-1.183-.74-1.775-.148-.444-.148-.888-.296-1.332-.741-1.036-1.333-2.22-2.221-2.959-.741-.74-2.073-1.036-3.406-1.627-.592-.296-1.332-.592-1.924-.888a13.47 13.47 0 01-1.925-1.184c-1.185-1.035-1.925-2.22-2.517-3.403-.741-1.183-1.333-2.367-2.221-3.255-.889-.887-1.925-1.627-3.11-1.775-1.184-.148-2.369.148-3.701.592-1.185.444-2.517 1.035-3.998 1.183a5.419 5.419 0 01-4.146-1.331c-1.184-.888-1.925-2.22-2.665-3.255-.74-1.036-1.777-1.924-2.813-2.516-1.185-.591-2.369-1.035-3.702-1.035-2.517-.148-5.33.888-8.143.444-1.333-.148-2.813-.592-3.85-1.628-.888-1.184-1.48-2.22-2.517-3.255a9.696 9.696 0 00-2.665-2.22c-1.036-.591-2.221-.591-3.257-.443-1.185.148-2.221.444-3.406.74-1.184.296-2.221.592-3.405.888l.592 1.183v.444a158.46 158.46 0 00-5.034-8.877c-1.185-1.628-2.517-5.03-4.442-5.918-2.221-1.184-3.109.295-4.738 0-3.109-.592-1.185.591-3.405-2.516-.889-1.183-1.185-2.81-2.221-4.438-3.406-6.658-6.959-15.684-15.991-12.28-14.659 5.77-23.69 31.958-31.242 46.901h-.888c-.296 0-.592 0-.888.148-.148 0-.296 0-.445.148H110.899c-1.184.444-1.776 1.48-2.665 2.811-.296.296-.592.74-1.036 1.036-.296.148-.444.296-.741.444-.148 0-.444.148-.592.148-.444.148-.888.148-1.332.148a2.502 2.502 0 01-1.481-.444c-.74-.444-1.037-.444-1.629-.444-.592 0-1.184 0-1.776.296-1.185.296-2.073 1.183-2.814 2.219-.888 1.036-1.628 2.515-3.405 3.403a2.503 2.503 0 01-1.48.444h-1.185l-.445-.148c-1.036-.296-1.776-.888-2.368-1.332-2.518-2.219-3.998-4.882-5.627-7.102l-.296-.295-.296-.296-.74-.74-1.481-1.628c-1.037-1.035-2.073-2.071-3.11-2.81-2.072-1.776-4.441-2.664-6.958-2.22l-1.777.444-.444.148h-.148l-.445.148-.296.148c-.148.148-.296.148-.296.296-.888.74-1.777 1.775-2.369 2.959-1.48 2.367-2.517 5.03-3.405 7.693-1.925 5.327-3.406 11.097-4.886 16.72l-2.221 8.433c-.297 1.183-.593 2.219-.889 3.403 2.665-2.368 5.33-4.44 8.144-6.658 2.22-1.628 4.294-3.107 6.663-4.439a40.221 40.221 0 013.701-1.627c1.333-.444 2.665-.74 4.146-.74 1.48 0 3.11.296 4.294 1.183 1.184.888 2.073 1.924 2.961 2.96 1.629 2.07 3.257 4.142 5.33 5.474 1.037.74 2.221.888 3.406.592 1.184-.296 2.517-.74 3.85-1.036a33.214 33.214 0 017.699-.888c3.701.296 7.403 1.184 11.401 2.663 3.109 1.184 6.959 1.924 10.068 3.107 3.405 1.184 5.922 4.735 9.476 5.03 4.738.297 6.663-4.438 10.957-4.734 4.738-.296 7.255 4.143 9.476 7.546 3.701 6.658 5.922 14.795 11.697 19.826 6.662 5.622 16.287 7.546 23.838 11.984 5.182 3.403 9.476 8.434 14.214 12.576-10.365-8.285-26.355-7.397-31.538-10.652-5.33-3.403-21.321-20.418-36.423-22.194-15.103-1.775-27.836 0-27.836 0l-1.333 2.96c7.255 0 14.807-.296 21.618 0-.297 2.663-.445 5.178-.593 7.841v-.296c-.148-.592-.148-1.183-.444-1.923-.148-.296-.296-.74-.74-1.184-.444-.444-1.037-.74-1.629-.888-1.184-.147-1.925.148-2.517.296l-1.777.888c-1.036.74-1.924 1.628-2.813 2.663 1.333 0 2.665-.148 3.702-.444l1.628-.295c.445-.148 1.037-.148 1.037-.148l.296.295c.296.296.592.888.888 1.48.593.888 1.185 1.923 2.221 2.663-.148 1.924-.148 3.699-.296 5.623 0-.148-.148-.296-.148-.444-.444-1.036-1.184-1.924-1.777-2.812-1.332-1.627-2.961-3.107-4.59-4.438l-1.184-.888-.888 1.036a7.813 7.813 0 00-1.185 2.219c-.296.74-.296 1.628-.148 2.515.592-.887 1.333-1.479 1.925-2.071 1.036 1.48 2.369 2.663 3.553 3.847.741.74 1.629 1.331 2.369 2.071.593.444 1.185.888 1.777 1.48 0 1.923-.148 3.995-.148 5.918-.444-1.184-1.036-2.515-1.629-3.551-1.332-2.367-2.961-4.587-4.59-6.51l-1.184-1.332-.74 1.036c-.741.888-1.185 1.776-1.629 2.663-.444.888-.889 1.776-1.481 2.663 1.037-.295 1.925-1.035 2.665-1.627.296-.296.741-.592 1.037-.888 1.036 1.924 2.369 3.699 3.553 5.475.741 1.035 1.629 2.071 2.369 3.107.444.443.741 1.035 1.185 1.627.148.296.296.444.444.74-.148 6.954-.148 13.908-.296 20.714-13.622.295-30.205-1.924-43.679.295-2.961-4.734-1.629-5.622-9.328-5.622-4.738 0-9.328.592-14.066 1.184-6.367.592-8.44 1.923-12.733-1.924-3.406-3.107-1.629-7.545-7.996-8.137-2.517-.444-6.218.592-9.328 1.331h-4.441c5.33-5.326 10.364-10.8 15.398-16.275 2.813-3.107 5.627-6.362 8.44-9.469 2.813-3.107 5.478-6.362 8.44-9.469-2.37 1.776-4.443 3.699-6.663 5.77 0-.443.148-.739.296-1.183.148-.296.148-.74.296-1.036.148-.592.296-1.183.444-1.627l.592-1.628-2.073-.148c-1.036-.148-1.925 0-2.813.148-.444 0-.888.148-1.333.296-.444.148-.888.148-1.628.296.148.592.592 1.036 1.036 1.332.444.295.889.591 1.48.739l-1.036.148c-.444 0-1.036 0-1.628.296-.296.148-.593.148-.889.296-.296.148-.592.296-.888.592l.74.74c.296.148.444.444.74.592.149 0 .297.147.445.147 0 .296.148.592.296 1.036.148.296.296.74.592 1.036.296.296.444.592.889.888.296-.444.444-.74.74-1.036.148-.296.296-.74.444-1.036.148-.74.148-1.331.148-1.923l-.148-1.48c.444.148.888.148 1.185.148 0 .296.148.444.296.74.148.444.444.74.74 1.036.296.296.592.591 1.037.739l-2.814 2.812c-2.961 2.959-5.922 6.066-8.736 9.321a277.65 277.65 0 00-14.51 17.606H0V257h299.087v-.74H516v-.296zM149.988 5.477c-4.146 7.841-5.034 17.015-6.663 25.448-1.184 5.622-5.33 9.173-6.663 14.5-1.184 4.734-.592 10.06-1.628 15.091-3.702-5.326-8.44-8.137-12.586-13.168-4.442-5.622 1.629-10.06 4.146-15.387 2.813-6.214 6.959-10.653 11.549-15.683 3.109-3.403 7.551-8.73 11.697-10.949v.148h.148zm70.33 147.511a5.471 5.471 0 01.74-1.628c.296-.444.593-1.035 1.185-1.479.444-.592 1.036-1.036 1.925-1.628.74.74.888 1.776.888 2.663 0 .888-.296 1.776-.592 2.516-.444.739-1.037 1.479-1.925 1.923-.74.444-1.777.592-2.813.296.296-1.332.444-2.071.592-2.663zm-1.333-3.107c-.74.592-1.628 1.035-2.665 1.183-1.036.148-2.073.148-2.961-.591.74-.888 1.184-1.48 1.777-2.072.444-.592 1.036-1.035 1.628-1.479.593-.444 1.185-.888 1.925-1.184.741-.296 1.481-.74 2.665-.888.148 1.184-.148 2.072-.444 2.959-.592.74-1.184 1.48-1.925 2.072zm-2.665-24.857c-.444-.443-.74-1.035-1.036-1.479l-.741-1.184c-1.628-.148-3.257-.444-4.738-1.183 1.777-.148 3.554-.444 5.331-.592h.296l.444.444 1.333 1.331c.444.444.74.888 1.184 1.48.74.887 1.481 1.775 2.369 2.515l.888.74-.592.887c-.74.888-1.48 1.332-2.221 1.628-.74.444-1.48.592-2.221.888-.74.148-1.48.444-2.221.592-.74.295-1.48.295-2.072.887 0-.444.296-.74.592-1.035.296-.296.592-.592.888-.74a9.444 9.444 0 012.073-1.184c.74-.296 1.333-.74 1.925-1.184.148-.147.444-.295.592-.443-1.036-1.036-1.629-1.776-2.073-2.368zm10.217-11.836c-.297-2.367-1.185-4.587-3.11-6.362 1.185.444 2.369 1.332 3.11 2.367.888 1.036 1.48 2.367 1.776 3.699.741 2.663.741 5.326.593 7.842-.297 2.663-1.037 5.178-1.925 7.545-1.037 2.368-2.221 4.735-4.146 6.51 1.036-2.367 1.629-4.734 2.221-7.101a57.244 57.244 0 001.333-7.25c.444-2.368.444-4.883.148-7.25zm6.07 14.5c0-2.072-.148-3.995-.148-6.067.148-2.071.296-4.142 1.037-6.214.296 2.072.592 3.995.888 6.066.296 2.072.592 3.995.592 6.067.148 2.071 0 4.142-.296 6.214-.444 2.071-1.184 4.29-2.665 5.77.592-2.071.74-3.995.74-5.918 0-1.924-.148-3.995-.148-5.918zm-37.312-61.254c1.333 3.403 2.369 6.806 3.258 10.061.444 2.072.592 2.515 1.184 4.439.296.888.592 1.923 1.037 2.663.444.888 1.036 1.48 1.776 2.22 1.481 1.33 3.11 2.219 4.886 3.254a49.674 49.674 0 015.331 3.107l1.332 1.036c3.11 2.663 5.479 3.699 9.18 5.622 1.925 1.036 3.702 1.924 5.627 3.107.888.592 1.776 1.036 2.665 1.628l2.665 1.775c3.405 2.072 7.403 3.403 11.549 4.143 3.997.592 8.291 2.219 12.141 1.332.148 0 .296-.148.444-.148-.296 2.515-.888 4.734-2.369 5.178-.296.148-.592.148-.888.296-4.442-.296-11.401.444-13.77-.74-1.925-.887-3.109-2.219-5.034-3.107-1.629-.592-3.702.296-5.034-1.183-2.814-3.107 0-6.214-5.331-8.434-4.738-2.219-5.922-2.81-9.772-6.214-2.813-2.515-7.551-5.03-10.66-6.214-3.702-.888-6.663 0-8.44-4.735-.888-3.107.296-6.214-.296-9.469-.444-2.515-2.813-10.209-5.923-14.055.296.295.741.444 1.185.74 1.036.74 2.369 2.07 3.257 3.698zm-8.291-7.101h.148l.148.147s.148.148.296.148c-.592-.148-1.185 0-1.777.444-.888-4.143-1.036-8.285-1.332-12.28 1.184 3.699 2.369 7.546 2.369 11.688l.148-.147zm-16.583-27.816v.296c0 7.841 6.662 11.688 8.143 18.79.889 4.439-.888 7.546-2.221 11.984-.888 3.7-.888 7.546-.888 11.689-2.813-1.923-7.551-6.214-8.144-10.061-.296-3.403 2.221-8.73 2.814-12.28.888-6.658-2.518-14.796.296-20.418zm18.063 72.942c-1.332.591-2.813 1.035-4.145 1.331-1.481.296-2.814.444-4.294.592a20.82 20.82 0 01-4.294 0c-1.481-.148-2.813-.444-3.998-1.332 1.333.444 2.665.444 4.146.444 1.333-.148 2.665-.296 4.146-.591 1.332-.296 2.665-.592 3.997-1.036 1.037-.296 1.925-.74 2.962-1.036-.296-1.036-.593-2.071-1.037-2.959-.444-1.332-1.036-2.515-1.628-3.847-.593-1.183-1.185-2.515-1.925-3.699-.296-.591-.741-1.183-1.037-1.627-.148-.296-.444-.444-.592-.592l-.296-.296-.148-.148-.148-.148c-.889-.444-2.221-.444-3.554-.296-1.332.148-2.665.592-3.997 1.036-1.333.444-2.666.888-4.146 1.184-1.333.296-2.813.592-4.294.592 2.813-.592 5.182-2.072 7.847-3.256 1.333-.591 2.665-1.183 4.146-1.48 1.481-.295 3.109-.59 4.886.149l.296.148.148.148h.148c.149 0 .445.296.593.444l.888.887c.592.592.888 1.184 1.333 1.924.74 1.331 1.48 2.515 2.073 3.847.592 1.331 1.184 2.663 1.628 3.994.444 1.332.889 2.812 1.037 4.439l.148.74-.889.444zm-1.48-16.127c1.184-.296 2.369-.592 3.405-1.036.592-.148 1.037-.444 1.777-.592.296-.148.74-.148 1.184 0 .445 0 .741.296 1.185.444 1.184.74 1.925 1.627 2.813 2.515l2.369 2.811c1.629 1.776 3.109 3.7 4.59 5.77a39.48 39.48 0 013.702 6.363l.444 1.035-.889.296c-1.628.592-3.405.888-5.182.888-1.776 0-3.405-.296-5.034-.888 1.629 0 3.258-.148 4.886-.444 1.185-.296 2.369-.591 3.406-1.035-1.037-1.628-2.073-3.403-3.258-5.03-1.48-1.924-2.961-3.7-4.442-5.623l-2.221-2.811c-.74-.888-1.48-1.924-2.221-2.663-.444-.296-.592-.444-1.184-.444s-1.185.148-1.777.148c-1.036.296-2.369.444-3.553.296zm6.663 27.519c-.889.148-1.777.296-2.517 0 .74-.444 1.332-.888 1.924-1.331a70.583 70.583 0 001.925-1.48c1.333-.888 2.813-1.923 4.738-2.071l1.037-.148.296.887c.148.74.444 1.628.74 2.368.148.887.296 1.775.148 2.663-.888-1.184-1.629-2.071-2.369-3.255-1.036.444-2.073 1.036-3.257 1.479-1.037.444-1.777.74-2.665.888zm6.81 5.327c-.74 0-1.48 0-2.22-.296l1.776-1.036c.593-.296 1.185-.74 1.777-1.036 1.185-.592 2.665-1.183 4.294-1.035h.888l.296.887c.296 1.036.445 1.924.741 2.959l.296 1.48c.148.444.148 1.036.296 1.479-.592-.147-1.037-.591-1.333-1.035-.444-.444-.74-.888-1.036-1.332-.444-.592-.74-1.331-1.037-1.923-.888.148-1.776.296-2.813.592a6.57 6.57 0 01-1.925.296zm7.107 16.718c-1.036-.591-1.924-1.331-2.813-1.923l-.148-.148c.889.74 1.925 1.48 2.961 2.071zm-65.295 10.949c0 .592-.148 1.184-.296 1.923 0 .296-.149.592-.297.888-.148.296-.296.74-.592.74a.943.943 0 000-.888c0-.296-.148-.592-.296-.887-.148-.592-.296-1.184-.592-1.628-.296-1.184-.741-2.219-1.037-3.403-.592-2.367-1.184-4.587-1.628-7.102-.296-2.515-.296-4.882-.296-7.25v-7.249c1.48 2.071 2.369 4.438 2.961 6.806.592 2.367.888 4.734 1.184 7.101.296 2.22.741 4.735.741 7.102.296 1.332.148 2.515.148 3.847zm6.07 1.48c-.74-2.072-1.48-3.995-2.073-5.919-.592-1.923-1.184-3.994-1.628-5.918a44.707 44.707 0 01-.889-6.214c-.148-2.071 0-4.291.593-6.362.888 1.924 1.628 3.847 2.369 5.918.592 1.924 1.184 3.995 1.628 5.918.444 2.072.741 4.143.889 6.215-.148 2.071-.148 4.142-.889 6.362zm4.738-11.393c.741-.296 1.333-.592 2.073-.888.592-.296 1.333-.591 2.073-.739a13.964 13.964 0 014.442-.74h1.036l.593.888c.592 1.035 1.184 2.219 1.776 3.403.297.591.445 1.331.741 1.923.148.74.296 1.332.296 2.219-.74-.444-1.185-.74-1.777-1.183-.592-.444-1.036-.888-1.629-1.332-.74-.74-1.332-1.332-2.073-2.219h-3.109c-.74 0-1.48-.148-2.221-.296-.74-.296-1.628-.592-2.221-1.036zm14.362 12.872c0 .592-.148 1.184-.296 1.776-.592-.296-1.036-.888-1.332-1.332-.444-.444-.741-.888-1.037-1.48-.296-.591-.592-1.035-.74-1.627h-2.665c-.741 0-1.333-.148-2.073-.296s-1.481-.444-2.073-.888c.74-.444 1.333-.739 1.925-1.183.592-.296 1.332-.592 1.925-.74 1.332-.444 2.665-.592 4.294-.592h1.48l.296 1.184c.296 1.183.444 2.219.444 3.403 0 .739 0 1.183-.148 1.775zm.741-8.433c-.296-.74-.444-1.48-.444-2.072 0-.591-.149-1.183-.149-1.775v-1.184c1.481-.296 3.11-.739 4.887-.148.888.296 1.776.888 2.369 1.776.592.888.888 1.923.888 2.959v1.627h-1.481c-1.628 0-3.701-.296-5.626-.739l-.444-.444zm16.583 12.428c-2.665 0-5.479.148-8.44 0h-.592l-.148-.444c-.296-1.184-.889-2.515-1.481-3.551-.592-1.183-1.48-2.219-1.925-3.551l-.296-1.183c1.481.148 2.962-.444 4.294-.888.74-.296 1.333-.444 2.221-.74h1.333c.444.148.888.296 1.184.444 1.629.74 2.813 2.219 3.554 3.699.74 1.479 1.184 2.811 1.628 4.143l.741 2.071h-2.073zm37.312 6.214c-1.333-.592-2.814-1.036-3.998-2.071-1.629-1.48-2.961-3.255-4.442-4.587-.74-.592-1.629-1.036-2.517-1.479-.444-.148-.888-.296-1.333-.296l-.74-.148-.74-.148c-1.037-.148-2.073-.296-3.258-.296-1.184-.148-2.369-.296-3.553-.888-1.185-.444-2.221-1.184-3.109-1.775-1.037-.74-1.925-1.48-2.666-2.22-1.628-1.479-3.109-2.959-4.738-3.994-.444-.296-.888-.444-1.184-.74-.296-.148-1.037-.444-1.481-.74-.888-.444-1.925-.888-2.961-1.184-3.85-1.479-8.292-2.515-12.437-4.882-2.073-1.184-3.85-2.663-5.479-4.291-.148-.148-.148-.296-.296-.296v2.811c-1.036-1.035-1.776-2.219-2.369-3.255-.444-.739-.74-1.479-1.184-2.071-1.777.148-3.702.444-5.627.444-1.184 0-2.369 0-3.553-.296-1.185-.148-2.369-.444-3.406-1.036 1.185-.444 2.221-.739 3.258-1.035a97.49 97.49 0 013.257-.888c1.481-.296 2.961-.592 4.59-.74-2.221-2.959-4.59-5.918-7.107-8.581-1.481-1.48-3.109-2.811-4.886-3.847-1.777-1.036-3.85-1.628-5.923-2.219-4.145-1.184-8.587-1.628-12.733-2.812 4.294.444 8.736.444 13.03 1.184 2.221.296 4.441.888 6.514 1.776 2.073 1.035 3.998 2.367 5.775 3.846 3.405 2.959 6.219 6.362 9.032 9.765 1.332 1.628 2.813 3.403 4.145 4.735 1.481 1.479 2.962 2.663 4.738 3.699 3.406 1.923 7.7 3.107 11.846 4.734l3.109 1.332 1.481.74c.592.296 1.036.592 1.628 1.035 1.925 1.48 3.554 3.107 5.034 4.587.741.74 1.481 1.48 2.221 2.071.889.74 1.629 1.184 2.517 1.628 1.629.74 3.702.888 6.071 1.479l.888.148.741.148c.592.148 1.184.296 1.776.592 1.185.444 2.073 1.184 2.962 2.071 1.628 1.628 2.813 3.551 4.145 5.179 1.037.888 2.221 1.627 3.554 2.367 1.333.74 2.665 1.332 3.998 1.924-1.777-.592-3.258-.888-4.59-1.48zm10.364-1.627c-.74.591-1.629 1.183-2.665 1.035.592-.74.74-1.331 1.036-2.219l.445-2.219c.148-.74.444-1.48.592-2.368-.74-.148-1.481-.296-2.221-.592-1.481-.739-2.813-2.071-2.961-3.698.74.296 1.332.591 1.924.739.593.148 1.185.148 1.777.148 1.185 0 2.369-.148 3.554-.296l2.665-.443-.592 2.663c-.445 1.627-.889 3.255-1.925 4.882-.444 1.036-1.037 1.776-1.629 2.368z" fill="#012665"/></svg>