<svg width="80" height="80" fill="none" xmlns="http://www.w3.org/2000/svg"><path opacity=".24" fill-rule="evenodd" clip-rule="evenodd" d="M40.812-45.232a2.5 2.5 0 00-2.689 4.215c.694.443 1.389.89 2.085 1.337 6.079 3.908 12.323 7.923 19.996 10.556 8.639 2.964 18.975 4.157 33.023 1.928a2.5 2.5 0 00-.784-4.938c-13.344 2.117-22.843.948-30.616-1.72C54.759-36.278 49.025-39.96 42.89-43.9l-.001-.001c-.687-.441-1.379-.885-2.078-1.331zM8.724-30.676c15.988-6.162 26.766.581 39.707 8.678l.003.002c1.145.717 2.307 1.444 3.492 2.174 7.172 4.42 15.078 8.829 24.622 10.763 9.603 1.946 20.676 1.352 34.191-3.879a2.5 2.5 0 10-1.804-4.663c-12.717 4.922-22.818 5.38-31.394 3.641-8.634-1.75-15.913-5.757-22.992-10.119-1.195-.736-2.386-1.486-3.58-2.236v-.001h-.001C38.242-34.322 25.34-42.438 6.926-35.341a2.5 2.5 0 001.798 4.665zm6.395 111.981c-9.268-.603-20.098 2.033-33.797 10.925a2.5 2.5 0 01-2.723-4.194c14.355-9.318 26.24-12.41 36.844-11.72 10.545.686 19.479 5.097 27.896 10.08a402.6 402.6 0 016.44 3.92c14.56 8.991 28.622 17.673 49.584 12.888a2.5 2.5 0 011.113 4.875c-23.087 5.27-38.956-4.577-53.475-13.586-2.092-1.298-4.156-2.579-6.21-3.794-8.253-4.887-16.345-8.787-25.672-9.394zm42.155 42.846C33.987 100.172 7.143 97.166-7.307 102.925a2.5 2.5 0 11-1.851-4.644c16.682-6.65 45.605-2.752 70.019 22.386a2.5 2.5 0 01-3.587 3.484zM18.819-13.477c-9.728-2.055-21.084-1.734-36.133 3.61a2.5 2.5 0 01-1.673-4.711c15.809-5.615 28.104-6.06 38.84-3.791 9.944 2.1 18.426 6.518 26.817 10.89h.003l.002.002 1.732.901c9.034 4.69 18.208 9.22 29.69 11.28 11.45 2.054 25.361 1.675 43.783-3.77a2.5 2.5 0 111.417 4.795c-19.054 5.631-33.758 6.107-46.082 3.897C64.925 7.42 55.17 2.569 46.103-2.138l-1.595-.83-.004-.001-.01-.006c-8.515-4.431-16.424-8.548-25.675-10.502zM-34.095 42.38C-15.011 27.619.072 23.423 12.994 24.157c13.053.742 24.282 6.51 35.82 12.594l.837.442c11.116 5.864 22.628 11.939 35.776 12.765 13.661.857 28.69-3.938 46.801-19.192a2.5 2.5 0 10-3.221-3.824C111.58 41.62 97.773 45.722 85.741 44.967c-12.064-.757-22.739-6.386-34.166-12.413l-.428-.226c-11.425-6.024-23.574-12.35-37.87-13.162-14.427-.82-30.665 3.97-50.431 19.26a2.5 2.5 0 103.059 3.954zM13.909 6.701C.864 5.56-13.823 8.34-31.483 19.18a2.5 2.5 0 01-2.616-4.261C-15.63 3.582.115.474 14.345 1.72 28.47 2.957 40.893 8.478 52.624 13.933l1.992.928.027.013h.001C65.748 20.052 76.23 24.94 87.497 26.502c11.77 1.633 24.53-.365 39.642-10.096a2.5 2.5 0 112.707 4.204c-16.059 10.34-30.013 12.652-43.037 10.845-12.04-1.671-23.17-6.865-34.1-11.965-.731-.342-1.463-.683-2.194-1.023C38.752 12.996 27.058 7.852 13.91 6.7zm-.647 37.215c-11.995.129-26.125 5.554-44.373 22.109a2.5 2.5 0 01-3.36-3.703C-15.697 45.289-.44 39.063 13.21 38.916c13.546-.146 25.024 5.733 36.009 11.668a1107.484 1107.484 0 011.814.982c10.495 5.688 20.658 11.196 32.516 12.542 12.368 1.404 26.9-1.718 45.624-14.99a2.5 2.5 0 112.891 4.078c-19.477 13.807-35.216 17.454-49.08 15.88-12.857-1.46-23.825-7.41-34.139-13.008-.67-.363-1.338-.726-2.003-1.085-11.062-5.977-21.483-11.197-33.579-11.067zm-36.684 39.682C-9.637 69.091 1.653 63.711 11.754 62.912c10.199-.806 19.694 2.997 30.132 8.064 1.728.839 3.477 1.71 5.25 2.594h.002c19.499 9.718 42.059 20.961 74.962 7.803a2.5 2.5 0 10-1.856-4.642c-30.764 12.302-51.44 2.023-70.916-7.66a623.686 623.686 0 00-5.259-2.593c-10.467-5.082-21.044-9.472-32.71-8.55-11.762.93-24.125 7.198-38.406 22.226a2.5 2.5 0 103.625 3.444z" fill="#B0008E"/></svg>