<svg width="241" height="71" fill="none" xmlns="http://www.w3.org/2000/svg"><mask id="a" maskUnits="userSpaceOnUse" x="0" y="0" width="241" height="71"><path fill="#FF5E0F" d="M0 0h241v71H0z"/></mask><g mask="url(#a)" fill="#BB3D00"><path d="M15.683 48.2c0-1.927-.138-3.58-.551-5.094-.275-1.24-.55-2.341-.964-3.58-.55-1.515-1.101-3.167-1.79-4.682-.275-.688-.688-1.239-1.102-1.79-.137-.275-.413-.413-.688-.275-.138 0-.138.275-.275.55-.276 1.653-.414 3.305-.689 4.957a11.597 11.597 0 01-1.102 3.718c-.413.964-.964 1.928-1.514 2.892-1.102 2.065-2.203 4.13-2.341 6.609-.138 1.24 0 2.478.55 3.58.414.826.965 1.377 1.928 1.652 2.204.826 4.131.138 5.921-1.24.827-.688 1.24-1.651 1.653-2.478.688-1.652.964-3.304.964-4.819zm-4.957-6.884c0 .137 0 .275-.138.275a.419.419 0 010-.55c.138-1.24.275-2.617.275-3.856 0-1.24.138-2.479 0-3.855.551.55.413 1.239.551 1.79-.138 2.065-.413 4.13-.688 6.196zM43.636 66.238c-.413-.964-1.102-1.79-1.928-2.479-.275-.275-.55-.413-.826-.55-.826-.413-1.653-.689-2.616-.689-1.515-.138-3.167-.138-4.682.138-1.653.275-3.167.826-4.682 1.652-1.79.826-3.58 1.79-5.233 2.892-1.239.826-2.616 1.652-3.58 2.754 0 0-.137.137-.275.137l-.413.413c-.138.276 0 .551.275.551.689 0 1.24 0 1.928-.138.826 0 1.652-.137 2.479-.137 1.377-.138 2.891-.138 4.268.137.964.138 1.928.551 2.892.827 1.377.413 2.754.826 4.268 1.101 1.928.275 3.856.413 5.646-.413 1.24-.55 2.203-1.377 2.479-2.754.688-1.24.55-2.34 0-3.442zm-22.996 4.13c.138-.412.413-.412.55-.55 1.653-.413 3.306-.826 5.096-.826.688 0 1.377-.138 2.065-.138v.275a81.304 81.304 0 00-7.711 1.24zM110.971 57.15c-.275-.964-.413-1.79-1.101-2.478-.551-.689-1.239-1.24-1.928-1.652-.413-.276-.964-.551-1.377-.551a12.2 12.2 0 00-3.167 0c-1.653.137-3.305.826-4.82 1.514a24.26 24.26 0 00-3.167 1.928 29.73 29.73 0 00-4.544 3.718c-.964.964-2.065 1.927-2.754 3.029-.137.138-.137.275-.275.413 0 .138.138.138.275.138.138 0 .276-.138.276-.138.826-.55 1.79-.826 2.616-1.24 1.377-.55 3.03-.825 4.406-1.239h.276c0 .138-.276.138-.413.276-1.653.55-3.305 1.101-4.957 1.79-.551.275-1.102.413-1.653.688-.138.276-.55.276-.55.689.137 0 .275-.138.412-.138.138 0 .413 0 .551-.138h.138c.964-.137 1.79-.413 2.754-.688 2.34-.55 4.544-.826 6.885-.55 1.79.275 3.58.412 5.37.275 1.79-.138 3.443-.413 4.957-1.377 1.102-1.102 2.066-2.754 1.79-4.269zM48.318 50.679c-.689.137-1.24.137-1.928.137-1.79.138-3.718-.275-5.508-.413-.138 0-.275 0-.275-.137.137-.276.275-.138.55-.138 1.79.138 3.58.275 5.37.275h.276c.138-.137.413 0 .551 0 .413 0 .826 0 1.102-.137-.138 0-.138-.138-.276-.138 0 0-.138 0-.138-.138-.275-.138-.55-.138-.826-.138-1.377-.137-2.616-.275-3.993-.55-1.24-.276-2.34-.551-3.442-1.102-1.24-.688-2.48-1.377-3.856-2.065-1.79-.826-3.58-1.652-5.646-1.79-1.239 0-2.34 0-3.305.55-.963.551-1.79 1.24-1.927 2.48-.138.963-.276 1.79 0 2.753.275.826.688 1.652 1.239 2.34.275.414.55.69.826.964.964.689 2.066 1.102 3.167 1.377 1.515.413 3.167.551 4.682.413 1.79 0 3.305-.413 4.957-.963.689-.138 1.377-.276 2.066-.551 1.239-.413 2.478-.964 3.718-1.377.688-.275 1.514-.689 2.065-1.102.138 0 .275-.137.413-.275.138 0 .276-.138.413-.275.138 0 .138-.138.276-.138-.138-.138-.413.138-.551.138zM9.9-7.702c-.413-1.928-1.928-3.305-4.131-3.305-.551 0-1.102.138-1.515.138-.964.137-1.928.55-2.616 1.239-.689.688-1.24 1.377-1.653 2.203-.275.964-.688 1.79-.964 2.754-.55 1.79-.963 3.718-1.239 5.507-.413 2.204-.275 4.544 0 6.747.138 1.24.413 2.479.689 3.718.137.55.275 1.101.275 1.652 0 .138.138.276.275.276a.296.296 0 00.276-.276c0-.413.138-.688.138-.963V9.922c-.413.689-.138 1.515-.414 2.203-.275-1.514-.275-2.891.138-4.406.138-.55.276-1.101.413-1.515.138-.275.138-.413.276-.55.137-.551.413-.964.688-1.515 0-.138.138-.138.276-.275.137 0 .137-.138.275 0 .138 0 .138.137.138.275-.138.413-.138.826-.413 1.102a12.59 12.59 0 01-.964 1.927c0 .138 0 .276-.138.413 0 .138 0 .276-.138.413v.138c0 .138.138.138.276.138.137-.276.413-.689.55-.964.414-.688.827-1.377 1.515-1.79l.413-.413c.689-.826 1.515-1.377 2.203-2.065C5.906 1.66 7.283.559 8.523-.955c.688-.827 1.239-1.653 1.514-2.754.276-1.515.138-2.754-.137-3.993zM35.787 20.662c-.275-.826-.964-1.377-1.79-1.79-.688-.275-1.377-.55-2.065-.55-.551 0-.964 0-1.515.137-.964.275-1.928.55-2.616 1.24-.551.55-1.102 1.1-1.515 1.927-.689 1.652-1.377 3.167-1.652 4.819-.276 1.515-.689 2.892-.827 4.406-.137 1.515-.275 2.892 0 4.406 0 .413.138.826.138 1.24.138.963.276 1.79.413 2.616.138.826.276 1.652.551 2.478 0 .138 0 .275.138.413 0 0 .137 0 .137.138 0 .137.138.275.276.275a.419.419 0 000-.55c-.138-.138-.138-.414-.138-.551v-.138-.138c-.137-.137-.138-.413-.138-.55 0-1.102.138-2.204.276-3.305 0-.138.137-.138.137-.276.138-.826.551-1.652.827-2.478.137-.55.413-.826.688-1.24.138-.137.276-.275.413-.137.138.138 0 .276 0 .276-.137.275-.137.688-.413 1.101-.275.689-.688 1.24-.964 1.928-.137.275-.137.413-.137.688 0 .138 0 .276.275.276 0-.413.413-.689.55-.964.276-.689.69-1.102 1.24-1.515l.826-.826c.689-.688 1.377-1.377 2.066-1.928 1.377-1.239 2.754-2.478 3.993-3.993.964-1.239 1.653-2.478 1.653-3.993-.138-1.239-.276-2.34-.827-3.442zM86.185 47.512l-.276.275c-.137.276-.275.413-.55.413-.827.551-1.653 1.102-2.617 1.24-.138 0-.137.137-.275.137-.413.276-.826.276-1.24.413h-.413c-.137 0-.137-.138-.137-.138 0-.137.137-.137.137-.137.276-.138.551-.276.964-.413.138-.138.276-.138.551-.138.689-.275 1.377-.413 2.066-.826.137-.138.413-.276.55-.413-.137 0-.137-.138-.275-.138h-.138c-.137.138-.275.138-.413.138h-.138c-.137.138-.275.138-.412.138-.689.137-1.515.275-2.204.137h-.826c-.964 0-2.066 0-3.03-.137-1.239-.138-2.34-.138-3.58-.138-1.101 0-2.34.138-3.442.413-.413.138-.964.275-1.377.413a8.018 8.018 0 00-3.167 3.58c-.413.826-.413 1.79-.138 2.754.276.688.551 1.239.964 1.79.413.413.964.826 1.515 1.239.413.275.964.55 1.514.689.964.137 1.79.137 2.754 0 .551 0 .964-.138 1.377-.551.276-.138.689-.138.827-.413.688-.276 1.239-.413 1.79-.826 1.514-.827 3.03-1.79 4.544-2.754 1.928-1.24 3.442-2.892 4.682-4.682l2.065-2.891c.138-.276.413-.551.413-.827l-.138-.137c-.55.55-1.101 1.377-1.927 1.79z"/><path d="M83.981 47.925c.138 0 .138 0 0 0-.137-.138-.275 0-.413 0h.413zM5.63 27.684c0-.55 0-1.101-.275-1.652-.275-.689-.55-1.24-.964-1.79-.137-.275-.413-.689-.826-.826-.275-.138-.413-.276-.688-.551-.689-.826-1.515-.964-2.479-.688-1.24.275-2.065 1.101-2.616 2.34-.55 1.377-.413 2.617-.413 3.993 0 .826.137 1.515.275 2.341.276 1.377.689 2.616 1.377 3.855.826 1.377 1.79 2.479 3.167 3.443a1.176 1.176 0 000-.964c-.137-.55-.275-1.24-.137-1.79-.276-1.377-.827-2.616-.689-4.13.55.412.275.825.55 1.238.139.413.139.827.276 1.102.138.413.138.826.138 1.24.138.412.275.963.275 1.514 0 .826.276 1.514.413 2.34 0 .138.138.138.276.276.275-.413.275-.964.413-1.377.275-.826.688-1.377.964-2.203.275-.826.688-1.515.964-2.34 0-1.928.137-3.718 0-5.37zM51.76 33.743c.138 0 .276.137.413.275.276.688.689 1.102 1.102 1.652.275.276.275.551.689.826.137-.413 0-.688-.138-.963-.138-.276-.138-.551-.138-.827v-.688c0-1.79 0-3.58-.688-5.37 0-.275-.138-.688-.413-.826l-.138-.138c-.551-1.514-1.24-3.029-2.616-4.13-.689-.551-1.377-1.102-2.341-1.102-.138 0-.276-.138-.413-.138a2.043 2.043 0 00-1.79 0c-.689.276-1.24.826-1.653 1.515l-.413.826c-.138 1.101-.138 2.065.275 3.03.276.688.551 1.376.827 1.927.275.55.413.964.826 1.377.55.688 1.101 1.514 1.79 2.203 1.514 1.514 3.167 2.478 5.232 3.03.138 0 .276 0 .413.137h.138c.276 0 .138.275.413.413.138-.413-.137-.55-.275-.689-.55-.826-1.102-1.514-1.515-2.34-.275-.413-.55-.689-.964-1.102-.137-.138-.275-.275-.413-.55-.275-.138-.275-.414-.413-.69-.138-.274-.275-.412-.413-.688 0-.137-.138-.275 0-.275.138-.138.276 0 .276.138.137.137.137.275.137.413 0 .137.138.275.276.413.964.688 1.514 1.514 1.927 2.34zM45.977 6.893s.137-.138 0 0c0-.138 0 0 0 0z"/><path d="M51.897 1.66C51.76.836 51.76.009 51.071-.68c-.138-.138-.138-.275-.138-.413-.137-.413-.413-.964-.826-1.24-1.101-.688-2.34-.688-3.442-.137-.964.55-1.653 1.24-2.066 2.203-.275.688-.55 1.377-.826 1.928-.276.55-.413.964-.55 1.514-.139.964-.276 1.928-.414 3.03-.138 2.065.413 3.993 1.377 5.783.275.413.413.688.275 1.101.138-.138.138-.275.276-.55 0-.276.138-.414.275-.551 0-.827.276-1.515.413-2.204v-.137c.138-.964.276-2.066.551-3.03 0-.137 0-.275.138-.412v-.138-.276c0-.137.138-.275.275-.137.138 0 .138.137.138.275 0 .276 0 .413-.138.689 0 1.101-.413 2.065-.688 3.166 0 .414 0 .689-.138 1.102-.138.413-.138.826-.275 1.24 0 .137 0 .412-.138.55-.138.275-.138.413 0 .688.413-.275.688-.826.964-1.101.413-.688 1.101-1.102 1.79-1.652 1.101-1.102 2.065-2.203 2.754-3.58.138-.276.275-.551.413-.964.138-.138.275-.276.275-.551.276-1.101.827-2.34.551-3.855zM109.732 83.587s0-.138 0 0c-.138-.276-.138-.55-.138-.689 0-.137-.137-.137-.137-.275-.138-.826 0-1.652-.138-2.478 0-.826 0-1.653-.138-2.341-.413-1.652-.964-3.167-1.79-4.682-.275-.55-.551-1.101-1.102-1.514l-1.652-1.24c-.275-.275-.688-.412-1.102-.412-.275 0-.55 0-.826-.138-.964-.413-1.79-.138-2.616.413-1.102.826-1.515 2.065-1.377 3.305.138 1.376.689 2.478 1.377 3.717.275.689.688 1.24 1.239 1.79 1.102 1.377 2.203 2.616 3.58 3.442.964.551 1.928.964 3.03 1.24.138 0 .275 0 .413.137h.138s0-.137.137-.137c-.137-.138-.275-.276-.275-.413-.551-.689-.964-1.377-1.377-2.066-.689-.964-1.515-1.79-2.066-2.754-.137-.137-.413-.413-.137-.55.275-.138.413.137.413.413.688.826 1.377 1.79 2.065 2.754.276.275.551.688.689 1.101.138.413.551.55.688.964.138.137.276.275.276.413 0 .138.137.275.275.413.551 0 .551-.275.551-.413zM78.473 68.992H75.443c.689.413 1.377.137 2.066.275-.689.276-3.03.276-4.269 0-.275 0-.55 0-.688-.138h-.138c-.413-.137-.688-.275-1.102-.413-.275-.137-.55-.137-.826-.275l-.826-.413c-.138 0-.275-.138-.413-.276 0-.137-.138-.137 0-.275 0-.138.138-.138.275-.138.276.138.689.276.964.276.276 0 .413.138.689.275.688.413 1.514.689 2.34.826.138 0 .276 0 .276-.275-.413 0-.55-.413-.964-.55-.826-.276-1.514-.827-1.928-1.515l-.413-.413c-.826-.689-1.514-1.515-2.34-2.204-1.102-.963-2.066-2.065-3.168-3.029-.826-.688-1.652-1.239-2.478-1.79-.551-.275-1.102-.413-1.653-.55-1.239-.138-2.478 0-3.58.413-1.652.55-2.616 1.652-2.754 3.304-.275 1.928.138 3.718 1.653 5.095.688.688 1.377 1.239 2.34 1.514l2.48.827c1.927.55 3.855.826 5.782 1.101 2.341.275 4.544.138 6.885-.275 1.102-.276 2.341-.413 3.443-.689.55-.138 1.102-.413 1.652-.413a.296.296 0 00.276-.275h-.551zM134.793 68.303c-.689-.826-1.653-1.377-2.616-1.652l-2.066-.413c-.551-.138-1.101-.138-1.515-.138-.963.138-1.927.138-2.891.276-2.204.275-3.994 1.239-5.646 2.616-.275.275-.551.413-.826.275.138.138.275.138.413.275 1.239 0 2.341.138 3.58 0h.689c.826-.137 1.79-.137 2.616.138-.964.275-1.79.275-2.754.138h-2.479c-.275-.138-.55 0-.826 0h-1.101c-.138 0-.414 0-.276.275.413.276.826.413 1.239.55.689.414 1.24.827 1.928 1.24.964.55 1.79 1.24 2.892 1.515.688.275 1.377.413 2.065.55 1.515.414 3.167.689 4.82.138.826-.275 1.79-.413 2.341-1.377.137-.137.275-.137.413-.275.413-.275.826-.55.964-1.102.137-.826-.138-2.065-.964-3.029z"/></g></svg>