<svg width="40" height="40" fill="none" xmlns="http://www.w3.org/2000/svg"><g clip-path="url(#clip0)"><path d="M39.946 16.078a1.22 1.22 0 00-1.098-1.097c-.326-.031-8.035-.712-12.524 3.778-.974.973-1.704 2.098-2.25 3.266-.9-3.686-2.502-6.745-4.7-8.943-2.71-2.71-6.726-4.512-11.613-5.213-3.637-.522-6.47-.261-6.588-.25A1.22 1.22 0 00.075 8.717c-.011.12-.272 2.951.25 6.588.7 4.888 2.503 8.904 5.213 11.613 2.709 2.71 6.725 4.512 11.613 5.213 1.8.258 3.402.325 4.576.325a23.91 23.91 0 001.964-.071c.161.014.651.05 1.365.05 2.497 0 7.722-.443 11.112-3.832 4.489-4.49 3.809-12.198 3.778-12.525z" fill="#BFFB32"/><path d="M32.487 22.818a1.22 1.22 0 00-1.724 0l-6.693 6.693-10.373-10.373a1.22 1.22 0 00-1.724 1.724L23.139 32.03c.238.238.55.357.862.357l.07-.003c.022.001.045.003.068.003.312 0 .624-.119.862-.357l7.486-7.486a1.22 1.22 0 000-1.725z" fill="#8CDC52"/><path d="M38.848 14.98c-.326-.03-8.035-.71-12.524 3.779-.974.973-1.704 2.098-2.25 3.266l-.037-.145v10.528c.245.014.591.027 1.02.027 2.496 0 7.721-.443 11.11-3.832 4.49-4.49 3.81-12.199 3.779-12.525a1.22 1.22 0 00-1.098-1.097z" fill="#8CDC52"/><path d="M30.761 22.818l-6.693 6.693-.033-.033v2.907l.033-.002c.023.001.046.003.07.003.311 0 .623-.119.861-.357l7.487-7.486a1.22 1.22 0 00-1.725-1.725z" fill="#5DC378"/><path d="M30.476 22.857l-6.693 6.693-.033-.034v2.907l.033-.001.069.003c.312 0 .624-.119.862-.357l7.486-7.486a1.22 1.22 0 10-1.724-1.725z" fill="#5DC378"/></g><defs><clipPath id="clip0"><path fill="#fff" d="M0 0h40v40H0z"/></clipPath></defs></svg>