<svg width="40" height="40" fill="none" xmlns="http://www.w3.org/2000/svg"><g clip-path="url(#clip0)"><path d="M26.488 25.463c1.27-.188 2.66-.756 4.149-1.697a3.146 3.146 0 001.472-2.673c0-.365-.063-.72-.18-1.052 1.263-.19 2.646-.757 4.125-1.692a3.147 3.147 0 001.472-2.673c0-1.09-.55-2.09-1.473-2.673a14.243 14.243 0 00-1.966-1.05 6.506 6.506 0 001.123-.887c1.064-1.064 1.848-2.688 2.33-4.828a3.147 3.147 0 00-.849-2.931 3.146 3.146 0 00-2.93-.85c-2.14.483-3.765 1.267-4.829 2.33a6.499 6.499 0 00-.886 1.123 14.255 14.255 0 00-1.048-1.963 3.146 3.146 0 00-2.673-1.472c-1.091 0-2.09.55-2.673 1.472-.935 1.479-1.501 2.861-1.693 4.124a3.172 3.172 0 00-1.051-.18c-1.091 0-2.09.551-2.673 1.473-.941 1.489-1.51 2.88-1.697 4.15a3.17 3.17 0 00-1.067-.186c-1.09 0-2.09.55-2.673 1.473-1.172 1.853-1.766 3.556-1.766 5.061 0 2.573 1.8 5.252 2.847 6.593l-8.808 8.809a1.176 1.176 0 101.664 1.663l8.808-8.807c1.34 1.046 4.02 2.849 6.596 2.849 1.504 0 3.207-.594 5.061-1.766a3.168 3.168 0 001.288-3.74z" fill="#FFE475"/><path d="M37.526 15.676c0-1.09-.55-2.09-1.473-2.673a14.244 14.244 0 00-1.966-1.05 6.507 6.507 0 001.123-.887c1.064-1.064 1.848-2.688 2.33-4.828a3.146 3.146 0 00-.847-2.93l-33.62 33.62c.459.459 1.202.458 1.661 0l8.808-8.808c1.34 1.046 4.021 2.849 6.596 2.849 1.505 0 3.208-.594 5.061-1.766a3.146 3.146 0 001.473-2.673c0-.371-.065-.73-.185-1.067 1.27-.188 2.66-.756 4.149-1.697a3.147 3.147 0 001.473-2.673c0-.365-.063-.72-.18-1.052 1.263-.19 2.645-.757 4.124-1.692a3.146 3.146 0 001.473-2.673z" fill="#FFB726"/><path d="M37.992 39.656L.345 2.009A1.176 1.176 0 112.008.345l37.647 37.647a1.176 1.176 0 11-1.663 1.664z" fill="#FA4616"/></g><defs><clipPath id="clip0"><path fill="#fff" d="M0 0h40v40H0z"/></clipPath></defs></svg>