<svg width="40" height="40" fill="none" xmlns="http://www.w3.org/2000/svg"><g clip-path="url(#clip0)"><path d="M8.198 37.906l-6.104-6.103a4.903 4.903 0 010-6.926L17.361 9.61a9.887 9.887 0 018.315-2.816l.674-.673a3.385 3.385 0 01.395-4.306 3.383 3.383 0 014.78 0l6.66 6.661a3.383 3.383 0 010 4.78 3.385 3.385 0 01-4.305.394l-.674.674a9.887 9.887 0 01-2.816 8.315L15.123 37.906a4.903 4.903 0 01-6.925 0z" fill="#EDF6FF"/><path d="M33.206 14.324l.674-.674a3.385 3.385 0 004.305-.395 3.383 3.383 0 000-4.779l-3.33-3.33-29.44 29.44 4.388 4.388a4.905 4.905 0 005.32-1.068L30.39 22.64a9.887 9.887 0 002.816-8.315z" fill="#D6E9FF"/><path d="M37.992 39.656L.345 2.009A1.176 1.176 0 112.008.345l37.647 37.647a1.176 1.176 0 11-1.663 1.664z" fill="#FA4616"/></g><defs><clipPath id="clip0"><path fill="#fff" d="M0 0h40v40H0z"/></clipPath></defs></svg>