<svg width="24" height="24" fill="none" xmlns="http://www.w3.org/2000/svg"><path d="M4.311 4c-.2 0-.368.1-.502.267l-3.68 5a.67.67 0 00.1.9L3.575 13c-.535.367-.937.967-.937 1.667 0 1.1.904 2 2.008 2 .167 0 .3-.034.468-.067a1.632 1.632 0 001.54 1.067h.033A1.681 1.681 0 008.326 19c.167 0 .301-.033.435-.067.234.634.836 1.067 1.572 1.067.335 0 .636-.1.904-.267.334.2.702.267 1.104.267.569 0 1.037-.267 1.372-.6.234-.233.4-.467.535-.767.134.034.3.067.435.067.736 0 1.338-.433 1.64-1.033.133.033.233.033.367.033.77 0 1.405-.467 1.673-1.133.268.1.502.133.736.133.468 0 .97-.167 1.338-.5.368-.333.569-.867.569-1.433 0-.7-.401-1.2-.903-1.567l3.646-3c.268-.233.335-.633.134-.9l-3.68-5a.671.671 0 00-.636-.267c-.033 0-.067.034-.1.034-1.974.666-3.111.633-5.453.633-.736 0-1.406.2-2.008.567A3.799 3.799 0 0010 4.7c-2.342 0-3.48.033-5.454-.633C4.478 4 4.378 4 4.311 4zm.301 1.433C6.486 6 7.891 6 10.032 6c.368 0 .67.067.937.167L8.527 8.9c-.168.167-.201.433-.134.667.234.666.702 1.1 1.17 1.3.47.2.904.166 1.205.166.402-.033.67-.2.97-.366.302-.167.636-.4.937-.6.368-.267.502-.367.703-.534l5.955 4.7s.034 0 .034.034c.2.133.368.5.401.533 0 .267-.067.367-.167.433a.719.719 0 01-.402.134c-.1 0-.334-.1-.334-.067.1.067-.067-.033-.201-.133s-.301-.267-.535-.4c-.435-.334-.97-.767-1.506-1.2-1.07-.867-2.141-1.7-2.141-1.7-.301-.234-.703-.2-.937.1-.234.3-.2.7.1.933 0 0 1.071.833 2.142 1.7.535.4 1.037.833 1.472 1.167v.1c0 .3-.234.533-.502.533a.38.38 0 01-.268-.1c.067.033-.033-.033-.134-.1-.1-.067-.2-.167-.367-.3-.302-.233-.67-.533-1.038-.833-.736-.6-1.438-1.2-1.438-1.2-.134-.134-.335-.167-.502-.167a.673.673 0 00-.602.733c0 .167.1.367.267.467l1.472 1.2c.368.3.736.6 1.037.833.034.034.068.034.068.067-.068.233-.268.4-.469.4a.38.38 0 01-.268-.1s-1.472-1.067-2.308-1.767c-.134-.133-.335-.166-.502-.166a.673.673 0 00-.602.733c0 .167.1.367.268.467.602.466 1.27.966 1.773 1.366v.134c0 .1-.067.3-.235.433-.167.133-.334.233-.434.233-.201 0-.268 0-.368-.033.033-.1.033-.2.033-.3 0-.9-.77-1.667-1.673-1.667-.167 0-.301.034-.435.067-.234-.633-.836-1.067-1.572-1.067h-.034a1.681 1.681 0 00-1.64-1.333h-.033a2.119 2.119 0 00-1.204-1.5L1.668 9.633l2.944-4.2zm14.855 0l3.045 4.134-3.413 2.766-5.32-4.166a.658.658 0 00-.836 0s-.468.4-1.037.766c-.268.2-.569.4-.837.534-.267.133-.502.2-.435.2-.167 0-.401 0-.568-.067a.6.6 0 01-.235-.167l2.51-2.766c.167-.067.3-.167.368-.3.435-.267.803-.367 1.338-.367 2.141 0 3.513 0 5.42-.567zM4.679 14c.368 0 .67.3.67.667a.67.67 0 01-1.339 0A.67.67 0 014.68 14zm2.008 1.667c.2 0 .334.133.334.333s-.134.333-.334.333c-.201 0-.335-.133-.335-.333s.134-.333.335-.333zM8.359 17c.201 0 .335.133.335.333s-.134.334-.335.334c-.2 0-.334-.134-.334-.334S8.159 17 8.359 17zm2.008 1c.2 0 .334.133.334.333s-.133.334-.334.334-.335-.134-.335-.334.134-.333.335-.333z" fill="#78BE21"/></svg>