<svg width="22" height="22" fill="none" xmlns="http://www.w3.org/2000/svg"><path d="M9.937 19.87C4.437 19.87 0 15.426 0 9.953 0 4.481 4.437 0 9.937 0c5.5 0 9.936 4.444 9.936 9.953 0 1.763-.476 3.49-1.32 4.995-.293.514-.99.698-1.503.404-.513-.294-.697-.991-.403-1.506.696-1.175 1.026-2.497 1.026-3.893-.036-4.297-3.483-7.75-7.736-7.75-4.254 0-7.737 3.453-7.737 7.75a7.72 7.72 0 007.737 7.75 7.982 7.982 0 003.886-1.029c.514-.293 1.21-.11 1.504.404.293.515.11 1.213-.404 1.506a10.396 10.396 0 01-4.986 1.286z" fill="#fff"/><path d="M9.937 19.87C4.437 19.87 0 15.426 0 9.953 0 8.19.477 6.464 1.32 4.958c.293-.514.99-.698 1.503-.404.514.294.697.992.404 1.506A8.017 8.017 0 002.2 9.953c0 4.26 3.447 7.75 7.737 7.75a7.72 7.72 0 007.736-7.75c0-4.297-3.483-7.75-7.736-7.75-1.362.006-2.7.36-3.887 1.03-.513.293-1.21.11-1.503-.405-.294-.514-.11-1.212.403-1.506A10.22 10.22 0 019.937 0c5.463 0 9.9 4.444 9.9 9.953a9.89 9.89 0 01-9.9 9.917z" fill="#fff"/><path d="M20.9 22c-.293 0-.55-.11-.77-.33l-4.657-4.665c-.44-.44-.44-1.139 0-1.543.44-.44 1.137-.44 1.54 0l4.657 4.665c.44.44.44 1.139 0 1.543-.22.22-.513.33-.77.33z" fill="#fff"/></svg>