<svg width="62" height="65" fill="none" xmlns="http://www.w3.org/2000/svg"><path d="M50.4 57.776H38.346c-.792 0-1.44-.645-1.44-1.44 0-.795.648-1.44 1.44-1.44H50.4c2.863 0 5.885-1.896 7.51-4.721 1.564-2.702 1.598-6.41.095-9.008l-8.892-15.419c-.4-.688-.165-1.57.53-1.97a1.432 1.432 0 011.97.53L60.5 39.73c2.025 3.508 1.99 8.287-.09 11.888-2.163 3.738-6.089 6.158-10.012 6.158zM12.919 24.055a1.436 1.436 0 01-1.244-2.16l9.338-16.18A11.471 11.471 0 0130.924 0c4.08 0 7.876 2.195 9.912 5.718l6.982 12.086c.4.689.165 1.57-.535 1.967-.686.404-1.57.17-1.965-.527l-6.97-12.086a8.59 8.59 0 00-7.42-4.278 8.588 8.588 0 00-7.42 4.275l-9.342 16.18a1.44 1.44 0 01-1.247.72zM29.709 57.776h-18.25c-3.809 0-7.703-2.474-9.912-6.305-2.063-3.558-2.063-8.172 0-11.735l6.34-11.603a1.444 1.444 0 011.958-.57c.697.38.95 1.262.568 1.959L4.056 41.15c-1.547 2.688-1.547 6.242-.018 8.895 1.711 2.95 4.62 4.862 7.42 4.862H29.71c.792 0 1.44.645 1.44 1.44a1.43 1.43 0 01-1.44 1.429z" fill="#fff"/><path d="M26.964 64.977a1.439 1.439 0 01-1.181-2.264l4.45-6.371-4.444-6.283c-.456-.656-.3-1.55.342-2.007a1.44 1.44 0 012.008.342l5.03 7.112c.348.499.348 1.158.005 1.657l-5.03 7.2c-.278.401-.728.614-1.18.614zM11.841 25.93a1.455 1.455 0 01-1.359-.965l-2.538-7.28a1.434 1.434 0 01.885-1.831 1.43 1.43 0 011.837.884l2.15 6.173 6.682-.884a1.45 1.45 0 011.621 1.241c.101.787-.455 1.512-1.244 1.622l-7.846 1.034c-.064.003-.124.006-.188.006zM45.82 30.412c-.22 0-.438-.052-.649-.156a1.441 1.441 0 01-.642-1.935l3.18-6.268c.26-.51.792-.824 1.362-.78l7.838.423c.792.048 1.4.723 1.363 1.515-.038.792-.715 1.495-1.513 1.36l-6.898-.378-2.745 5.42a1.46 1.46 0 01-1.297.799z" fill="#fff"/></svg>