<svg width="20" height="20" fill="none" xmlns="http://www.w3.org/2000/svg"><path d="M18.672 4.377V1.375a.75.75 0 00-.75-.75H2.078a.75.75 0 00-.75.75v3.002a.75.75 0 00-.703.748v3.087a4.148 4.148 0 00.338 1.65c.1.239.225.464.365.677v8.086c0 .413.335.75.75.75h15.844a.75.75 0 00.75-.75v-8.086a4.189 4.189 0 00.703-2.327V5.125a.75.75 0 00-.703-.748zM3.016 2.313h13.968v2.062H3.016V2.312zM11.5 17.69h-3v-2.44h3v2.44zm5.484 0H13V14.5a.75.75 0 00-.75-.75h-4.5a.75.75 0 00-.75.75v3.19H3.016v-5.677a4.225 4.225 0 001.86.424 4.284 4.284 0 002.557-.848.015.015 0 01.015 0c.28.21.584.383.907.518.522.22 1.078.33 1.65.33.572 0 1.125-.11 1.65-.33.323-.136.628-.31.907-.518a.015.015 0 01.014 0c.28.21.584.383.907.518.522.22 1.078.33 1.65.33a4.233 4.233 0 001.86-.424v5.677h-.009zm.703-9.478c0 1.401-1.148 2.538-2.561 2.538-.957 0-1.79-.518-2.231-1.287a.375.375 0 00-.326-.19h-.014a.378.378 0 00-.326.19A2.56 2.56 0 0110 10.75a2.563 2.563 0 01-2.227-1.282.387.387 0 00-.67 0 2.57 2.57 0 01-2.229 1.282c-1.413 0-2.561-1.137-2.561-2.538V6.074c0-.007.004-.011.011-.011h15.352c.007 0 .012.004.012.011v2.138z" fill="#4698CA"/></svg>