<svg width="24" height="12" fill="none" xmlns="http://www.w3.org/2000/svg"><path d="M19.884 5.851c-1.785 0-3.223 1.389-3.223 3.075v2.43c0 .347.298.644.645.644a.656.656 0 00.644-.645v-2.43c0-.941.843-1.735 1.885-1.735h.892c1.042 0 1.884.794 1.884 1.736v2.43c0 .347.298.644.645.644a.656.656 0 00.645-.645v-2.43c0-1.685-1.438-3.074-3.223-3.074h-.794zM17.752 2.579c0 1.438 1.19 2.578 2.579 2.578 1.388 0 2.578-1.19 2.578-2.578C22.91 1.19 21.77 0 20.331 0c-1.439 0-2.579 1.19-2.579 2.579zm3.868 0a1.28 1.28 0 01-1.29 1.289c-.743 0-1.289-.546-1.289-1.29 0-.743.546-1.289 1.29-1.289.694.05 1.289.595 1.289 1.29zM4.562 7.19c1.041 0 1.884.794 1.884 1.736v2.43c0 .347.298.644.645.644a.656.656 0 00.645-.645v-2.43c0-1.685-1.438-3.074-3.224-3.074H3.72C1.934 5.851.496 7.24.496 8.926v2.43c0 .347.297.644.645.644a.656.656 0 00.644-.645v-2.43c0-.941.843-1.735 1.884-1.735h.893zM4.165 5.207c1.438 0 2.579-1.19 2.579-2.579C6.744 1.24 5.554.05 4.165.05c-1.388 0-2.628 1.14-2.628 2.578s1.19 2.579 2.628 2.579zm0-3.868c.694 0 1.29.545 1.29 1.29a1.28 1.28 0 01-1.29 1.288c-.694 0-1.289-.595-1.289-1.289s.595-1.29 1.29-1.29zM15.868 11.355v-2.43c0-1.685-1.438-3.074-3.223-3.074h-.893c-1.785 0-3.223 1.389-3.223 3.075v2.43c0 .347.297.644.645.644a.656.656 0 00.644-.645v-2.43c0-.941.843-1.735 1.885-1.735h.892c1.041 0 1.884.794 1.884 1.736v2.43c0 .347.298.644.645.644.347 0 .744-.297.744-.645zM9.62 2.628c0 1.438 1.19 2.579 2.578 2.579 1.389 0 2.579-1.19 2.579-2.579 0-1.388-1.19-2.578-2.579-2.578C10.81.05 9.62 1.19 9.62 2.628zm3.868 0a1.28 1.28 0 01-1.29 1.29c-.743 0-1.289-.546-1.289-1.29s.546-1.29 1.29-1.29c.743 0 1.289.596 1.289 1.29z" fill="#78BE21"/></svg>