<svg width="52" height="44" fill="none" xmlns="http://www.w3.org/2000/svg"><path d="M47.084 22.4a19.258 19.258 0 002.291-8.715 13.575 13.575 0 00-2.541-7.88A13.646 13.646 0 0040.18.851a13.693 13.693 0 00-8.303-.194A13.652 13.652 0 0025 5.295 13.652 13.652 0 0018.122.657a13.693 13.693 0 00-8.303.194 13.646 13.646 0 00-6.653 4.954 13.575 13.575 0 00-2.541 7.88c0 15.144 22.75 29.155 23.79 29.803a1.254 1.254 0 001.235 0 82.526 82.526 0 007.475-5.297 10.659 10.659 0 0012.197 2.401 10.625 10.625 0 003.53-2.608 10.584 10.584 0 002.607-8.168 10.568 10.568 0 00-1.37-4.162 10.604 10.604 0 00-2.94-3.255h-.065zM25 41.073C21.376 38.726 2.965 26.206 2.965 13.685a11.217 11.217 0 012.31-6.84 11.28 11.28 0 016.005-4.03 11.312 11.312 0 017.227.44 11.267 11.267 0 015.47 4.729 1.25 1.25 0 001.6.39 1.25 1.25 0 00.447-.39 11.266 11.266 0 015.469-4.73 11.312 11.312 0 017.227-.44 11.28 11.28 0 016.006 4.031 11.216 11.216 0 012.309 6.84 16.77 16.77 0 01-1.999 7.516c-1.344-.601-2.8-.91-4.273-.907a10.637 10.637 0 00-5.347 1.423 10.593 10.593 0 00-3.901 3.913 10.55 10.55 0 00.099 10.65A81.281 81.281 0 0125 41.074zm15.763-1.927a8.307 8.307 0 01-4.61-1.384 8.266 8.266 0 01-3.059-3.704 8.235 8.235 0 011.786-9.008 8.313 8.313 0 019.034-1.798 8.28 8.28 0 013.722 3.043 8.241 8.241 0 01-1.024 10.426 8.3 8.3 0 01-5.85 2.425z" fill="#fff"/><path d="M40.57 26L45 28.353v5.294L40.52 36 36 33.647v-5.294L40.57 26zm-4.008 3.261v4.022l3.938 2.05v-4.309l-.002.002-3.935-1.765zm7.876 0l-3.376 1.511v4.284l3.376-1.772v-4.023zm-5.907-1.556l-1.893.975 3.86 1.706 1.664-.735-3.631-1.946zm2.035-1.047l-1.409.725 3.66 1.979 1.551-.685-3.802-2.02z" fill="#fff"/></svg>