<svg width="22" height="21" fill="none" xmlns="http://www.w3.org/2000/svg"><path fill-rule="evenodd" clip-rule="evenodd" d="M4.815 15.409c-1.149 1.313-1.603 2.867-1.845 3.834a1 1 0 11-1.94-.485c.258-1.034.804-2.98 2.28-4.666C4.822 12.363 7.227 11 11 11c3.773 0 6.178 1.363 7.69 3.091 1.476 1.688 2.022 3.633 2.28 4.666a.997.997 0 01-.723 1.23 1 1 0 01-1.217-.745c-.242-.966-.696-2.52-1.845-3.834C16.072 14.137 14.227 13 11 13c-3.227 0-5.072 1.137-6.185 2.409zM11 2a3 3 0 100 6 3 3 0 000-6zM6 5a5 5 0 1110 0A5 5 0 016 5z" fill="#4698CA"/></svg>