<svg width="51" height="48" fill="none" xmlns="http://www.w3.org/2000/svg"><path d="M37.09 42.43a.73.73 0 00-.72.73v2.66a.73.73 0 01-.73.73H2.18a.73.73 0 01-.72-.73V2.18a.73.73 0 01.72-.73h7.28v.73a3.64 3.64 0 003.63 3.64h11.64a3.65 3.65 0 003.64-3.64v-.73h7.27a.73.73 0 01.73.73v14.19a.73.73 0 00.72.73.73.73 0 00.73-.73V2.18A2.19 2.19 0 0035.64 0H2.18A2.19 2.19 0 000 2.18v43.64A2.19 2.19 0 002.18 48h33.46a2.19 2.19 0 002.18-2.18v-2.66a.73.73 0 00-.73-.73zm-10.18-41v.73a2.19 2.19 0 01-2.18 2.18H13.09a2.19 2.19 0 01-2.18-2.18v-.71l16-.02z" fill="#fff"/><path d="M32.3 11a.73.73 0 00-.72-.73H14.24a.73.73 0 100 1.46h17.34a.73.73 0 00.72-.73zM40.158 29.187l-3.724 4.617-1.702-1.924a.428.428 0 00-.307-.133.428.428 0 00-.306.133.52.52 0 00-.119.334.52.52 0 00.12.334l2.033 2.305a.44.44 0 00.324.147.416.416 0 00.178-.043.45.45 0 00.147-.117l4.079-5.012a.504.504 0 00.119-.355.532.532 0 00-.147-.343.448.448 0 00-.15-.1.419.419 0 00-.347.016.458.458 0 00-.143.114l-.055.027zM8.43 8.12a2.91 2.91 0 10-.02 5.82 2.91 2.91 0 00.02-5.82zm0 4.37a1.46 1.46 0 11-.02-2.92 1.46 1.46 0 01.02 2.92zM19.94 19.76h-5.7a.73.73 0 000 1.45h5.7a.73.73 0 100-1.45zM8.43 17.58a2.91 2.91 0 10-.02 5.82 2.91 2.91 0 00.02-5.82zm0 4.36a1.46 1.46 0 111.45-1.45 1.45 1.45 0 01-1.45 1.45zM14.24 30.67h5.7a.73.73 0 100-1.46h-5.7a.73.73 0 100 1.46zM8.43 27a2.91 2.91 0 10-.02 5.819A2.91 2.91 0 008.43 27zm0 4.37a1.46 1.46 0 111.45-1.46 1.46 1.46 0 01-1.45 1.49v-.03zM14.24 40.12h11.52a.72.72 0 00.72-.72.73.73 0 00-.72-.73H14.24a.73.73 0 00-.51 1.24.72.72 0 00.51.21zM8.43 36.49a2.91 2.91 0 10-.02 5.819 2.91 2.91 0 00.02-5.819zm0 4.36a1.46 1.46 0 111.45-1.45 1.45 1.45 0 01-1.45 1.45z" fill="#fff"/><path d="M44.39 34.362l5.473-5.345a.936.936 0 00.243-.948.961.961 0 00-.756-.64l-7.574-1.103-3.384-6.857a.974.974 0 00-1.666 0l-3.396 6.857-7.562 1.102a.936.936 0 00-.487 1.59l5.486 5.344-1.282 7.536a.948.948 0 00.372.923.949.949 0 00.986.064l6.768-3.563 6.767 3.563a.923.923 0 00.435.115.936.936 0 00.923-1.102l-1.346-7.536zm-1.922-.167l1.064 6.165-5.537-2.91a.885.885 0 00-.871 0l-5.537 2.91 1.064-6.165a.923.923 0 00-.27-.82l-4.537-4.37 6.19-.897a.91.91 0 00.706-.513l2.768-5.6 2.768 5.6a.897.897 0 00.705.513l6.178.897-4.422 4.344a.923.923 0 00-.27.846z" fill="#fff"/></svg>