<svg width="24" height="24" fill="none" xmlns="http://www.w3.org/2000/svg"><path d="M9.343 13h6.314c.25 0 .493.063.704.182a1.238 1.238 0 01.628 1.26 1.34 1.34 0 01-.335.718l-3.157 3.431a1.32 1.32 0 01-.449.302 1.449 1.449 0 01-1.096 0 1.32 1.32 0 01-.45-.302L8.347 15.16a1.34 1.34 0 01-.335-.719 1.238 1.238 0 01.628-1.26c.21-.118.455-.181.704-.181zM15.657 11H9.343c-.25 0-.493-.063-.704-.182a1.238 1.238 0 01-.628-1.26c.034-.262.15-.511.335-.718l3.157-3.431c.124-.129.277-.232.449-.302a1.448 1.448 0 011.096 0c.172.07.325.173.45.302l3.156 3.431c.185.207.3.456.335.719a1.239 1.239 0 01-.628 1.26c-.21.118-.455.181-.704.181z" fill="#4698CA"/></svg>