<svg width="24" height="24" fill="none" xmlns="http://www.w3.org/2000/svg"><g clip-path="url(#clip0)" fill="#78BE21"><path d="M20.645 4.839c-.367-.392-.563-.833-.563-1.372 0-.539.196-1.004.563-1.371a1.907 1.907 0 011.396-.588c.514 0 .98.196 1.371.563.392.368.588.833.588 1.372 0 .539-.196 1.004-.588 1.371-.392.368-.832.563-1.371.563-.539.025-1.004-.171-1.396-.538zM19.739 14.071c-.49-.563-2.915-3.134-6.49-4.359l.588-.686c1.102.368 2.694 1.176 3.673 1.886l2.45-2.84s1.126-1.421.366-2.621c-.49-.808-1.346-.906-1.69-.906H9.87c-.612 0-1.102.49-1.102 1.102 0 .612.49 1.102 1.102 1.102h5.927l-1.96 2.277a10.24 10.24 0 00-3.624-.612 6.665 6.665 0 00-1.959.343c-.76-.906-1.175-1.812-1.175-1.837l-.76.319c.025.073.417.906 1.127 1.836-.588.27-1.127.588-1.616.882-.49.294-.98.588-1.42.76-2.646.88-3.65-.76-3.699-.81l-.71.417c.024.025 1.371 2.278 4.678 1.2.514-.22 1.028-.514 1.542-.832.564-.343 1.127-.686 1.764-.931.465.49 1.053.93 1.714 1.249.661.294 1.322.49 1.886.612l-2.229 2.596H4.898c-.367 0-.686.123-.93.343-.246.22-.368.539-.368.882 0 .343.122.636.367.881s.564.368.906.368h5.266c.22 0 .416-.025.588-.05.44-.073.759-.22.93-.416l2.498-2.694s2.425 1.127 3.478 2.254c1.934 2.081 1.64 6.146 1.616 6.22-.024.539.514 1.347 1.371 1.224.735-.098 1.029-.808 1.029-1.42 0-.049.27-5.118-1.91-7.739zm-7.494-3.184a8.576 8.576 0 01-2.18-.66 4.288 4.288 0 01-1.175-.784 7.422 7.422 0 011.347-.196c1.053-.025 2.081.171 3.012.465l-1.004 1.175z"/></g><defs><clipPath id="clip0"><path fill="#78BE21" d="M0 0h24v24H0z"/></clipPath></defs></svg>