<svg width="130" height="124" fill="none" xmlns="http://www.w3.org/2000/svg"><path opacity=".12" d="M129.652 86.597L64.826 124 0 86.597l64.826-37.402 64.826 37.402z" fill="#000"/><path d="M119.604 86.458L64.826 118.07V63.221l54.778-31.61v54.847z" fill="#399EFF"/><path d="M64.825 118.069l-54.778-31.61V31.61l54.778 31.61v54.848z" fill="#43BCFF"/><path d="M119.602 31.61L64.825 63.222l-54.778-31.61L64.825 0l54.777 31.61z" fill="#8FD4FF"/><path d="M96.507 18.282L41.8 49.894l-8.652-4.954 54.777-31.61 8.583 4.953z" fill="#FF782D"/><path d="M41.73 69.85V49.893l-8.583-4.954V66.64l1.046 1.325 1.117-.14 1.046 1.396 1.117-.14 1.047 1.396 1.046-.14 1.117 1.396 1.116-.14V69.85h-.07z" fill="#FF590E"/><path d="M112.071 64.966L87.438 79.2c-.349.21-.698 0-.698-.489V61.058c0-.489.28-1.117.698-1.326l24.633-14.235c.348-.21.697 0 .697.488V63.57c0 .558-.279 1.186-.697 1.396z" fill="#BDE6FF"/><path d="M108.58 53.592L90.926 63.779v-1.674l17.654-10.188v1.675zM108.58 58.057L90.926 68.245V66.64l17.654-10.188v1.605zM105.232 64.547l-3.14 1.814v-1.675l3.14-1.814v1.675zM100.276 67.338l-9.35 5.443v-1.675l9.35-5.373v1.605zM57.496 108.579l-16.607-9.56v-3.49l16.607 9.56v3.49zM43.121 93.785V83.388l3.07 1.744V95.53l-3.07-1.744z" fill="#fff"/><path d="M40.889 83.597l3.768-2.163 3.768 6.49-7.536-4.327zM52.125 99.019V88.55l3.07 1.815v10.397l-3.07-1.745z" fill="#fff"/><path d="M49.89 88.76l3.769-2.162 3.838 6.559-7.606-4.396z" fill="#fff"/><path d="M83.597 90.924c-.14 2.163-1.745 4.885-3.559 6.14-1.814 1.187-3.14.42-3-1.744.139-2.163 1.744-4.884 3.558-6.14 1.745-1.187 3.14-.42 3 1.744z" fill="#143684"/><path d="M85.274 94.901l-1.187-.628c.768-1.465 1.117-3.07 1.117-4.396 0-1.465-.489-2.512-1.256-3-.837-.489-2.024-.35-3.28.418a6.986 6.986 0 00-1.814 1.466l-.977-.977c.698-.698 1.396-1.256 2.093-1.675 1.745-.977 3.35-1.116 4.606-.419 1.256.698 1.954 2.233 1.954 4.187 0 1.605-.419 3.35-1.256 5.024zM77.805 101.042c-.628 0-1.256-.139-1.814-.488-1.256-.698-1.954-2.233-1.954-4.187 0-1.535.419-3.28 1.256-5.024l1.186.628c-.767 1.465-1.116 3.07-1.116 4.396 0 1.465.488 2.512 1.256 3 .837.489 2.024.35 3.28-.418a6.987 6.987 0 001.814-1.466l.977.977c-.698.698-1.396 1.256-2.093 1.675-.977.558-1.885.907-2.792.907z" fill="#143684"/></svg>