<svg width="121" height="80" fill="none" xmlns="http://www.w3.org/2000/svg"><g clip-path="url(#clip0)"><path fill-rule="evenodd" clip-rule="evenodd" d="M113.011 70.677h-.038c1.088-1.625 2.836-4.565 2.836-6.886 0-1.006-1.204-3.52-4.663-3.598-.583 0-1.166.271-1.671.774-.699-.464-1.593-.774-2.487-.774-4.779 0-8.121 4.952-8.976 8.588-.544.62-1.088 1.2-1.555 1.625.04-.387.117-.812.195-1.16.583-.697 2.331-2.94 2.331-5.339 0-.657-.155-1.2-.427-1.663 2.176-.426 3.653-2.05 3.808-3.869.078-1.238-1.321-3.714-4.197-3.714-2.487.04-4.663 1.857-4.663 3.946 0 .658.233 1.238.622 1.741-2.487.813-4.158 4.874-4.897 8.24-.543.619-1.049 1.122-1.437 1.509.855-1.586 1.904-3.753 1.943-6.19.039-2.592-2.526-3.83-3.925-3.714-1.477.117-3.07.774-4.78 2.283-.233-.62-1.165-2.321-3.225-2.283-2.254.04-3.925 1.354-4.508 3.52a5.985 5.985 0 01-.738.31 4.764 4.764 0 00-1.244-1.934c.894-.155 1.4-1.006 1.438-1.857.078-1.509-2.293-4.68-4.469-4.952-1.088-.116-4.935 2.515-4.935 4.41 0 .697.467 1.277 1.088 1.51.04.038.04.077.078.115-.389.348-.7.735-.894 1.2-.155-.04-.31-.078-.505-.078-.971 0-4.391 2.515-5.401 6.074a35.98 35.98 0 00-1.322-2.012c-1.943-2.901-3.769-5.648-2.448-8.008.933-1.586 2.293-1.895 3.303-1.895.506 0 1.01.077 1.438.232.855.31 1.205.58 1.554.89l.078.038c.233.194.622.542 1.166.542.389 0 .738-.194 1.01-.503.35-.464.467-1.083.35-1.702-.194-.89-1.399-2.476-3.109-3.443-1.476-.851-3.341-1.315-5.362-1.315-4.275 0-8.083 1.972-9.754 5.067-1.554 2.824-1.05 6.112 1.36 9.362 1.01 1.315 2.02 2.476 2.915 3.482 1.67 1.857 3.108 3.559 3.108 4.72a.668.668 0 01-.233.463c-.116.078-.583.387-1.67.271-5.674-.58-6.218-3.52-7.345-3.327-.933.194-1.477.929-1.71 1.316-.544.85-.583 1.856-.078 2.785 1.943 3.365 7.073 4.487 10.181 4.487 4.314 0 7.228-1.857 8.083-5.029 1.321 1.432 2.76 1.896 4.508 1.896 3.186 0 5.712-1.78 7.266-4.14v.078c.195 3.83 3.265 4.062 3.692 4.062 2.681 0 3.964-2.67 4.896-4.797.195 4.1 3.498 4.797 4.819 4.797 1.904 0 3.225-.464 5.168-2.244 1.088 1.74 2.76 2.244 4.08 2.244 1.866 0 3.576-.813 5.324-2.36 1.477 1.857 3.148 2.36 4.858 2.36 1.515 0 2.953-.464 4.119-1.316l.039.04a3.724 3.724 0 002.836 1.314c3.07 0 4.469-2.243 4.469-3.752.039-.967-.777-2.282-2.293-2.437zm-48.923-1.586c0-.813.272-1.586.544-2.244.194.697 1.204 1.509 2.564 1.818-.66 1.045-1.632 1.857-2.72 1.857h-.155a4.422 4.422 0 01-.233-1.431zm40.957 1.973v-.271c0-1.006.389-2.166.777-2.824.195-.348.583-.967 1.089-1.47-.467 1.586-.778 3.133-.894 4.1-.311.271-.622.465-.972.465zM35.176 60.193c-.544-.038-1.166.271-1.67.774-.7-.464-1.594-.774-2.488-.774-4.78 0-8.121 4.952-8.976 8.588-.544.62-1.088 1.2-1.555 1.625.04-.387.117-.812.195-1.16.583-.697 2.331-2.94 2.331-5.339 0-.657-.155-1.2-.427-1.663 2.176-.426 3.808-2.012 3.808-3.869 0-1.083-.7-2.36-2.448-3.288 1.67-.387 2.992-.774 3.458-1.083.855-.58 1.088-1.664.739-2.592-.156-.426-.777-1.934-3.109-1.78-3.614.194-15.35.58-22.15.697-1.088.038-1.748.773-1.865 1.818-.155.967 0 1.934 1.282 3.017.933.658 1.749.852 2.837 1.16.894.233 2.176.31 3.925.31-1.05 2.476-2.565 5.88-3.964 9.014-1.632 3.714-3.07 6.925-3.458 7.969-.35.967-.233 2.089.35 2.901 1.204 1.664 3.652 2.438 4.818 2.476 1.826.078 2.41-1.122 2.837-2.011.621-1.393 1.943-4.565 3.575-8.202-.233 1.161-.389 2.244-.35 3.056.039 4.294 3.497 5.03 4.819 5.03 1.865 0 3.575-.813 5.323-2.36 1.244 1.818 3.148 2.36 4.858 2.36 1.515 0 2.953-.465 4.119-1.316l.039.039c.7.812 1.71 1.315 2.836 1.315 3.07 0 4.508-2.243 4.47-3.752-.04-1.818-1.827-2.399-2.294-2.399h-.038c1.088-1.624 2.72-4.564 2.836-6.886.04-1.276-1.088-3.559-4.663-3.675zm-6.1 10.87v-.27c0-1.006.388-2.166.777-2.824.194-.348.582-.967 1.088-1.47-.467 1.586-.777 3.133-.894 4.1-.311.271-.66.465-.972.465zM17.533 58.84a2.69 2.69 0 00.583 1.51c-.66.193-1.243.657-1.749 1.198.389-.928.817-1.856 1.166-2.707z" fill="#21317D"/><path fill-rule="evenodd" clip-rule="evenodd" d="M70.927 64.99c1.476-.077 3.536-.967 5.09-2.282a.558.558 0 01.389-.155c.31 0 .622.232.622.58 0 .194-.078.349-.311.542 0 0-2.37 2.166-5.946 2.979-.505 3.79-3.536 7.93-8.044 7.93-2.836 0-4.39-1.586-4.39-4.487 0-3.985 4.118-7.04 4.662-7.04.273 0 .39.115.39.309 0 .696-1.322 2.475-1.322 4.487 0 1.818.7 3.25 2.331 3.25 2.293 0 3.925-2.322 4.47-4.294h-.234c-2.565 0-4.391-1.625-4.391-3.482 0-1.277 1.516-2.553 2.953-2.553 2.177 0 3.614 1.508 3.73 4.216zm-2.954-1.586c-.31 0-.582.232-.582.62 0 .618.7 1.082 1.865 1.121-.078-1.2-.777-1.74-1.282-1.74z" fill="#fff"/><path fill-rule="evenodd" clip-rule="evenodd" d="M94.165 64.255c.31 0 .583.232.583.503 0 .155-.04.31-.195.503-6.917 8.201-8.238 9.323-11.114 9.323-2.486 0-2.875-1.934-2.875-3.21 0-2.631 2.137-5.455 2.137-6.422 0-.233-.077-.31-.35-.31-1.01 0-3.575 3.211-4.507 5.261-.894 2.05-1.943 4.681-4.12 4.681-1.049 0-1.748-.657-1.748-2.244 0-2.553 1.321-3.21 2.137-8.356.35-2.243 1.904-3.21 3.575-3.21 1.088 0 1.516.657 1.516 1.78 0 1.005-.311 2.359-.933 3.984 2.02-2.708 4.897-5.764 7.422-5.764 1.322 0 1.982.735 1.982 1.934 0 2.901-1.787 5.454-2.526 7.04-.272.62-.388 1.122-.388 1.548 0 .658.31 1.044.738 1.044 1.166 0 3.614-2.282 7.889-7.698.31-.27.543-.387.777-.387z" fill="#fff"/><path fill-rule="evenodd" clip-rule="evenodd" d="M103.025 64.255c.31 0 .582.194.582.503 0 .155-.077.31-.194.503-4.663 6.538-7.46 9.323-10.647 9.323-2.487 0-2.876-1.934-2.876-3.21 0-3.676 2.293-10.6 5.168-10.6 1.322 0 1.982.735 1.982 1.934 0 2.476-2.215 4.835-2.215 4.835-.194.774-.388 2.09-.388 2.708 0 1.006.272 1.587.816 1.587 1.476 0 4.585-3.946 7.072-7.234.194-.233.428-.349.7-.349zm-8.472-6.112c0-1.547 1.71-2.901 3.614-2.901 1.36 0 2.215.85 2.215 1.895 0 1.548-1.67 2.786-3.497 2.94-1.321 0-2.332-.85-2.332-1.934z" fill="#fff"/><path fill-rule="evenodd" clip-rule="evenodd" d="M113.011 71.257c.234 0 .35.271.35.62 0 .85-.932 2.707-3.419 2.707-1.322 0-2.254-.89-2.643-1.934-1.127 1.16-2.603 1.934-4.43 1.934-2.798 0-4.08-1.586-4.08-4.487 0-3.211 3.303-9.285 8.16-9.285 1.05 0 2.099.62 2.682 1.2.466-.735 1.01-1.2 1.515-1.2 1.321 0 2.72.62 2.72 1.78 0 2.901-3.419 7.389-3.419 7.389 0 1.276.233 2.205 1.088 2.205 1.01-.039 1.166-.929 1.476-.929zm-5.945-.696c.039-1.16.738-4.333 1.71-6.809a2.571 2.571 0 00-1.244-.31c-1.515 0-2.759 1.394-3.536 2.786-.466.851-.933 2.205-.933 3.366 0 1.16.467 2.089 1.827 2.089.855 0 1.593-.426 2.176-1.122zM70.072 59.884c-.777 0-1.438-1.431-2.137-1.431-.739 0-2.099 1.392-2.954 1.392-.272 0-.621-.193-.621-.541 0-1.16 3.186-3.366 3.886-3.366.816 0 2.525 1.934 2.525 3.134 0 .309-.233.812-.7.812zM58.103 54.661c-1.67-.619-4.507-.502-6.023 2.128-2.953 5.145 5.868 10.987 5.324 15.784-1.01 8.974-18.186 4.37-15.583.27.35-.58.816-1.121 1.438-.425 2.332 2.824 7.461 3.636 9.093 2.398.466-.348.66-1.006.622-1.431-.272-2.553-3.303-4.836-6.218-8.704-1.36-1.818-3.07-4.99-1.282-8.24 2.41-4.449 9.52-5.725 13.679-3.366 1.204.697 2.137 2.05 1.515 2.863-.155.194-.389 0-.622-.193-.388-.31-.816-.697-1.943-1.084zM27.016 64.255c.31 0 .583.194.583.503 0 .155-.078.31-.195.503-4.663 6.538-7.46 9.323-10.647 9.323-2.487 0-2.876-1.934-2.876-3.21 0-3.676 2.293-10.6 5.169-10.6 1.32 0 1.982.735 1.982 1.934 0 2.476-2.215 4.835-2.215 4.835-.195.774-.39 2.09-.39 2.708 0 1.006.273 1.587.817 1.587 1.477 0 4.585-3.946 7.072-7.234.233-.233.467-.349.7-.349zm-8.433-6.112c0-1.547 1.71-2.901 3.614-2.901 1.36 0 2.215.85 2.215 1.895 0 1.548-1.67 2.786-3.497 2.94-1.36 0-2.332-.85-2.332-1.934z" fill="#fff"/><path fill-rule="evenodd" clip-rule="evenodd" d="M37.041 71.257c.234 0 .35.271.35.62 0 .85-.932 2.707-3.42 2.707-1.32 0-2.253-.89-2.642-1.934-1.127 1.16-2.603 1.934-4.43 1.934-2.798 0-4.08-1.586-4.08-4.487 0-3.211 3.303-9.285 8.16-9.285 1.05 0 2.099.62 2.682 1.2.466-.735 1.01-1.2 1.515-1.2 1.322 0 2.72.62 2.72 1.78 0 2.901-3.42 7.389-3.42 7.389 0 1.276.234 2.205 1.089 2.205 1.01-.039 1.166-.929 1.477-.929zm-5.984-.696c.04-1.16.739-4.333 1.71-6.809a2.569 2.569 0 00-1.244-.31c-1.515 0-2.758 1.394-3.536 2.786-.466.851-.932 2.205-.932 3.366 0 1.16.466 2.089 1.826 2.089.894 0 1.593-.426 2.176-1.122zM26.239 50.793c-.195-.387-.66-.58-1.127-.542-3.73.31-15.622.58-22.228.697-.466 0-.855.27-.855.773-.039 1.161.972 1.973 2.41 2.36 1.32.31 3.769.31 6.49.155-1.555 4.062-7.54 17.06-8.317 19.265-.932 2.63 3.226 3.752 4.391 2.94.428-.31.622-.774.777-1.083 1.127-2.747 9.482-21.509 9.482-21.509 4.275-.619 8.044-1.509 8.666-1.895.388-.271.544-.735.31-1.161z" fill="#fff"/><path fill-rule="evenodd" clip-rule="evenodd" d="M117.752 60.58h.195c.233 0 .427-.077.427-.27 0-.194-.117-.271-.389-.271-.116 0-.194 0-.233.038v.503zm0 1.045h-.427v-1.896c.155-.038.427-.038.738-.038.35 0 .505.038.661.154.116.078.194.232.194.426 0 .193-.155.387-.389.425v.039c.195.077.272.193.35.464.039.271.078.387.156.464h-.467c-.039-.077-.077-.232-.155-.464-.039-.193-.156-.31-.389-.31h-.194v.736h-.078zm-1.166-.967c0 .85.622 1.508 1.477 1.508.816 0 1.438-.657 1.438-1.508s-.622-1.51-1.477-1.51c-.816 0-1.438.659-1.438 1.51zm3.42 0c0 1.083-.855 1.895-1.943 1.895s-1.943-.85-1.943-1.895.855-1.896 1.943-1.896 1.943.851 1.943 1.896zM80.68 28.55c0 12.069-9.83 21.895-21.994 21.895-12.124 0-21.994-9.787-21.994-21.896 0-12.07 9.831-21.895 21.994-21.895 12.124 0 21.994 9.787 21.994 21.895z" fill="#21317D"/><path d="M38.984 28.55c0 10.831 8.822 19.613 19.702 19.613 10.88 0 19.702-8.782 19.702-19.614 0-10.831-8.821-19.613-19.702-19.613-10.88-.039-19.702 8.782-19.702 19.613z" fill="url(#paint0_radial)"/><path d="M69.023 37.37c-2.992 1.121-7.5 1.895-9.132 2.205-1.632.309-15.7-4.101-15.7-4.101l-3.963.039c2.876 7.311 9.792 12.61 18.264 12.61 9.132 0 16.437-5.686 18.963-13.81-.116-.038.233-.348.117-.387-.117-.038-.233-.038-.35-.038-1.67.038-5.44 2.437-8.2 3.481z" fill="#FDE6B1"/><path fill-rule="evenodd" clip-rule="evenodd" d="M60.551 45.919c-2.992 0-4.935-2.553-4.974-2.592l-.077-.078-.156-.232c.04-.154-1.787 1.702-4.663 1.702-1.243 0-2.526-.309-3.536-.89-3.342-1.933-2.37-5.415-2.293-5.57 0 0 .117-.31.156-.425 0-.039-.35.038-.35.038h-.35c-.427 0-2.292-.077-3.342-1.005-.816-.697-1.515-1.819-1.36-3.134a2.645 2.645 0 011.477-2.128c2.565-1.315 5.673-1.276 6.956-1.315.816 0 3.225.155 3.225.155-1.943-3.791-.738-6.615-.738-6.654l-.506-.155-.388-.193c-1.166-.426-1.788-2.089-1.71-3.095.039-.27.078-.619.194-1.083l.078-.348-.7-1.354c-.077-.27-.66-1.277-.621-3.134.117-4.062 1.826-6.808 5.907-8.742 0 0-.117-.039-.35-.31-.194-.232-.428-.58-.428-.58-.31-.503-.816-2.747.661-3.869 2.293-1.702 4.041-.232 4.041-.232s2.876-1.74 3.886 1.625c.311 1.083-.894 2.36-.894 2.36s3.11.774 4.936 2.746c.077-.038 2.448-1.353 4.196-.502 1.244.619 1.827 1.044 2.293 2.205.466 1.121.777 2.127.194 3.288-.466.928-.893 1.354-2.06 1.895h-.077l-.039.078a7.305 7.305 0 00-.35 2.243v.116h.117c1.554.04 2.992 1.47 2.992 3.25 0 .696-.155 1.238-.621 2.012l-.117.116-.389.387c1.75 1.779 2.177 3.52 2.099 4.796-.078 1.664-.7 3.018-1.866 4.024-.155.116-.466.31-.621.464l-.972.541 1.438-.077s1.399.077 1.399.039c.855.077 3.808.116 5.518 1.78.389.309.933 1.585.583 2.669-.272.85-.816 1.276-2.06 1.47h-.349l.038.154c0 .039.467 1.586-.816 2.592-.35.27-.893.735-2.292.929-1.283.154-2.099-.155-2.099-.155l-.116-.039-.039.116s-.505.89-1.516 1.16c-.077.04-.621.117-.738.117-1.088 0-2.06-.542-2.603-1.2l-.195-.27-.077.31c0 .038-.39 2.862-3.226 3.713-.583.232-1.554.27-1.71.27z" fill="#fff"/><path fill-rule="evenodd" clip-rule="evenodd" d="M78.155 34.081c-2.254-2.437-8.86-1.934-8.86-1.934.816 1.973-.156 2.398-2.526 2.94-1.516.348-2.137 1.663-2.137 1.663-1.283-1.315-3.303-.967-6.529-1.005-4.546-.078-8.277-2.399-5.634-5.145-1.322-.62-8.433-.89-11.62.85-2.603 1.432-1.864 4.063-.504 5.34 1.632 1.547 4.119 1.276 4.119 1.276s-1.01 4.332 2.603 6.073c5.013 2.399 8.277-.928 8.277-.928s1.632 3.327 6.14 2.863c3.886-.387 4.274-4.14 4.274-4.14.311.697 1.4 1.548 3.304 1.277 1.437-.232 1.826-1.393 1.826-1.393s2.137 1.316 4.391-.425c1.36-1.045.972-3.056.972-3.056 2.836-.387 3.186-2.863 1.904-4.256zm-.156 1.896c-.427 1.547-2.487 1.47-2.487 1.47s1.05 1.934-.816 3.056c-2.06 1.238-4.119 0-4.119 0s-.388 1.2-1.943 1.431c-2.331.31-3.225-1.47-3.225-1.47s-.544 3.404-4.12 3.869c-4.157.541-5.712-2.67-5.712-2.67-1.593 1.045-4.74 2.322-7.888.735-2.992-1.508-1.826-5.338-1.826-5.338-5.946-.077-5.907-3.52-4.003-4.913 2.876-2.05 8.821-1.47 8.821-1.47-1.204 2.012-.389 4.642 3.187 5.648 2.875.812 5.712.541 8.199.503 2.526-.039 2.953 1.818 2.953 1.818-.272-2.824 1.788-2.785 4.003-3.559 2.137-.735 1.166-2.437 1.166-2.437 4.896-.116 8.393 1.2 7.81 3.327zM63.582 6.112c-1.165-.89-2.875-1.857-7.033-1.509-8.705.735-10.92 6.848-10.026 11.877.311 1.818 1.36 2.94 1.36 2.94l1.01-1.47s-2.214-2.708-.543-6.77c1.282-3.095 4.507-5.842 9.753-5.842 3.925 0 6.684 1.741 7.15 3.83 0 .039.156-1.663-1.67-3.056z" fill="#21317D"/><path fill-rule="evenodd" clip-rule="evenodd" d="M64.476 7.505s1.555-1.431 4.003-.929c2.759.542 4.235 3.83 2.992 6.345-1.244 2.476-4.702 2.63-6.334-.039 0 0-1.321 2.747-5.13 2.979-5.13.31-6.683 1.547-7.227 3.481-.661 2.283 1.32 3.946 2.564 3.714 0 0-1.243.464-2.254-.193-2.06-1.393-1.593-3.443-1.088-4.488.933-2.05 3.653-2.979 5.752-3.21 2.759-.271 6.372-.31 7.422-4.643 0 0 .155 3.018 3.147 2.979 2.487-.039 3.264-2.514 2.487-4.371-.777-1.857-3.808-3.134-6.217-1.47l-.117-.155z" fill="#21317D"/><path fill-rule="evenodd" clip-rule="evenodd" d="M51.07 17.679s-.389-.503-1.477-.464c-1.321.077-2.02 1.74-1.982 3.172.078 1.508.816 3.095 2.487 3.52 0 0-.971 3.443.972 6.5 1.321 2.05 5.168 4.293 10.336 2.9 0 0 1.322 1.2 2.992 1.084 1.594-.116 2.293-1.2 2.293-1.2s2.099.465 4.314-1.392 3.614-4.99.272-9.207c-2.798-3.56-1.671-8.008-1.516-8.201.194-.194-.544-.039-.544-.039s-.971 3.482-.039 5.648c.933 2.166 3.225 4.333 3.42 6.925.155 2.127-1.321 5.802-5.79 5.609l.116-.774s-.427 1.934-2.681 1.857c-2.254-.077-3.536-1.78-3.536-1.78l.466 1.006s-3.303.735-6.334-.464c-3.03-1.16-5.324-5.184-3.575-9.245 0 0-1.321-.078-1.982-1.239-.894-1.585-.388-3.094.311-3.713.816-.813 1.477-.503 1.477-.503z" fill="#21317D"/><path fill-rule="evenodd" clip-rule="evenodd" d="M60.124 20.193c0 .542-.389 1.006-.855 1.006-.466 0-.855-.464-.855-1.006 0-.541.389-1.005.855-1.005.466 0 .855.464.855 1.005z" fill="#21317D"/><path fill-rule="evenodd" clip-rule="evenodd" d="M59.968 19.536c0 .232-.155.387-.35.387-.194 0-.349-.155-.349-.387s.156-.387.35-.387c.194 0 .35.193.35.387z" fill="#fff"/><path fill-rule="evenodd" clip-rule="evenodd" d="M69.256 19.884c0 .541-.389.967-.855.967-.466 0-.855-.425-.855-.967s.389-1.006.855-1.006c.505 0 .855.464.855 1.006z" fill="#21317D"/><path fill-rule="evenodd" clip-rule="evenodd" d="M69.14 19.226c0 .194-.156.387-.35.387-.195 0-.35-.155-.35-.387s.155-.386.35-.386c.194 0 .35.193.35.386z" fill="#fff"/><path fill-rule="evenodd" clip-rule="evenodd" d="M60.202 27.93c1.982 1.625 5.13 2.476 7.5-.425-1.01 2.63-4.392 3.714-7.811.89 0 0-.505.232-.894.116.583-.155 1.127-.658 1.282-1.393.078.27.04.542-.077.812zM47.3 32.689s-2.098-.233-3.147.425c-.972.62-.272 1.78 1.127 1.547 1.438-.232 2.02-1.972 2.02-1.972zM51.964 37.176s-2.526.619-2.876 2.128c-.35 1.547 1.67 2.36 2.565.85.583-.966.31-2.978.31-2.978zM59.658 38.685S58.88 40 58.842 40.85c-.04.851.505 1.934 1.71 1.354 1.087-.542 0-2.592-.894-3.52zM67.701 37.872s-.893 2.863 1.089 2.515c1.981-.31-1.089-2.515-1.089-2.515zM70.85 36.325s.737 2.592 1.942 1.74c1.05-.696-1.01-1.624-1.943-1.74zM72.21 33.85s2.253 1.817 3.03.966c.777-.85-2.215-1.122-3.03-.967zM65.642 26.499c-.389-.039-.777-.193-1.282-.387-.078.039-1.05.271-1.4-.503-.271-.619.117-1.276.622-1.508-.272.31-.621 1.238.272 1.43.272.078.661-.038.661-.038s.583.348 1.205.387c.777.039 1.282-.27 1.515-1.122 0 0 .195.851-.388 1.393-.272.232-.7.387-1.205.348zM63.699 20.696c.272-.387.777-.657 1.282-.619.428.04.778.232 1.05.542l.116-.232.156-.348c-.35-.31-.778-.542-1.283-.542-.621-.039-1.166.194-1.593.58l.272.62z" fill="#21317D"/><path fill-rule="evenodd" clip-rule="evenodd" d="M60.124 17.021c-2.02 0-3.653 1.664-3.653 3.675 0 2.05 1.632 3.714 3.653 3.714 2.02 0 3.653-1.663 3.653-3.714 0-2.011-1.632-3.675-3.653-3.675zm.194 6.809a3.128 3.128 0 01-3.147-3.134 3.127 3.127 0 013.147-3.133 3.127 3.127 0 013.148 3.133c-.039 1.702-1.438 3.134-3.148 3.134zM68.984 16.673c-1.71 0-3.109 1.509-3.109 3.366 0 1.857 1.4 3.365 3.109 3.365 1.71 0 3.109-1.508 3.109-3.365 0-1.857-1.4-3.366-3.11-3.366zm.116 6.228c-1.515 0-2.72-1.276-2.72-2.862s1.205-2.863 2.72-2.863c1.516 0 2.72 1.277 2.72 2.863S70.617 22.9 69.1 22.9zM57.598 1.509S56.51.116 54.606.426c-2.837.502-3.42 3.713-1.166 5.222.544-.155-.505.774-1.321 1.044 0 0-2.332-1.586-1.205-4.216 1.477-3.404 5.868-2.863 6.684-.967z" fill="#21317D"/><path fill-rule="evenodd" clip-rule="evenodd" d="M59.774 1.083c.894 1.122.7 2.63-.816 3.25-.7.27-3.225.464-3.497.696.194.503 3.925.077 4.197.232.544-.039 1.32-.967 1.476-1.47.972-3.017-2.331-4.1-3.886-3.288.04 0 1.71-.464 2.526.58z" fill="#21317D"/><path fill-rule="evenodd" clip-rule="evenodd" d="M71.82 20.039c0 1.586-1.204 2.901-2.72 2.901-1.476 0-2.72-1.277-2.72-2.901 0-1.586 1.205-2.902 2.72-2.902 1.516 0 2.72 1.316 2.72 2.902z" fill="#fff"/><path fill-rule="evenodd" clip-rule="evenodd" d="M69.256 19.884c0 .541-.389.967-.855.967-.466 0-.855-.425-.855-.967s.389-1.006.855-1.006c.505 0 .855.464.855 1.006z" fill="#21317D"/><path fill-rule="evenodd" clip-rule="evenodd" d="M69.14 19.226c0 .194-.156.387-.35.387-.195 0-.35-.155-.35-.387s.155-.386.35-.386c.194 0 .35.193.35.386zM59.968 19.536c0 .232-.155.387-.35.387-.194 0-.349-.155-.349-.387s.156-.387.35-.387c.194 0 .35.193.35.387z" fill="#fff"/></g><defs><radialGradient id="paint0_radial" cx="0" cy="0" r="1" gradientUnits="userSpaceOnUse" gradientTransform="matrix(19.7195 0 0 19.6309 58.69 28.543)"><stop stop-color="#69ADE5"/><stop offset="1" stop-color="#0062A4"/></radialGradient><clipPath id="clip0"><path fill="#fff" transform="translate(.941)" d="M0 0h119.065v80H0z"/></clipPath></defs></svg>